<svg width="48" height="48" viewBox="0 0 48 48" fill="none" xmlns="http://www.w3.org/2000/svg">
<circle cx="24" cy="24" r="24" fill="#80C4CE"/>
<path fill-rule="evenodd" clip-rule="evenodd" d="M19.0201 11.2881C20.4375 11.2228 20.8894 11.2083 24.4999 11.2083C28.1104 11.2083 28.5623 11.224 29.9785 11.2881C31.3947 11.3521 32.3613 11.5781 33.2072 11.9055C34.0929 12.2402 34.8964 12.7635 35.561 13.4401C36.2377 14.1035 36.7597 14.9058 37.0932 15.7927C37.4218 16.6386 37.6466 17.6052 37.7118 19.019C37.7771 20.4388 37.7916 20.8907 37.7916 24.5C37.7916 28.1105 37.7759 28.5624 37.7118 29.9798C37.6478 31.3935 37.4218 32.3602 37.0932 33.206C36.7597 34.0931 36.2368 34.8967 35.561 35.5611C34.8964 36.2377 34.0929 36.7597 33.2072 37.0932C32.3613 37.4219 31.3947 37.6467 29.9809 37.7119C28.5623 37.7772 28.1104 37.7917 24.4999 37.7917C20.8894 37.7917 20.4375 37.776 19.0201 37.7119C17.6064 37.6479 16.6397 37.4219 15.7939 37.0932C14.9069 36.7597 14.1032 36.2368 13.4388 35.5611C12.7626 34.8973 12.2393 34.094 11.9055 33.2072C11.578 32.3614 11.3533 31.3947 11.288 29.981C11.2228 28.5612 11.2083 28.1093 11.2083 24.5C11.2083 20.8895 11.224 20.4376 11.288 19.0214C11.352 17.6052 11.578 16.6386 11.9055 15.7927C12.2398 14.9059 12.7635 14.1027 13.44 13.4389C14.1035 12.7629 14.9063 12.2396 15.7927 11.9055C16.6385 11.5781 17.6052 11.3533 19.0189 11.2881H19.0201ZM29.871 13.6806C28.4693 13.6165 28.0488 13.6032 24.4999 13.6032C20.951 13.6032 20.5305 13.6165 19.1289 13.6806C17.8323 13.7398 17.1291 13.9561 16.6603 14.1385C16.0404 14.3802 15.5969 14.6666 15.1317 15.1318C14.6907 15.5608 14.3513 16.0831 14.1385 16.6603C13.956 17.1292 13.7397 17.8324 13.6805 19.129C13.6165 20.5306 13.6032 20.9511 13.6032 24.5C13.6032 28.0489 13.6165 28.4694 13.6805 29.871C13.7397 31.1676 13.956 31.8708 14.1385 32.3397C14.3511 32.916 14.6907 33.4392 15.1317 33.8682C15.5607 34.3092 16.0839 34.6488 16.6603 34.8615C17.1291 35.0439 17.8323 35.2602 19.1289 35.3194C20.5305 35.3835 20.9498 35.3967 24.4999 35.3967C28.05 35.3967 28.4693 35.3835 29.871 35.3194C31.1675 35.2602 31.8708 35.0439 32.3396 34.8615C32.9595 34.6198 33.4029 34.3334 33.8681 33.8682C34.3092 33.4392 34.6487 32.916 34.8614 32.3397C35.0438 31.8708 35.2601 31.1676 35.3193 29.871C35.3834 28.4694 35.3967 28.0489 35.3967 24.5C35.3967 20.9511 35.3834 20.5306 35.3193 19.129C35.2601 17.8324 35.0438 17.1292 34.8614 16.6603C34.6197 16.0405 34.3333 15.597 33.8681 15.1318C33.4391 14.6908 32.9168 14.3515 32.3396 14.1385C31.8708 13.9561 31.1675 13.7398 29.871 13.6806ZM22.8022 28.5975C23.7503 28.9921 24.8061 29.0454 25.7891 28.7482C26.7722 28.4509 27.6215 27.8216 28.1921 26.9677C28.7627 26.1138 29.0192 25.0883 28.9176 24.0663C28.8161 23.0444 28.363 22.0893 27.6355 21.3644C27.1718 20.9009 26.6111 20.5461 25.9938 20.3254C25.3765 20.1047 24.7179 20.0236 24.0655 20.0879C23.4131 20.1523 22.7831 20.3605 22.2208 20.6975C21.6585 21.0346 21.1779 21.4921 20.8137 22.0372C20.4494 22.5823 20.2106 23.2014 20.1143 23.8499C20.018 24.4983 20.0667 25.1601 20.2569 25.7875C20.4471 26.4149 20.774 26.9923 21.2141 27.4782C21.6542 27.9641 22.1966 28.3463 22.8022 28.5975ZM19.669 19.6691C20.3034 19.0347 21.0566 18.5314 21.8854 18.1881C22.7143 17.8448 23.6027 17.668 24.4999 17.668C25.3971 17.668 26.2855 17.8448 27.1144 18.1881C27.9433 18.5314 28.6964 19.0347 29.3308 19.6691C29.9652 20.3035 30.4685 21.0566 30.8118 21.8855C31.1552 22.7144 31.3319 23.6028 31.3319 24.5C31.3319 25.3972 31.1552 26.2856 30.8118 27.1145C30.4685 27.9434 29.9652 28.6965 29.3308 29.3309C28.0496 30.6121 26.3119 31.3319 24.4999 31.3319C22.688 31.3319 20.9502 30.6121 19.669 29.3309C18.3878 28.0497 17.668 26.3119 17.668 24.5C17.668 22.688 18.3878 20.9503 19.669 19.6691ZM32.8471 18.6855C33.0043 18.5372 33.1301 18.3589 33.2172 18.161C33.3043 17.9632 33.3507 17.75 33.3539 17.5339C33.357 17.3178 33.3168 17.1032 33.2355 16.903C33.1543 16.7027 33.0337 16.5208 32.8809 16.368C32.7281 16.2151 32.5461 16.0945 32.3459 16.0133C32.1456 15.932 31.9311 15.8918 31.715 15.8949C31.4989 15.8981 31.2856 15.9446 31.0878 16.0316C30.89 16.1187 30.7116 16.2445 30.5633 16.4017C30.2749 16.7075 30.117 17.1136 30.1231 17.5339C30.1293 17.9541 30.2989 18.3555 30.5961 18.6527C30.8934 18.9499 31.2947 19.1196 31.715 19.1257C32.1352 19.1318 32.5413 18.9739 32.8471 18.6855Z" fill="white"/>
</svg>
