<svg width="20" height="20" viewBox="0 0 20 20" fill="none" xmlns="http://www.w3.org/2000/svg">
<g clip-path="url(#clip0_79_43)">
<path d="M14.8401 7.50668C14.9615 7.37635 15.0277 7.20398 15.0245 7.02587C15.0214 6.84776 14.9492 6.67782 14.8233 6.55186C14.6973 6.4259 14.5274 6.35374 14.3492 6.3506C14.1711 6.34746 13.9988 6.41357 13.8684 6.53501L8.39594 12.0075L6.13177 9.74335C6.00144 9.62191 5.82907 9.55579 5.65096 9.55893C5.47285 9.56208 5.30291 9.63423 5.17695 9.76019C5.05099 9.88615 4.97884 10.0561 4.97569 10.2342C4.97255 10.4123 5.03866 10.5847 5.1601 10.715L7.9101 13.465C8.03901 13.5938 8.21375 13.6661 8.39594 13.6661C8.57812 13.6661 8.75286 13.5938 8.88177 13.465L14.8401 7.50668Z" fill="#63636D"/>
<path fill-rule="evenodd" clip-rule="evenodd" d="M2.43742 0.833344C2.01197 0.833344 1.60394 1.00235 1.3031 1.30319C1.00226 1.60403 0.833252 2.01206 0.833252 2.43751V17.5625C0.833252 18.448 1.55192 19.1667 2.43742 19.1667H17.5624C17.9879 19.1667 18.3959 18.9977 18.6967 18.6968C18.9976 18.396 19.1666 17.988 19.1666 17.5625V2.43751C19.1666 2.01206 18.9976 1.60403 18.6967 1.30319C18.3959 1.00235 17.9879 0.833344 17.5624 0.833344H2.43742ZM2.20825 2.43751C2.20825 2.37673 2.2324 2.31844 2.27537 2.27546C2.31835 2.23249 2.37664 2.20834 2.43742 2.20834H17.5624C17.6232 2.20834 17.6815 2.23249 17.7245 2.27546C17.7674 2.31844 17.7916 2.37673 17.7916 2.43751V17.5625C17.7916 17.6233 17.7674 17.6816 17.7245 17.7246C17.6815 17.7675 17.6232 17.7917 17.5624 17.7917H2.43742C2.37664 17.7917 2.31835 17.7675 2.27537 17.7246C2.2324 17.6816 2.20825 17.6233 2.20825 17.5625V2.43751Z" fill="#63636D"/>
</g>
<defs>
<clipPath id="clip0_79_43">
<rect width="20" height="20" fill="white"/>
</clipPath>
</defs>
</svg>
