<svg width="48" height="48" viewBox="0 0 48 48" fill="none" xmlns="http://www.w3.org/2000/svg">
<circle cx="24" cy="24" r="24" fill="#80C4CE"/>
<g clip-path="url(#clip0_51_24)">
<path d="M33.3967 21.9181C33.499 21.9146 33.601 21.9317 33.6966 21.9684C33.7922 22.0052 33.8795 22.0608 33.9531 22.1319C34.0268 22.2031 34.0854 22.2883 34.1254 22.3826C34.1654 22.4769 34.186 22.5783 34.186 22.6807C34.186 22.7831 34.1654 22.8845 34.1254 22.9788C34.0854 23.0731 34.0268 23.1583 33.9531 23.2295C33.8795 23.3007 33.7922 23.3563 33.6966 23.393C33.601 23.4297 33.499 23.4468 33.3967 23.4433H31.2769V24.8027H33.3967C33.4996 24.7977 33.6026 24.8136 33.6992 24.8495C33.7958 24.8855 33.8841 24.9407 33.9588 25.0118C34.0334 25.0829 34.0929 25.1684 34.1335 25.2632C34.1741 25.3579 34.195 25.4599 34.195 25.563C34.195 25.6661 34.1741 25.7681 34.1335 25.8629C34.0929 25.9577 34.0334 26.0432 33.9588 26.1143C33.8841 26.1854 33.7958 26.2406 33.6992 26.2765C33.6026 26.3125 33.4996 26.3284 33.3967 26.3234H30.5175C30.3162 26.3227 30.1234 26.2423 29.9813 26.0998C29.8391 25.9573 29.7592 25.7643 29.759 25.563V19.7993C29.759 19.3797 30.0988 19.0353 30.5175 19.0353H33.4021C33.5978 19.0454 33.7821 19.1304 33.9168 19.2727C34.0515 19.415 34.1264 19.6037 34.1258 19.7996C34.1252 19.9956 34.0493 20.1838 33.9137 20.3253C33.7781 20.4668 33.5933 20.5507 33.3976 20.5596H31.2778V21.919L33.3967 21.9181ZM28.744 25.5621C28.7423 25.764 28.661 25.957 28.5178 26.0992C28.3745 26.2414 28.1809 26.3213 27.9791 26.3216C27.8596 26.3227 27.7414 26.2961 27.634 26.2437C27.5266 26.1913 27.4328 26.1147 27.3601 26.0198L24.4103 22.0078V25.5612C24.4103 25.7629 24.3302 25.9563 24.1876 26.0989C24.045 26.2415 23.8516 26.3216 23.6499 26.3216C23.4483 26.3216 23.2549 26.2415 23.1123 26.0989C22.9697 25.9563 22.8896 25.7629 22.8896 25.5612V19.7975C22.8896 19.4721 23.1026 19.1803 23.4089 19.0761C23.4845 19.0494 23.5643 19.0362 23.6445 19.0371C23.8801 19.0371 24.0976 19.1649 24.2435 19.3443L27.2169 23.3654V19.7975C27.2169 19.3779 27.5568 19.0335 27.9773 19.0335C28.3978 19.0335 28.7422 19.3779 28.7422 19.7975L28.744 25.5621ZM21.8057 25.5621C21.8048 25.7643 21.7237 25.9578 21.5804 26.1003C21.437 26.2428 21.243 26.3227 21.0408 26.3225C20.8402 26.3208 20.6483 26.24 20.507 26.0976C20.3656 25.9552 20.2862 25.7628 20.2859 25.5621V19.7984C20.2859 19.3788 20.6258 19.0344 21.0463 19.0344C21.4659 19.0344 21.8066 19.3788 21.8066 19.7984L21.8057 25.5621ZM18.8269 26.3225H15.9423C15.7404 26.322 15.5468 26.2419 15.4036 26.0995C15.2603 25.9572 15.1791 25.7641 15.1774 25.5621V19.7984C15.1774 19.3788 15.5218 19.0344 15.9423 19.0344C16.3628 19.0344 16.7026 19.3788 16.7026 19.7984V24.8018H18.8269C19.0285 24.8018 19.2219 24.8819 19.3645 25.0245C19.5071 25.1671 19.5872 25.3605 19.5872 25.5621C19.5872 25.7638 19.5071 25.9572 19.3645 26.0998C19.2219 26.2424 19.0285 26.3225 18.8269 26.3225ZM39 22.46C39 15.9704 32.4904 10.6888 24.5 10.6888C16.5096 10.6888 10 15.9704 10 22.46C10 28.2754 15.1593 33.1465 22.1256 34.0718C22.5978 34.1706 23.2394 34.3836 23.4052 34.785C23.5512 35.1475 23.4995 35.7094 23.4524 36.0928L23.2539 37.3243C23.1968 37.6877 22.9612 38.7553 24.519 38.1037C26.0814 37.4521 32.8783 33.1764 35.9224 29.6729C38.004 27.3937 39 25.0519 39 22.46Z" fill="white"/>
</g>
<defs>
<clipPath id="clip0_51_24">
<rect width="29" height="29" fill="white" transform="translate(10 10)"/>
</clipPath>
</defs>
</svg>
