<svg width="20" height="20" viewBox="0 0 20 20" fill="none" xmlns="http://www.w3.org/2000/svg">
<g clip-path="url(#clip0_146_51)">
<path d="M14.8401 7.50665C14.9615 7.37632 15.0277 7.20395 15.0245 7.02584C15.0214 6.84773 14.9492 6.67779 14.8233 6.55183C14.6973 6.42587 14.5274 6.35371 14.3492 6.35057C14.1711 6.34743 13.9988 6.41354 13.8684 6.53498L8.39594 12.0075L6.13177 9.74332C6.00144 9.62188 5.82907 9.55576 5.65096 9.5589C5.47285 9.56205 5.30291 9.6342 5.17695 9.76016C5.05099 9.88612 4.97884 10.0561 4.97569 10.2342C4.97255 10.4123 5.03866 10.5847 5.1601 10.715L7.9101 13.465C8.03901 13.5937 8.21375 13.666 8.39594 13.666C8.57812 13.666 8.75286 13.5937 8.88177 13.465L14.8401 7.50665Z" fill="#63636D"/>
<path fill-rule="evenodd" clip-rule="evenodd" d="M2.43742 0.833313C2.01197 0.833313 1.60394 1.00232 1.3031 1.30316C1.00226 1.604 0.833252 2.01203 0.833252 2.43748V17.5625C0.833252 18.448 1.55192 19.1666 2.43742 19.1666H17.5624C17.9879 19.1666 18.3959 18.9976 18.6967 18.6968C18.9976 18.396 19.1666 17.9879 19.1666 17.5625V2.43748C19.1666 2.01203 18.9976 1.604 18.6967 1.30316C18.3959 1.00232 17.9879 0.833313 17.5624 0.833313H2.43742ZM2.20825 2.43748C2.20825 2.3767 2.2324 2.31841 2.27537 2.27543C2.31835 2.23246 2.37664 2.20831 2.43742 2.20831H17.5624C17.6232 2.20831 17.6815 2.23246 17.7245 2.27543C17.7674 2.31841 17.7916 2.3767 17.7916 2.43748V17.5625C17.7916 17.6233 17.7674 17.6815 17.7245 17.7245C17.6815 17.7675 17.6232 17.7916 17.5624 17.7916H2.43742C2.37664 17.7916 2.31835 17.7675 2.27537 17.7245C2.2324 17.6815 2.20825 17.6233 2.20825 17.5625V2.43748Z" fill="#63636D"/>
</g>
<defs>
<clipPath id="clip0_146_51">
<rect width="20" height="20" fill="white"/>
</clipPath>
</defs>
</svg>
