<svg width="15" height="16" viewBox="0 0 15 16" fill="none" xmlns="http://www.w3.org/2000/svg">
<g clip-path="url(#clip0_146_81)">
<path d="M14.8415 12.53C14.8065 12.3018 14.6706 12.1068 14.4671 11.9909L11.4568 10.1234L11.432 10.1088C11.3058 10.0423 11.1664 10.0082 11.0252 10.0093C10.773 10.0093 10.5321 10.1099 10.365 10.2864L9.47646 11.2223C9.43845 11.2604 9.31455 11.3154 9.27696 11.3174C9.26667 11.3165 8.24313 11.2389 6.3588 9.2547C4.47783 7.27468 4.39803 6.19368 4.3974 6.19368C4.39845 6.13841 4.45011 6.0084 4.48686 5.96815L5.24454 5.17062C5.51145 4.88893 5.59146 4.42195 5.43312 4.06021L3.75984 0.745144C3.63825 0.481583 3.402 0.318848 3.13992 0.318848C2.95449 0.318848 2.77557 0.399773 2.63571 0.54681L0.570358 2.71654C0.372328 2.92394 0.201807 3.28656 0.164637 3.57842C0.146577 3.71794 -0.219873 7.04827 4.11663 11.6148C7.79814 15.4906 10.6688 15.7918 11.4616 15.7918C11.5581 15.7931 11.6546 15.7878 11.7505 15.7761C12.0269 15.7371 12.3709 15.558 12.5677 15.3504L14.6313 13.1778C14.7997 12.9996 14.8766 12.7641 14.8415 12.53V12.53Z" fill="#63636D"/>
</g>
<defs>
<clipPath id="clip0_146_81">
<rect width="15" height="16" fill="white"/>
</clipPath>
</defs>
</svg>
