<svg width="16" height="14" viewBox="0 0 16 14" fill="none" xmlns="http://www.w3.org/2000/svg">
<g clip-path="url(#clip0_146_83)">
<path d="M13.5 0.211426C14.163 0.211426 14.7989 0.48875 15.2678 0.98239C15.7366 1.47603 16 2.14555 16 2.84366V11.2668C16 11.9649 15.7366 12.6345 15.2678 13.1281C14.7989 13.6217 14.163 13.8991 13.5 13.8991H2.5C1.83696 13.8991 1.20107 13.6217 0.732233 13.1281C0.263392 12.6345 0 11.9649 0 11.2668V2.84366C0 2.14555 0.263392 1.47603 0.732233 0.98239C1.20107 0.48875 1.83696 0.211426 2.5 0.211426H13.5ZM15 4.38194L8.254 8.56193C8.19022 8.60136 8.11893 8.6254 8.04527 8.63232C7.9716 8.63924 7.8974 8.62886 7.828 8.60194L7.746 8.56193L1 4.38405V11.2668C1 11.6857 1.15804 12.0874 1.43934 12.3836C1.72064 12.6798 2.10218 12.8462 2.5 12.8462H13.5C13.8978 12.8462 14.2794 12.6798 14.5607 12.3836C14.842 12.0874 15 11.6857 15 11.2668V4.38194ZM13.5 1.26432H2.5C2.10218 1.26432 1.72064 1.43071 1.43934 1.7269C1.15804 2.02308 1 2.4248 1 2.84366V3.16164L8 7.49746L15 3.15953V2.84366C15 2.4248 14.842 2.02308 14.5607 1.7269C14.2794 1.43071 13.8978 1.26432 13.5 1.26432V1.26432Z" fill="#63636D"/>
</g>
<defs>
<clipPath id="clip0_146_83">
<rect width="16" height="14" fill="white"/>
</clipPath>
</defs>
</svg>
