<svg width="27" height="27" viewBox="0 0 27 27" fill="none" xmlns="http://www.w3.org/2000/svg">
<path fill-rule="evenodd" clip-rule="evenodd" d="M7.81187 0.07975C9.22925 0.0145 9.68117 0 13.2917 0C16.9022 0 17.3541 0.0157083 18.7702 0.07975C20.1864 0.143792 21.1531 0.36975 21.9989 0.697208C22.8846 1.03192 23.6882 1.55512 24.3527 2.23179C25.0294 2.89517 25.5514 3.6975 25.8849 4.58442C26.2136 5.43025 26.4383 6.39692 26.5036 7.81067C26.5688 9.23046 26.5833 9.68237 26.5833 13.2917C26.5833 16.9022 26.5676 17.3541 26.5036 18.7715C26.4395 20.1852 26.2136 21.1519 25.8849 21.9977C25.5514 22.8847 25.0285 23.6884 24.3527 24.3527C23.6882 25.0294 22.8846 25.5514 21.9989 25.8849C21.1531 26.2136 20.1864 26.4383 18.7727 26.5036C17.3541 26.5688 16.9022 26.5833 13.2917 26.5833C9.68117 26.5833 9.22925 26.5676 7.81187 26.5036C6.39812 26.4395 5.43146 26.2136 4.58562 25.8849C3.69861 25.5514 2.89495 25.0285 2.23058 24.3527C1.55438 23.689 1.03109 22.8857 0.697208 21.9989C0.36975 21.1531 0.145 20.1864 0.07975 18.7727C0.0145 17.3529 0 16.901 0 13.2917C0 9.68117 0.0157083 9.22925 0.07975 7.81308C0.143792 6.39692 0.36975 5.43025 0.697208 4.58442C1.03158 3.6976 1.55527 2.89434 2.23179 2.23058C2.89522 1.55452 3.69807 1.03124 4.58442 0.697208C5.43025 0.36975 6.39692 0.145 7.81067 0.07975H7.81187ZM18.6627 2.47225C17.261 2.40821 16.8405 2.39492 13.2917 2.39492C9.74279 2.39492 9.32229 2.40821 7.92062 2.47225C6.62408 2.53146 5.92083 2.74775 5.452 2.93021C4.83212 3.17187 4.38867 3.45825 3.92346 3.92346C3.48247 4.35248 3.14309 4.87476 2.93021 5.452C2.74775 5.92083 2.53146 6.62408 2.47225 7.92062C2.40821 9.32229 2.39492 9.74279 2.39492 13.2917C2.39492 16.8405 2.40821 17.261 2.47225 18.6627C2.53146 19.9592 2.74775 20.6625 2.93021 21.1313C3.14287 21.7077 3.48242 22.2309 3.92346 22.6599C4.35242 23.1009 4.87562 23.4405 5.452 23.6531C5.92083 23.8356 6.62408 24.0519 7.92062 24.1111C9.32229 24.1751 9.74158 24.1884 13.2917 24.1884C16.8417 24.1884 17.261 24.1751 18.6627 24.1111C19.9592 24.0519 20.6625 23.8356 21.1313 23.6531C21.7512 23.4115 22.1947 23.1251 22.6599 22.6599C23.1009 22.2309 23.4405 21.7077 23.6531 21.1313C23.8356 20.6625 24.0519 19.9592 24.1111 18.6627C24.1751 17.261 24.1884 16.8405 24.1884 13.2917C24.1884 9.74279 24.1751 9.32229 24.1111 7.92062C24.0519 6.62408 23.8356 5.92083 23.6531 5.452C23.4115 4.83212 23.1251 4.38867 22.6599 3.92346C22.2308 3.4825 21.7086 3.14313 21.1313 2.93021C20.6625 2.74775 19.9592 2.53146 18.6627 2.47225ZM11.594 17.3891C12.5421 17.7838 13.5978 17.8371 14.5809 17.5398C15.5639 17.2426 16.4133 16.6133 16.9839 15.7594C17.5545 14.9055 17.8109 13.88 17.7094 12.858C17.6079 11.836 17.1547 10.881 16.4273 10.156C15.9636 9.69262 15.4029 9.33777 14.7856 9.11705C14.1683 8.89633 13.5097 8.81523 12.8573 8.87958C12.2048 8.94393 11.5748 9.15213 11.0125 9.4892C10.4502 9.82627 9.96965 10.2838 9.60541 10.8289C9.24117 11.374 9.00231 11.9931 8.90604 12.6415C8.80977 13.29 8.85847 13.9518 9.04865 14.5792C9.23883 15.2066 9.56575 15.784 10.0059 16.2699C10.446 16.7558 10.9884 17.138 11.594 17.3891ZM8.46075 8.46075C9.09515 7.82634 9.8483 7.32311 10.6772 6.97977C11.5061 6.63643 12.3945 6.45972 13.2917 6.45972C14.1889 6.45972 15.0772 6.63643 15.9061 6.97977C16.735 7.32311 17.4882 7.82634 18.1226 8.46075C18.757 9.09515 19.2602 9.8483 19.6036 10.6772C19.9469 11.5061 20.1236 12.3945 20.1236 13.2917C20.1236 14.1889 19.9469 15.0772 19.6036 15.9061C19.2602 16.735 18.757 17.4882 18.1226 18.1226C16.8413 19.4038 15.1036 20.1236 13.2917 20.1236C11.4797 20.1236 9.74199 19.4038 8.46075 18.1226C7.17951 16.8413 6.45972 15.1036 6.45972 13.2917C6.45972 11.4797 7.17951 9.74199 8.46075 8.46075ZM21.6388 7.47717C21.796 7.32887 21.9219 7.15053 22.0089 6.95272C22.096 6.75491 22.1425 6.54164 22.1456 6.32554C22.1488 6.10944 22.1085 5.89491 22.0273 5.69464C21.946 5.49438 21.8254 5.31245 21.6726 5.15963C21.5198 5.00681 21.3379 4.88621 21.1376 4.80496C20.9373 4.72371 20.7228 4.68347 20.5067 4.68662C20.2906 4.68977 20.0773 4.73625 19.8795 4.8233C19.6817 4.91035 19.5034 5.03621 19.3551 5.19342C19.0667 5.49916 18.9088 5.90527 18.9149 6.32554C18.921 6.74581 19.0907 7.14714 19.3879 7.44435C19.6851 7.74156 20.0864 7.91123 20.5067 7.91736C20.927 7.92349 21.3331 7.76558 21.6388 7.47717Z" fill="white"/>
</svg>
