<svg width="139" height="59" viewBox="0 0 139 59" fill="none" xmlns="http://www.w3.org/2000/svg">
<path d="M27.2246 41.6172C27.0788 40.2044 26.5729 39.0378 25.707 38.1172C24.7227 37.0508 23.3874 36.5176 21.7012 36.5176C20.3431 36.5176 19.2676 36.9551 18.4746 37.8301C17.8366 38.5228 17.5176 39.3568 17.5176 40.332C17.5176 42 18.7344 43.2669 21.168 44.1328L21.8652 44.3789C24.8184 45.4544 26.7233 46.4753 27.5801 47.4414C28.3822 48.3529 28.7832 49.4421 28.7832 50.709C28.7832 52.623 28.0085 54.0905 26.459 55.1113C25.3288 55.8496 23.9844 56.2188 22.4258 56.2188C20.7214 56.2188 19.1354 55.7585 17.668 54.8379C17.2487 54.5553 16.9206 54.4141 16.6836 54.4141C16.3464 54.4141 16.1777 54.8333 16.1777 55.6719H15.3164V49.1504H16.123C16.3236 50.8639 16.875 52.2174 17.7773 53.2109C18.9622 54.4779 20.5117 55.1113 22.4258 55.1113C23.6927 55.1113 24.6999 54.765 25.4473 54.0723C26.2493 53.3522 26.6504 52.3724 26.6504 51.1328C26.6504 50.2031 26.3132 49.3737 25.6387 48.6445C25.028 47.9974 23.752 47.2773 21.8105 46.4844L21.2773 46.2656C19.2448 45.4727 17.9095 44.8346 17.2715 44.3516C16.0957 43.4583 15.5078 42.2734 15.5078 40.7969C15.5078 39.1471 16.123 37.8301 17.3535 36.8457C18.4746 35.9525 19.8965 35.5059 21.6191 35.5059C23.1139 35.5059 24.5996 35.9069 26.0762 36.709C26.377 36.8822 26.6003 36.9688 26.7461 36.9688C27.0104 36.9688 27.1562 36.5951 27.1836 35.8477H28.0586V41.6172H27.2246ZM38.8047 41.6855C40.6458 41.6855 42.1908 42.3099 43.4395 43.5586C44.7884 44.9076 45.4629 46.6712 45.4629 48.8496C45.4629 51.1556 44.7884 52.9785 43.4395 54.3184C42.1816 55.5488 40.6367 56.1641 38.8047 56.1641C36.9544 56.1641 35.4095 55.5488 34.1699 54.3184C32.8301 52.9785 32.1602 51.1784 32.1602 48.918C32.1602 46.694 32.8438 44.8984 34.2109 43.5312C35.4414 42.3008 36.9727 41.6855 38.8047 41.6855ZM38.8047 42.6562C37.4193 42.6562 36.3073 43.2441 35.4688 44.4199C34.6484 45.5592 34.2383 47.0586 34.2383 48.918C34.2383 50.8776 34.6849 52.418 35.5781 53.5391C36.3984 54.5872 37.474 55.1113 38.8047 55.1113C40.4544 55.1113 41.6758 54.3822 42.4688 52.9238C43.0794 51.7754 43.3848 50.4492 43.3848 48.9453C43.3848 46.9674 42.9382 45.4043 42.0449 44.2559C41.2064 43.1895 40.1263 42.6562 38.8047 42.6562ZM54.5957 55.7266H47.8008V54.9473C48.4023 54.9473 48.9128 54.888 49.332 54.7695C49.9701 54.6328 50.2891 54.1042 50.2891 53.1836V38.5547C50.2891 37.707 50.0749 37.1966 49.6465 37.0234C49.3639 36.9049 48.7578 36.8457 47.8281 36.8457V35.9844C49.332 35.957 50.7676 35.8158 52.1348 35.5605V53.1836C52.1348 54.0312 52.3854 54.5508 52.8867 54.7422C53.2513 54.8789 53.821 54.9473 54.5957 54.9473V55.7266ZM69.3613 48.5762H58.8066V49.0547C58.8066 50.8958 59.3672 52.3906 60.4883 53.5391C61.4271 54.4688 62.5664 54.9336 63.9062 54.9336C65.9115 54.9336 67.4609 53.9629 68.5547 52.0215L69.3066 52.6094C68.1126 54.9792 66.2031 56.1641 63.5781 56.1641C61.6276 56.1641 60.0189 55.5306 58.752 54.2637C57.485 52.9603 56.8516 51.2148 56.8516 49.0273C56.8516 46.7031 57.5215 44.8711 58.8613 43.5312C60.028 42.3372 61.5137 41.7402 63.3184 41.7402C65.0684 41.7402 66.4857 42.3008 67.5703 43.4219C68.7643 44.6159 69.3613 46.1654 69.3613 48.0703V48.5762ZM67.4609 47.5098C67.4062 45.9056 66.9414 44.6615 66.0664 43.7773C65.3099 43.0482 64.3848 42.6836 63.291 42.6836C61.9876 42.6836 60.903 43.2533 60.0371 44.3926C59.4173 45.2038 59.0391 46.2428 58.9023 47.5098H67.4609ZM75.3086 35.9023C75.7096 35.9023 76.0469 36.0436 76.3203 36.3262C76.6029 36.6087 76.7441 36.946 76.7441 37.3379C76.7441 38.2676 76.2656 38.7324 75.3086 38.7324C74.3789 38.7324 73.9141 38.2676 73.9141 37.3379C73.9141 36.3809 74.3789 35.9023 75.3086 35.9023ZM78.6172 55.7266H71.959V54.9473C72.5697 54.9473 73.071 54.888 73.4629 54.7695C74.0827 54.6055 74.3926 54.0723 74.3926 53.1699V44.8027C74.3926 43.9186 74.1693 43.3945 73.7227 43.2305C73.4401 43.1211 72.8522 43.0664 71.959 43.0664V42.2188C73.4811 42.1914 74.9076 42.041 76.2383 41.7676V53.1699C76.2383 54.0085 76.4525 54.5143 76.8809 54.6875C77.3001 54.8607 77.8789 54.9473 78.6172 54.9473V55.7266ZM86.8613 55.7266H80.0664V54.9473C80.668 54.9473 81.1784 54.888 81.5977 54.7695C82.2357 54.6328 82.5547 54.1042 82.5547 53.1836V38.5547C82.5547 37.707 82.3405 37.1966 81.9121 37.0234C81.6296 36.9049 81.0234 36.8457 80.0938 36.8457V35.9844C81.5977 35.957 83.0332 35.8158 84.4004 35.5605V53.1836C84.4004 54.0312 84.651 54.5508 85.1523 54.7422C85.5169 54.8789 86.0866 54.9473 86.8613 54.9473V55.7266ZM100.273 42.3418H102.393V39.3066H97.2383L96.9922 38.6094H102.393V35.8887C101.171 36.0345 99.5944 36.1758 97.6621 36.3125L97.4707 35.6152C101.645 35.1413 104.799 34.4577 106.932 33.5645C108.035 34.248 108.586 34.7357 108.586 35.0273C108.586 35.1914 108.417 35.2734 108.08 35.2734C107.825 35.2734 107.524 35.237 107.178 35.1641C106.202 35.3646 105.132 35.5423 103.965 35.6973V38.6094H106.877L108.053 36.9824C108.7 37.6296 109.224 38.2266 109.625 38.7734L109.311 39.3066H103.965V42.3418H106.084L107.041 41.2207C108.107 42.0319 108.641 42.5514 108.641 42.7793C108.641 42.8796 108.568 42.9753 108.422 43.0664L107.807 43.4629V48.5488H106.316V47.4551H100.055V48.9727H98.5371V41.5488C99.2389 41.8314 99.8177 42.0957 100.273 42.3418ZM100.055 43.0391V46.7578H106.316V43.0391H100.055ZM112.551 36.6543H114.232C114.469 35.5605 114.647 34.3392 114.766 32.9902C116.543 33.3001 117.432 33.6328 117.432 33.9883C117.432 34.2161 117.053 34.4121 116.297 34.5762C116.051 35.1504 115.65 35.8431 115.094 36.6543H118.566L119.605 35.3691C120.708 36.1895 121.26 36.7363 121.26 37.0098C121.26 37.1465 121.187 37.2604 121.041 37.3516L120.426 37.7754V48.9727H118.826V47.4551H112.223V48.9727H110.65V35.8477C111.726 36.2852 112.359 36.554 112.551 36.6543ZM112.223 37.3516V39.8125H118.826V37.3516H112.223ZM118.826 46.7578V43.8184H112.223V46.7578H118.826ZM118.826 43.1211V40.5098H112.223V43.1211H118.826ZM108.695 48.6035C111.548 49.6973 112.975 50.9095 112.975 52.2402C112.975 52.9329 112.665 53.2793 112.045 53.2793C111.644 53.2793 111.348 53.0104 111.156 52.4727C110.673 51.2878 109.73 50.1576 108.326 49.082L108.695 48.6035ZM100.93 50.5449L101.613 50.7637C101.549 52.7871 101.08 54.4505 100.205 55.7539C99.5579 56.6836 98.9154 57.1484 98.2773 57.1484C97.5299 57.1484 97.1562 56.793 97.1562 56.082C97.1562 55.7266 97.3431 55.4486 97.7168 55.248C99.3574 54.3822 100.428 52.8145 100.93 50.5449ZM116.748 49.8613C118.471 50.5996 119.92 51.5247 121.096 52.6367C121.861 53.4023 122.244 54.1315 122.244 54.8242C122.244 55.6263 121.898 56.0273 121.205 56.0273C120.786 56.0273 120.449 55.6901 120.193 55.0156C119.546 53.4023 118.27 51.862 116.365 50.3945L116.748 49.8613ZM116.01 52.418C116.01 53.8854 116.083 54.8288 116.229 55.248C116.374 55.5853 116.675 55.7539 117.131 55.7539C117.04 56.6289 116.589 57.153 115.777 57.3262C115.03 57.4902 113.07 57.5723 109.898 57.5723C106.982 57.5723 105.323 57.4219 104.922 57.1211C104.548 56.8385 104.361 56.2962 104.361 55.4941V49.6699C106.212 49.7246 107.137 49.9661 107.137 50.3945C107.137 50.6406 106.745 50.8776 105.961 51.1055V55.0703C105.988 55.526 106.134 55.7995 106.398 55.8906C106.763 56 107.911 56.0547 109.844 56.0547C111.885 56.0547 113.202 56.0091 113.795 55.918C114.296 55.8359 114.633 55.526 114.807 54.9883C115.035 54.2318 115.203 53.2975 115.312 52.1855L116.01 52.418Z" fill="#80C4CE"/>
<path d="M2.13074 21.012C1.50008 21.012 1.01608 20.8287 0.678742 20.462C0.341409 20.0953 0.172742 19.5527 0.172742 18.834C0.172742 18.1887 0.290076 17.3967 0.524742 16.458C0.774076 15.5047 1.08208 14.5293 1.44874 13.532C1.30208 13.5027 1.16274 13.4807 1.03074 13.466C0.898742 13.4367 0.774076 13.4 0.656742 13.356V12.96C0.774076 12.9747 0.913409 12.9893 1.07474 13.004C1.23608 13.0187 1.41941 13.0333 1.62474 13.048C1.93274 12.256 2.26274 11.4933 2.61474 10.76C2.96674 10.012 3.31141 9.352 3.64874 8.78C4.00074 8.19333 4.33074 7.73133 4.63874 7.394C4.96141 7.042 5.23274 6.866 5.45274 6.866C5.57008 6.866 5.67274 6.91 5.76074 6.998C5.86341 7.07133 5.91474 7.18867 5.91474 7.35C5.91474 7.59933 5.76074 8.01 5.45274 8.582C5.14474 9.13933 4.76341 9.80667 4.30874 10.584C3.85408 11.3613 3.41408 12.2047 2.98874 13.114C3.12074 13.114 3.25274 13.114 3.38474 13.114C3.53141 13.114 3.67074 13.114 3.80274 13.114C4.28674 13.114 4.79274 13.1067 5.32074 13.092C5.86341 13.0773 6.40608 13.0407 6.94874 12.982V13.378C6.14208 13.466 5.41608 13.532 4.77074 13.576C4.14008 13.62 3.57541 13.642 3.07674 13.642C3.01808 13.642 2.95941 13.642 2.90074 13.642C2.85674 13.642 2.80541 13.642 2.74674 13.642C2.40941 14.4193 2.12341 15.2187 1.88874 16.04C1.65408 16.8613 1.53674 17.6607 1.53674 18.438C1.53674 19.0687 1.63208 19.5233 1.82274 19.802C2.01341 20.066 2.32874 20.198 2.76874 20.198C3.53141 20.198 4.27941 19.8607 5.01274 19.186C5.74608 18.5113 6.39141 17.5947 6.94874 16.436L7.23474 16.656C6.88274 17.4773 6.43541 18.218 5.89274 18.878C5.36474 19.538 4.77808 20.0587 4.13274 20.44C3.48741 20.8213 2.82008 21.012 2.13074 21.012ZM8.05218 20.704C7.42151 20.704 6.97418 20.506 6.71018 20.11C6.44618 19.7287 6.31418 19.2593 6.31418 18.702C6.31418 18.2473 6.38751 17.778 6.53418 17.294C6.68085 16.81 6.87151 16.3553 7.10618 15.93C7.35551 15.5047 7.62685 15.16 7.92018 14.896C8.22818 14.632 8.53618 14.5 8.84418 14.5C8.91751 14.5 8.99085 14.5147 9.06418 14.544C9.15218 14.5587 9.23285 14.5807 9.30618 14.61C9.17418 14.7273 9.01285 14.9473 8.82218 15.27C8.64618 15.578 8.47751 15.9373 8.31618 16.348C8.15485 16.744 8.01551 17.14 7.89818 17.536C7.79551 17.932 7.74418 18.2693 7.74418 18.548C7.74418 18.988 7.81751 19.3107 7.96418 19.516C8.11085 19.7067 8.30151 19.802 8.53618 19.802C8.84418 19.802 9.21085 19.6407 9.63618 19.318C10.0615 18.9807 10.4795 18.5553 10.8902 18.042C10.4795 17.7047 10.1568 17.2647 9.92218 16.722C9.70218 16.1647 9.59218 15.6 9.59218 15.028C9.59218 14.544 9.67285 14.0893 9.83418 13.664C10.0102 13.2387 10.2595 12.9013 10.5822 12.652C10.9048 12.388 11.2935 12.256 11.7482 12.256C12.3495 12.256 12.7528 12.4173 12.9582 12.74C13.1635 13.0627 13.2662 13.466 13.2662 13.95C13.2662 14.522 13.1268 15.16 12.8482 15.864C12.5695 16.5533 12.2175 17.2207 11.7922 17.866C12.0562 18.0127 12.3348 18.086 12.6282 18.086C12.8628 18.086 13.1268 18.042 13.4202 17.954C13.7135 17.8513 13.9995 17.6827 14.2782 17.448C14.5715 17.2133 14.8062 16.898 14.9822 16.502L15.2462 16.722C14.9528 17.4113 14.5348 17.9027 13.9922 18.196C13.4642 18.4747 12.9582 18.614 12.4742 18.614C12.2835 18.614 12.1002 18.5993 11.9242 18.57C11.7482 18.526 11.5795 18.4673 11.4182 18.394C10.9195 19.054 10.3695 19.604 9.76818 20.044C9.18151 20.484 8.60951 20.704 8.05218 20.704ZM11.2862 17.47C11.6528 16.9273 11.9535 16.3627 12.1882 15.776C12.4375 15.1747 12.5622 14.61 12.5622 14.082C12.5622 13.6567 12.4962 13.3487 12.3642 13.158C12.2468 12.9527 12.0928 12.85 11.9022 12.85C11.6088 12.85 11.3082 13.0627 11.0002 13.488C10.6922 13.9133 10.5382 14.4487 10.5382 15.094C10.5382 15.5193 10.5968 15.952 10.7142 16.392C10.8462 16.8173 11.0368 17.1767 11.2862 17.47ZM16.4393 21.012C15.8087 21.012 15.3247 20.8287 14.9873 20.462C14.65 20.0953 14.4813 19.5527 14.4813 18.834C14.4813 18.1887 14.5987 17.3967 14.8333 16.458C15.0827 15.5047 15.3907 14.5293 15.7573 13.532C15.6107 13.5027 15.4713 13.4807 15.3393 13.466C15.2073 13.4367 15.0827 13.4 14.9653 13.356V12.96C15.0827 12.9747 15.222 12.9893 15.3833 13.004C15.5447 13.0187 15.728 13.0333 15.9333 13.048C16.2413 12.256 16.5713 11.4933 16.9233 10.76C17.2753 10.012 17.62 9.352 17.9573 8.78C18.3093 8.19333 18.6393 7.73133 18.9473 7.394C19.27 7.042 19.5413 6.866 19.7613 6.866C19.8787 6.866 19.9813 6.91 20.0693 6.998C20.172 7.07133 20.2233 7.18867 20.2233 7.35C20.2233 7.59933 20.0693 8.01 19.7613 8.582C19.4533 9.13933 19.072 9.80667 18.6173 10.584C18.1627 11.3613 17.7227 12.2047 17.2973 13.114C17.4293 13.114 17.5613 13.114 17.6933 13.114C17.84 13.114 17.9793 13.114 18.1113 13.114C18.5953 13.114 19.1013 13.1067 19.6293 13.092C20.172 13.0773 20.7147 13.0407 21.2573 12.982V13.378C20.4507 13.466 19.7247 13.532 19.0793 13.576C18.4487 13.62 17.884 13.642 17.3853 13.642C17.3267 13.642 17.268 13.642 17.2093 13.642C17.1653 13.642 17.114 13.642 17.0553 13.642C16.718 14.4193 16.432 15.2187 16.1973 16.04C15.9627 16.8613 15.8453 17.6607 15.8453 18.438C15.8453 19.0687 15.9407 19.5233 16.1313 19.802C16.322 20.066 16.6373 20.198 17.0773 20.198C17.84 20.198 18.588 19.8607 19.3213 19.186C20.0547 18.5113 20.7 17.5947 21.2573 16.436L21.5433 16.656C21.1913 17.4773 20.744 18.218 20.2013 18.878C19.6733 19.538 19.0867 20.0587 18.4413 20.44C17.796 20.8213 17.1287 21.012 16.4393 21.012ZM21.8988 21.034C21.4441 21.034 21.0628 20.88 20.7548 20.572C20.4321 20.2787 20.2708 19.824 20.2708 19.208C20.2708 18.68 20.3881 18.1153 20.6228 17.514C20.8574 16.898 21.1801 16.2967 21.5908 15.71C22.0014 15.1087 22.4634 14.566 22.9768 14.082C23.5048 13.5833 24.0548 13.1873 24.6268 12.894C25.2134 12.6007 25.7928 12.454 26.3648 12.454C26.9368 12.454 27.4134 12.608 27.7948 12.916C28.1761 13.2093 28.3668 13.6053 28.3668 14.104C28.3668 14.4707 28.2641 14.72 28.0588 14.852C27.8681 14.984 27.6114 15.05 27.2888 15.05C27.3181 14.9327 27.3401 14.808 27.3548 14.676C27.3841 14.5293 27.3988 14.3973 27.3988 14.28C27.3988 13.9427 27.3181 13.6567 27.1568 13.422C26.9954 13.1727 26.7168 13.048 26.3208 13.048C25.9101 13.048 25.4921 13.1947 25.0668 13.488C24.6414 13.7667 24.2308 14.148 23.8348 14.632C23.4388 15.1013 23.0868 15.6147 22.7788 16.172C22.4708 16.7293 22.2288 17.2793 22.0528 17.822C21.8768 18.3647 21.7888 18.8487 21.7888 19.274C21.7888 19.846 21.9868 20.132 22.3828 20.132C22.7201 20.132 23.0868 19.978 23.4828 19.67C23.8788 19.3473 24.2821 18.944 24.6928 18.46C25.1181 17.9613 25.5214 17.448 25.9028 16.92C26.2841 16.392 26.6214 15.908 26.9148 15.468C26.9734 15.38 27.0101 15.336 27.0248 15.336C27.1128 15.3507 27.2228 15.38 27.3548 15.424C27.5014 15.468 27.6261 15.5267 27.7288 15.6C27.8314 15.6733 27.8828 15.7687 27.8828 15.886C27.8828 16.018 27.8168 16.2013 27.6848 16.436C27.5528 16.656 27.4061 16.9127 27.2448 17.206C27.0834 17.4993 26.9368 17.8 26.8048 18.108C26.6728 18.4013 26.6068 18.68 26.6068 18.944C26.6068 19.164 26.6654 19.384 26.7828 19.604C26.9001 19.8093 27.0908 19.912 27.3548 19.912C27.7508 19.912 28.2714 19.626 28.9168 19.054C29.5621 18.4673 30.2148 17.5947 30.8748 16.436L31.0948 16.656C30.7868 17.448 30.3908 18.1447 29.9068 18.746C29.4228 19.3473 28.9021 19.8167 28.3448 20.154C27.8021 20.4913 27.2668 20.66 26.7388 20.66C26.1961 20.66 25.7928 20.4987 25.5288 20.176C25.2794 19.8533 25.1548 19.5013 25.1548 19.12C25.1548 19.032 25.1621 18.9367 25.1768 18.834C25.1914 18.7167 25.2061 18.5993 25.2208 18.482C24.5901 19.3327 24.0108 19.9707 23.4828 20.396C22.9694 20.8213 22.4414 21.034 21.8988 21.034ZM32.2508 20.66C31.6201 20.66 31.1655 20.44 30.8868 20C30.6228 19.5747 30.4908 19.0393 30.4908 18.394C30.4908 17.69 30.6228 16.854 30.8868 15.886C31.1508 14.918 31.4955 13.8987 31.9208 12.828C32.3608 11.7573 32.8375 10.716 33.3508 9.704C33.8641 8.67733 34.3775 7.746 34.8908 6.91C35.4041 6.074 35.8735 5.40667 36.2988 4.908C36.7388 4.40933 37.0835 4.16 37.3328 4.16C37.4941 4.16 37.6261 4.25533 37.7288 4.446C37.8315 4.622 37.9121 4.842 37.9708 5.106C38.0295 5.35533 38.0588 5.58267 38.0588 5.788C38.0588 6.184 37.9561 6.70467 37.7508 7.35C37.5601 7.98067 37.2815 8.692 36.9148 9.484C36.5628 10.2613 36.1375 11.0533 35.6388 11.86C35.1548 12.652 34.6195 13.4147 34.0328 14.148C33.4608 14.8813 32.8521 15.512 32.2068 16.04C32.1188 16.436 32.0455 16.8247 31.9868 17.206C31.9428 17.5727 31.9208 17.9247 31.9208 18.262C31.9208 18.834 32.0015 19.2593 32.1628 19.538C32.3241 19.8167 32.5661 19.956 32.8888 19.956C33.2848 19.956 33.6735 19.78 34.0548 19.428C34.4508 19.076 34.8175 18.636 35.1548 18.108C35.5068 17.5653 35.8075 17.008 36.0568 16.436L36.3868 16.612C35.8001 17.8587 35.1621 18.8487 34.4728 19.582C33.7835 20.3007 33.0428 20.66 32.2508 20.66ZM32.4048 15.292C32.9181 14.7787 33.4168 14.192 33.9008 13.532C34.3848 12.8573 34.8321 12.1607 35.2428 11.442C35.6681 10.7233 36.0421 10.0267 36.3648 9.352C36.6875 8.67733 36.9368 8.076 37.1128 7.548C37.2888 7.00533 37.3768 6.58733 37.3768 6.294C37.3768 6.14733 37.3548 6.052 37.3108 6.008C37.2815 5.964 37.2521 5.942 37.2228 5.942C37.1055 5.942 36.9001 6.13267 36.6068 6.514C36.3281 6.88067 35.9981 7.37933 35.6168 8.01C35.2355 8.64067 34.8468 9.35933 34.4508 10.166C34.0548 10.9727 33.6735 11.816 33.3068 12.696C32.9548 13.576 32.6541 14.4413 32.4048 15.292ZM43.3849 21.606C42.6222 21.606 42.0502 21.3567 41.6689 20.858C41.3022 20.3593 41.1189 19.6847 41.1189 18.834C41.1189 18.1007 41.2435 17.2353 41.4929 16.238C41.7422 15.2407 42.0722 14.1993 42.4829 13.114C42.8935 12.014 43.3482 10.9433 43.8469 9.902C44.3602 8.86067 44.8735 7.922 45.3869 7.086C45.9002 6.23533 46.3842 5.56067 46.8389 5.062C47.2935 4.54867 47.6675 4.292 47.9609 4.292C48.2102 4.292 48.3862 4.446 48.4889 4.754C48.6062 5.062 48.6649 5.37 48.6649 5.678C48.6649 6.08867 48.5769 6.58733 48.4009 7.174C48.2249 7.76067 47.9755 8.39133 47.6529 9.066C47.3302 9.726 46.9562 10.3787 46.5309 11.024C46.1055 11.6693 45.6435 12.2633 45.1449 12.806C44.6609 13.334 44.1622 13.752 43.6489 14.06C43.5609 14.2213 43.4289 14.5587 43.2529 15.072C43.0915 15.5707 42.9375 16.15 42.7909 16.81C42.6589 17.4553 42.5929 18.086 42.5929 18.702C42.5929 19.3033 42.6809 19.7947 42.8569 20.176C43.0475 20.572 43.3629 20.77 43.8029 20.77C44.2282 20.77 44.6682 20.594 45.1229 20.242C45.5775 19.9047 45.9442 19.4647 46.2229 18.922C45.6802 18.6433 45.2769 18.24 45.0129 17.712C44.7489 17.1693 44.6169 16.6267 44.6169 16.084C44.6169 15.38 44.8002 14.8153 45.1669 14.39C45.5335 13.9647 45.9662 13.752 46.4649 13.752C46.8902 13.752 47.2275 13.928 47.4769 14.28C47.7262 14.6173 47.8509 15.116 47.8509 15.776C47.8509 16.26 47.7849 16.7587 47.6529 17.272C47.5209 17.7853 47.3302 18.284 47.0809 18.768C47.1689 18.7827 47.2569 18.7973 47.3449 18.812C47.4475 18.8267 47.5502 18.834 47.6529 18.834C48.1809 18.834 48.6209 18.7093 48.9729 18.46C49.3249 18.196 49.6182 17.8807 49.8529 17.514C50.1022 17.1327 50.3075 16.7733 50.4689 16.436L50.7329 16.722C50.3222 17.734 49.8309 18.4087 49.2589 18.746C48.7015 19.0687 48.1442 19.23 47.5869 19.23C47.4695 19.23 47.3522 19.2227 47.2349 19.208C47.1175 19.1933 47.0002 19.1787 46.8829 19.164C46.4869 19.8387 45.9955 20.4107 45.4089 20.88C44.8369 21.364 44.1622 21.606 43.3849 21.606ZM46.4429 18.482C46.6042 18.1447 46.7289 17.7927 46.8169 17.426C46.9049 17.0447 46.9489 16.656 46.9489 16.26C46.9489 15.7467 46.8755 15.3433 46.7289 15.05C46.5969 14.7567 46.4282 14.61 46.2229 14.61C46.0029 14.61 45.8049 14.764 45.6289 15.072C45.4675 15.3653 45.3869 15.7393 45.3869 16.194C45.3869 16.59 45.4675 17.008 45.6289 17.448C45.7902 17.888 46.0615 18.2327 46.4429 18.482ZM43.8909 13.202C44.3015 12.8793 44.6975 12.4687 45.0789 11.97C45.4749 11.4713 45.8415 10.9433 46.1789 10.386C46.5162 9.814 46.8169 9.25667 47.0809 8.714C47.3449 8.17133 47.5502 7.68 47.6969 7.24C47.8435 6.8 47.9169 6.47 47.9169 6.25C47.9169 6.17667 47.9095 6.13267 47.8949 6.118C47.8802 6.08867 47.8582 6.074 47.8289 6.074C47.7115 6.074 47.4842 6.28667 47.1469 6.712C46.8242 7.12267 46.4575 7.68 46.0469 8.384C45.6509 9.07333 45.2549 9.84333 44.8589 10.694C44.4629 11.53 44.1402 12.366 43.8909 13.202ZM52.3731 20.968C51.4784 20.968 50.8037 20.7187 50.3491 20.22C49.9091 19.736 49.6891 19.1347 49.6891 18.416C49.6891 17.756 49.8504 17.0593 50.1731 16.326C50.5104 15.5927 50.9504 14.9033 51.4931 14.258C52.0504 13.6127 52.6591 13.092 53.3191 12.696C53.9791 12.2853 54.6317 12.08 55.2771 12.08C55.6144 12.08 55.9224 12.168 56.2011 12.344C56.4944 12.52 56.6411 12.8793 56.6411 13.422C56.6411 13.9793 56.4724 14.5073 56.1351 15.006C55.8124 15.49 55.3797 15.9227 54.8371 16.304C54.3091 16.6853 53.7224 17.0007 53.0771 17.25C52.4464 17.4847 51.8157 17.6313 51.1851 17.69C51.1557 17.8367 51.1337 17.976 51.1191 18.108C51.1044 18.24 51.0971 18.3647 51.0971 18.482C51.0971 18.702 51.1191 18.922 51.1631 19.142C51.2217 19.362 51.3171 19.5673 51.4491 19.758C51.5811 19.934 51.7571 20.0733 51.9771 20.176C52.2117 20.2787 52.4977 20.33 52.8351 20.33C53.4657 20.33 54.0891 20.154 54.7051 19.802C55.3211 19.4353 55.8931 18.9587 56.4211 18.372C56.9491 17.7853 57.3964 17.14 57.7631 16.436L58.0271 16.634C57.6311 17.514 57.1251 18.2767 56.5091 18.922C55.9077 19.5673 55.2477 20.066 54.5291 20.418C53.8251 20.7847 53.1064 20.968 52.3731 20.968ZM51.2951 17.272C51.6911 17.14 52.1384 16.9493 52.6371 16.7C53.1357 16.436 53.6124 16.128 54.0671 15.776C54.5364 15.424 54.9177 15.0353 55.2111 14.61C55.5191 14.1847 55.6731 13.7373 55.6731 13.268C55.6731 13.1067 55.6437 12.982 55.5851 12.894C55.5264 12.806 55.4017 12.762 55.2111 12.762C54.8591 12.762 54.4851 12.9013 54.0891 13.18C53.6931 13.444 53.3117 13.796 52.9451 14.236C52.5784 14.676 52.2484 15.16 51.9551 15.688C51.6617 16.216 51.4417 16.744 51.2951 17.272ZM58.3792 21.034C57.9246 21.034 57.5432 20.88 57.2352 20.572C56.9126 20.2787 56.7512 19.824 56.7512 19.208C56.7512 18.68 56.8686 18.1153 57.1032 17.514C57.3379 16.898 57.6606 16.2967 58.0712 15.71C58.4819 15.1087 58.9439 14.566 59.4572 14.082C59.9852 13.5833 60.5352 13.1873 61.1072 12.894C61.6939 12.6007 62.2732 12.454 62.8452 12.454C63.4172 12.454 63.8939 12.608 64.2752 12.916C64.6566 13.2093 64.8472 13.6053 64.8472 14.104C64.8472 14.4707 64.7446 14.72 64.5392 14.852C64.3486 14.984 64.0919 15.05 63.7692 15.05C63.7986 14.9327 63.8206 14.808 63.8352 14.676C63.8646 14.5293 63.8792 14.3973 63.8792 14.28C63.8792 13.9427 63.7986 13.6567 63.6372 13.422C63.4759 13.1727 63.1972 13.048 62.8012 13.048C62.3906 13.048 61.9726 13.1947 61.5472 13.488C61.1219 13.7667 60.7112 14.148 60.3152 14.632C59.9192 15.1013 59.5672 15.6147 59.2592 16.172C58.9512 16.7293 58.7092 17.2793 58.5332 17.822C58.3572 18.3647 58.2692 18.8487 58.2692 19.274C58.2692 19.846 58.4672 20.132 58.8632 20.132C59.2006 20.132 59.5672 19.978 59.9632 19.67C60.3592 19.3473 60.7626 18.944 61.1732 18.46C61.5986 17.9613 62.0019 17.448 62.3832 16.92C62.7646 16.392 63.1019 15.908 63.3952 15.468C63.4539 15.38 63.4906 15.336 63.5052 15.336C63.5932 15.3507 63.7032 15.38 63.8352 15.424C63.9819 15.468 64.1066 15.5267 64.2092 15.6C64.3119 15.6733 64.3632 15.7687 64.3632 15.886C64.3632 16.018 64.2972 16.2013 64.1652 16.436C64.0332 16.656 63.8866 16.9127 63.7252 17.206C63.5639 17.4993 63.4172 17.8 63.2852 18.108C63.1532 18.4013 63.0872 18.68 63.0872 18.944C63.0872 19.164 63.1459 19.384 63.2632 19.604C63.3806 19.8093 63.5712 19.912 63.8352 19.912C64.2312 19.912 64.7519 19.626 65.3972 19.054C66.0426 18.4673 66.6952 17.5947 67.3552 16.436L67.5752 16.656C67.2672 17.448 66.8712 18.1447 66.3872 18.746C65.9032 19.3473 65.3826 19.8167 64.8252 20.154C64.2826 20.4913 63.7472 20.66 63.2192 20.66C62.6766 20.66 62.2732 20.4987 62.0092 20.176C61.7599 19.8533 61.6352 19.5013 61.6352 19.12C61.6352 19.032 61.6426 18.9367 61.6572 18.834C61.6719 18.7167 61.6866 18.5993 61.7012 18.482C61.0706 19.3327 60.4912 19.9707 59.9632 20.396C59.4499 20.8213 58.9219 21.034 58.3792 21.034ZM68.5553 20.66C68.0566 20.66 67.6533 20.44 67.3453 20C67.0519 19.5453 66.9053 19.0247 66.9053 18.438C66.9053 18.0127 66.9713 17.5213 67.1033 16.964C67.2499 16.4067 67.4259 15.8567 67.6313 15.314C67.8366 14.7713 68.0493 14.324 68.2693 13.972C68.4893 13.62 68.6799 13.444 68.8413 13.444C68.9146 13.444 69.0393 13.488 69.2153 13.576C69.3913 13.6493 69.5379 13.752 69.6553 13.884C69.4939 14.1333 69.2959 14.5147 69.0613 15.028C68.8266 15.5413 68.6213 16.0913 68.4453 16.678C68.2693 17.2647 68.1813 17.8073 68.1813 18.306C68.1813 18.4233 68.1959 18.6067 68.2253 18.856C68.2546 19.0907 68.3279 19.3033 68.4453 19.494C68.5626 19.6847 68.7386 19.78 68.9733 19.78C69.2519 19.78 69.5379 19.6407 69.8313 19.362C70.1246 19.0687 70.4179 18.6947 70.7113 18.24C71.0193 17.7853 71.3126 17.294 71.5913 16.766C71.8699 16.238 72.1266 15.732 72.3613 15.248C72.6106 14.764 72.8159 14.3607 72.9773 14.038C73.0653 14.0527 73.1899 14.082 73.3513 14.126C73.5273 14.17 73.6813 14.2287 73.8133 14.302C73.9599 14.3753 74.0333 14.478 74.0333 14.61C74.0333 14.6687 73.9599 14.8667 73.8133 15.204C73.6666 15.5267 73.4906 15.93 73.2853 16.414C73.0946 16.8833 72.9259 17.36 72.7793 17.844C72.6326 18.328 72.5593 18.7533 72.5593 19.12C72.5593 19.384 72.6106 19.5967 72.7133 19.758C72.8306 19.9193 73.0213 20 73.2853 20C73.5933 20 73.9673 19.8607 74.4073 19.582C74.8473 19.3033 75.2946 18.9 75.7493 18.372C76.2039 17.8293 76.6073 17.184 76.9593 16.436L77.2453 16.634C76.9373 17.426 76.5339 18.13 76.0353 18.746C75.5366 19.3473 75.0086 19.8167 74.4513 20.154C73.8939 20.4913 73.3513 20.66 72.8233 20.66C72.4419 20.66 72.1339 20.5867 71.8993 20.44C71.6793 20.2933 71.5179 20.0953 71.4153 19.846C71.3273 19.5967 71.2833 19.3253 71.2833 19.032C71.2833 18.856 71.2979 18.68 71.3273 18.504C71.3566 18.3133 71.3933 18.1227 71.4373 17.932C71.1733 18.416 70.8873 18.8707 70.5793 19.296C70.2713 19.7067 69.9486 20.0367 69.6113 20.286C69.2739 20.5353 68.9219 20.66 68.5553 20.66ZM78.4218 21.012C77.7911 21.012 77.3071 20.8287 76.9698 20.462C76.6324 20.0953 76.4638 19.5527 76.4638 18.834C76.4638 18.1887 76.5811 17.3967 76.8158 16.458C77.0651 15.5047 77.3731 14.5293 77.7398 13.532C77.5931 13.5027 77.4538 13.4807 77.3218 13.466C77.1898 13.4367 77.0651 13.4 76.9478 13.356V12.96C77.0651 12.9747 77.2044 12.9893 77.3658 13.004C77.5271 13.0187 77.7104 13.0333 77.9158 13.048C78.2238 12.256 78.5538 11.4933 78.9058 10.76C79.2578 10.012 79.6024 9.352 79.9398 8.78C80.2918 8.19333 80.6218 7.73133 80.9298 7.394C81.2524 7.042 81.5238 6.866 81.7438 6.866C81.8611 6.866 81.9638 6.91 82.0518 6.998C82.1544 7.07133 82.2058 7.18867 82.2058 7.35C82.2058 7.59933 82.0518 8.01 81.7438 8.582C81.4358 9.13933 81.0544 9.80667 80.5998 10.584C80.1451 11.3613 79.7051 12.2047 79.2798 13.114C79.4118 13.114 79.5438 13.114 79.6758 13.114C79.8224 13.114 79.9618 13.114 80.0938 13.114C80.5778 13.114 81.0838 13.1067 81.6118 13.092C82.1544 13.0773 82.6971 13.0407 83.2398 12.982V13.378C82.4331 13.466 81.7071 13.532 81.0618 13.576C80.4311 13.62 79.8664 13.642 79.3678 13.642C79.3091 13.642 79.2504 13.642 79.1918 13.642C79.1478 13.642 79.0964 13.642 79.0378 13.642C78.7004 14.4193 78.4144 15.2187 78.1798 16.04C77.9451 16.8613 77.8278 17.6607 77.8278 18.438C77.8278 19.0687 77.9231 19.5233 78.1138 19.802C78.3044 20.066 78.6198 20.198 79.0598 20.198C79.8224 20.198 80.5704 19.8607 81.3038 19.186C82.0371 18.5113 82.6824 17.5947 83.2398 16.436L83.5258 16.656C83.1738 17.4773 82.7264 18.218 82.1838 18.878C81.6558 19.538 81.0691 20.0587 80.4238 20.44C79.7784 20.8213 79.1111 21.012 78.4218 21.012ZM83.7712 26.16C83.4045 26.16 83.0819 26.0573 82.8032 25.852C82.5245 25.6613 82.3852 25.3753 82.3852 24.994C82.3852 24.5247 82.5025 24.1067 82.7372 23.74C82.9719 23.3733 83.2872 23.036 83.6832 22.728C84.0792 22.42 84.5339 22.1267 85.0472 21.848C85.5605 21.5693 86.0959 21.2907 86.6532 21.012C86.8585 20.4693 87.0639 19.868 87.2692 19.208C87.4892 18.5333 87.6945 17.7927 87.8852 16.986C87.4159 17.7487 86.9099 18.4087 86.3672 18.966C85.8392 19.5087 85.2745 19.78 84.6732 19.78C84.3945 19.78 84.1159 19.7213 83.8372 19.604C83.5732 19.472 83.3532 19.274 83.1772 19.01C83.0012 18.746 82.9132 18.4087 82.9132 17.998C82.9132 17.5873 82.9792 17.1107 83.1112 16.568C83.2579 16.0253 83.4339 15.4973 83.6392 14.984C83.8445 14.4707 84.0572 14.0453 84.2772 13.708C84.4972 13.3707 84.6879 13.202 84.8492 13.202C84.9079 13.202 85.0105 13.224 85.1572 13.268C85.3185 13.312 85.4652 13.378 85.5972 13.466C85.7439 13.5393 85.8172 13.62 85.8172 13.708C85.6852 13.8987 85.5385 14.17 85.3772 14.522C85.2159 14.874 85.0545 15.27 84.8932 15.71C84.7465 16.1353 84.6219 16.5533 84.5192 16.964C84.4165 17.3747 84.3652 17.7267 84.3652 18.02C84.3652 18.284 84.4239 18.4967 84.5412 18.658C84.6585 18.8193 84.8639 18.9 85.1572 18.9C85.4359 18.9 85.7439 18.768 86.0812 18.504C86.4332 18.2253 86.7779 17.8733 87.1152 17.448C87.4672 17.0227 87.7899 16.568 88.0832 16.084C88.1272 15.9227 88.1639 15.7613 88.1932 15.6C88.2372 15.424 88.2739 15.248 88.3032 15.072C88.3472 14.8667 88.4499 14.632 88.6112 14.368C88.7872 14.0893 89.0585 13.95 89.4252 13.95C89.4985 13.95 89.5719 13.9573 89.6452 13.972C89.7185 13.972 89.7992 13.9867 89.8872 14.016C89.8872 14.2507 89.8139 14.6907 89.6672 15.336C89.5352 15.9667 89.3372 16.7073 89.0732 17.558C88.8239 18.4087 88.5232 19.2813 88.1712 20.176C88.8605 19.912 89.5352 19.4793 90.1952 18.878C90.8552 18.262 91.3905 17.448 91.8012 16.436L92.0872 16.656C91.8672 17.36 91.5299 17.976 91.0752 18.504C90.6352 19.0173 90.1365 19.4647 89.5792 19.846C89.0219 20.2127 88.4719 20.5207 87.9292 20.77C87.5479 21.7087 87.1299 22.5887 86.6752 23.41C86.2352 24.2313 85.7659 24.8913 85.2672 25.39C84.7832 25.9033 84.2845 26.16 83.7712 26.16ZM83.6612 25.456C83.8812 25.456 84.2479 25.1627 84.7612 24.576C85.2892 24.004 85.8465 22.992 86.4332 21.54C85.8319 21.8627 85.2745 22.178 84.7612 22.486C84.2479 22.8087 83.8372 23.1533 83.5292 23.52C83.2212 23.8867 83.0672 24.312 83.0672 24.796C83.0672 24.9133 83.1112 25.0527 83.1992 25.214C83.2872 25.3753 83.4412 25.456 83.6612 25.456ZM99.4008 21.122C98.7115 21.122 98.1615 20.968 97.7508 20.66C97.3548 20.3667 97.0762 20 96.9148 19.56C96.7388 19.12 96.6508 18.68 96.6508 18.24C96.6508 17.8 96.7095 17.4627 96.8268 17.228C96.9442 16.9933 97.0835 16.8173 97.2448 16.7C97.4208 16.5827 97.5822 16.4947 97.7288 16.436C97.8902 16.3773 98.0002 16.3187 98.0588 16.26C98.4988 15.776 98.9022 15.27 99.2688 14.742C99.6355 14.214 99.9582 13.6567 100.237 13.07V12.806C100.237 12.2633 100.325 11.882 100.501 11.662C100.691 11.4273 100.889 11.31 101.095 11.31C101.212 11.31 101.3 11.3393 101.359 11.398C101.417 11.4567 101.447 11.5227 101.447 11.596C101.447 11.6693 101.425 11.7867 101.381 11.948C101.337 12.1093 101.315 12.3147 101.315 12.564C101.315 13.048 101.41 13.576 101.601 14.148C101.791 14.7053 101.982 15.2993 102.173 15.93C102.363 16.546 102.459 17.1913 102.459 17.866C102.459 18.0567 102.444 18.2473 102.415 18.438C102.4 18.614 102.371 18.7827 102.327 18.944C102.84 18.856 103.324 18.6287 103.779 18.262C104.233 17.8807 104.673 17.2793 105.099 16.458L105.297 16.678C105.018 17.4847 104.6 18.1007 104.043 18.526C103.485 18.9367 102.877 19.1933 102.217 19.296C101.982 19.9267 101.608 20.3887 101.095 20.682C100.596 20.9753 100.031 21.122 99.4008 21.122ZM99.4448 20.352C99.6208 20.352 99.8555 20.2933 100.149 20.176C100.442 20.0587 100.669 19.758 100.831 19.274C100.215 19.1567 99.6648 18.9147 99.1808 18.548C98.7115 18.1813 98.3595 17.8147 98.1248 17.448C97.8022 17.4627 97.6408 17.7193 97.6408 18.218C97.6408 18.746 97.7948 19.2373 98.1028 19.692C98.4255 20.132 98.8728 20.352 99.4448 20.352ZM100.941 18.922C100.97 18.7753 100.992 18.6213 101.007 18.46C101.021 18.2987 101.029 18.108 101.029 17.888C101.029 17.1987 100.941 16.5167 100.765 15.842C100.603 15.1527 100.464 14.5073 100.347 13.906C100.009 14.4633 99.6502 14.9987 99.2688 15.512C98.9022 16.0107 98.5502 16.4287 98.2128 16.766C98.4328 17.2353 98.7702 17.6753 99.2248 18.086C99.6942 18.4967 100.266 18.7753 100.941 18.922ZM105.731 21.034C105.276 21.034 104.895 20.88 104.587 20.572C104.264 20.2787 104.103 19.824 104.103 19.208C104.103 18.68 104.22 18.1153 104.455 17.514C104.689 16.898 105.012 16.2967 105.423 15.71C105.833 15.1087 106.295 14.566 106.809 14.082C107.337 13.5833 107.887 13.1873 108.459 12.894C109.045 12.6007 109.625 12.454 110.197 12.454C110.769 12.454 111.245 12.608 111.627 12.916C112.008 13.2093 112.199 13.6053 112.199 14.104C112.199 14.4707 112.096 14.72 111.891 14.852C111.7 14.984 111.443 15.05 111.121 15.05C111.15 14.9327 111.172 14.808 111.187 14.676C111.216 14.5293 111.231 14.3973 111.231 14.28C111.231 13.9427 111.15 13.6567 110.989 13.422C110.827 13.1727 110.549 13.048 110.153 13.048C109.742 13.048 109.324 13.1947 108.899 13.488C108.473 13.7667 108.063 14.148 107.667 14.632C107.271 15.1013 106.919 15.6147 106.611 16.172C106.303 16.7293 106.061 17.2793 105.885 17.822C105.709 18.3647 105.621 18.8487 105.621 19.274C105.621 19.846 105.819 20.132 106.215 20.132C106.552 20.132 106.919 19.978 107.315 19.67C107.711 19.3473 108.114 18.944 108.525 18.46C108.95 17.9613 109.353 17.448 109.735 16.92C110.116 16.392 110.453 15.908 110.747 15.468C110.805 15.38 110.842 15.336 110.857 15.336C110.945 15.3507 111.055 15.38 111.187 15.424C111.333 15.468 111.458 15.5267 111.561 15.6C111.663 15.6733 111.715 15.7687 111.715 15.886C111.715 16.018 111.649 16.2013 111.517 16.436C111.385 16.656 111.238 16.9127 111.077 17.206C110.915 17.4993 110.769 17.8 110.637 18.108C110.505 18.4013 110.439 18.68 110.439 18.944C110.439 19.164 110.497 19.384 110.615 19.604C110.732 19.8093 110.923 19.912 111.187 19.912C111.583 19.912 112.103 19.626 112.749 19.054C113.394 18.4673 114.047 17.5947 114.707 16.436L114.927 16.656C114.619 17.448 114.223 18.1447 113.739 18.746C113.255 19.3473 112.734 19.8167 112.177 20.154C111.634 20.4913 111.099 20.66 110.571 20.66C110.028 20.66 109.625 20.4987 109.361 20.176C109.111 19.8533 108.987 19.5013 108.987 19.12C108.987 19.032 108.994 18.9367 109.009 18.834C109.023 18.7167 109.038 18.5993 109.053 18.482C108.422 19.3327 107.843 19.9707 107.315 20.396C106.801 20.8213 106.273 21.034 105.731 21.034ZM116.083 20.66C115.452 20.66 114.998 20.44 114.719 20C114.455 19.5747 114.323 19.0393 114.323 18.394C114.323 17.69 114.455 16.854 114.719 15.886C114.983 14.918 115.328 13.8987 115.753 12.828C116.193 11.7573 116.67 10.716 117.183 9.704C117.696 8.67733 118.21 7.746 118.723 6.91C119.236 6.074 119.706 5.40667 120.131 4.908C120.571 4.40933 120.916 4.16 121.165 4.16C121.326 4.16 121.458 4.25533 121.561 4.446C121.664 4.622 121.744 4.842 121.803 5.106C121.862 5.35533 121.891 5.58267 121.891 5.788C121.891 6.184 121.788 6.70467 121.583 7.35C121.392 7.98067 121.114 8.692 120.747 9.484C120.395 10.2613 119.97 11.0533 119.471 11.86C118.987 12.652 118.452 13.4147 117.865 14.148C117.293 14.8813 116.684 15.512 116.039 16.04C115.951 16.436 115.878 16.8247 115.819 17.206C115.775 17.5727 115.753 17.9247 115.753 18.262C115.753 18.834 115.834 19.2593 115.995 19.538C116.156 19.8167 116.398 19.956 116.721 19.956C117.117 19.956 117.506 19.78 117.887 19.428C118.283 19.076 118.65 18.636 118.987 18.108C119.339 17.5653 119.64 17.008 119.889 16.436L120.219 16.612C119.632 17.8587 118.994 18.8487 118.305 19.582C117.616 20.3007 116.875 20.66 116.083 20.66ZM116.237 15.292C116.75 14.7787 117.249 14.192 117.733 13.532C118.217 12.8573 118.664 12.1607 119.075 11.442C119.5 10.7233 119.874 10.0267 120.197 9.352C120.52 8.67733 120.769 8.076 120.945 7.548C121.121 7.00533 121.209 6.58733 121.209 6.294C121.209 6.14733 121.187 6.052 121.143 6.008C121.114 5.964 121.084 5.942 121.055 5.942C120.938 5.942 120.732 6.13267 120.439 6.514C120.16 6.88067 119.83 7.37933 119.449 8.01C119.068 8.64067 118.679 9.35933 118.283 10.166C117.887 10.9727 117.506 11.816 117.139 12.696C116.787 13.576 116.486 14.4413 116.237 15.292ZM120.974 20.704C120.343 20.704 119.896 20.506 119.632 20.11C119.368 19.7287 119.236 19.2593 119.236 18.702C119.236 18.2473 119.309 17.778 119.456 17.294C119.603 16.81 119.793 16.3553 120.028 15.93C120.277 15.5047 120.549 15.16 120.842 14.896C121.15 14.632 121.458 14.5 121.766 14.5C121.839 14.5 121.913 14.5147 121.986 14.544C122.074 14.5587 122.155 14.5807 122.228 14.61C122.096 14.7273 121.935 14.9473 121.744 15.27C121.568 15.578 121.399 15.9373 121.238 16.348C121.077 16.744 120.937 17.14 120.82 17.536C120.717 17.932 120.666 18.2693 120.666 18.548C120.666 18.988 120.739 19.3107 120.886 19.516C121.033 19.7067 121.223 19.802 121.458 19.802C121.766 19.802 122.133 19.6407 122.558 19.318C122.983 18.9807 123.401 18.5553 123.812 18.042C123.401 17.7047 123.079 17.2647 122.844 16.722C122.624 16.1647 122.514 15.6 122.514 15.028C122.514 14.544 122.595 14.0893 122.756 13.664C122.932 13.2387 123.181 12.9013 123.504 12.652C123.827 12.388 124.215 12.256 124.67 12.256C125.271 12.256 125.675 12.4173 125.88 12.74C126.085 13.0627 126.188 13.466 126.188 13.95C126.188 14.522 126.049 15.16 125.77 15.864C125.491 16.5533 125.139 17.2207 124.714 17.866C124.978 18.0127 125.257 18.086 125.55 18.086C125.785 18.086 126.049 18.042 126.342 17.954C126.635 17.8513 126.921 17.6827 127.2 17.448C127.493 17.2133 127.728 16.898 127.904 16.502L128.168 16.722C127.875 17.4113 127.457 17.9027 126.914 18.196C126.386 18.4747 125.88 18.614 125.396 18.614C125.205 18.614 125.022 18.5993 124.846 18.57C124.67 18.526 124.501 18.4673 124.34 18.394C123.841 19.054 123.291 19.604 122.69 20.044C122.103 20.484 121.531 20.704 120.974 20.704ZM124.208 17.47C124.575 16.9273 124.875 16.3627 125.11 15.776C125.359 15.1747 125.484 14.61 125.484 14.082C125.484 13.6567 125.418 13.3487 125.286 13.158C125.169 12.9527 125.015 12.85 124.824 12.85C124.531 12.85 124.23 13.0627 123.922 13.488C123.614 13.9133 123.46 14.4487 123.46 15.094C123.46 15.5193 123.519 15.952 123.636 16.392C123.768 16.8173 123.959 17.1767 124.208 17.47ZM134.597 20.44C134.084 20.44 133.695 20.308 133.431 20.044C133.182 19.78 133.057 19.4427 133.057 19.032C133.057 18.724 133.109 18.4013 133.211 18.064C133.329 17.7267 133.439 17.382 133.541 17.03C133.644 16.6633 133.695 16.3113 133.695 15.974C133.695 15.5633 133.607 15.2847 133.431 15.138C133.27 14.9767 133.065 14.896 132.815 14.896C132.361 14.896 131.899 15.0867 131.429 15.468C130.96 15.8347 130.505 16.3113 130.065 16.898C129.625 17.47 129.215 18.064 128.833 18.68C128.452 19.296 128.115 19.846 127.821 20.33C127.587 20.33 127.367 20.286 127.161 20.198C126.941 20.1247 126.773 20.0073 126.655 19.846C126.655 19.7727 126.736 19.5453 126.897 19.164C127.044 18.7827 127.22 18.3133 127.425 17.756C127.631 17.1987 127.814 16.6267 127.975 16.04C128.137 15.4533 128.217 14.918 128.217 14.434C128.305 14.3313 128.445 14.2287 128.635 14.126C128.826 14.0233 129.024 13.972 129.229 13.972C129.625 13.972 129.823 14.1627 129.823 14.544C129.823 14.7787 129.757 15.1747 129.625 15.732C129.493 16.2747 129.325 16.8467 129.119 17.448C129.515 16.8467 129.955 16.2527 130.439 15.666C130.938 15.0647 131.466 14.566 132.023 14.17C132.581 13.774 133.138 13.576 133.695 13.576C134.267 13.576 134.678 13.7813 134.927 14.192C135.191 14.6027 135.323 15.0573 135.323 15.556C135.323 16.0107 135.25 16.436 135.103 16.832C134.957 17.2133 134.803 17.5873 134.641 17.954C134.495 18.306 134.421 18.6653 134.421 19.032C134.421 19.34 134.48 19.56 134.597 19.692C134.729 19.8093 134.891 19.868 135.081 19.868C135.448 19.868 135.815 19.6993 136.181 19.362C136.548 19.01 136.9 18.57 137.237 18.042C137.589 17.514 137.897 16.9787 138.161 16.436L138.403 16.722C138.095 17.4407 137.751 18.0787 137.369 18.636C136.988 19.1933 136.57 19.6333 136.115 19.956C135.661 20.2787 135.155 20.44 134.597 20.44Z" fill="#80C4CE"/>
</svg>
