<svg width="102" height="43" viewBox="0 0 102 43" fill="none" xmlns="http://www.w3.org/2000/svg">
<path d="M22.0176 30.7266C21.9134 29.7174 21.5521 28.8841 20.9336 28.2266C20.2305 27.4648 19.2767 27.084 18.0723 27.084C17.1022 27.084 16.334 27.3965 15.7676 28.0215C15.3118 28.5163 15.084 29.112 15.084 29.8086C15.084 31 15.9531 31.9049 17.6914 32.5234L18.1895 32.6992C20.2988 33.4674 21.6595 34.1966 22.2715 34.8867C22.8444 35.5378 23.1309 36.3158 23.1309 37.2207C23.1309 38.5879 22.5775 39.6361 21.4707 40.3652C20.6634 40.8926 19.7031 41.1562 18.5898 41.1562C17.3724 41.1562 16.2396 40.8275 15.1914 40.1699C14.8919 39.9681 14.6576 39.8672 14.4883 39.8672C14.2474 39.8672 14.127 40.1667 14.127 40.7656H13.5117V36.1074H14.0879C14.2311 37.3314 14.625 38.2982 15.2695 39.0078C16.1159 39.9128 17.2227 40.3652 18.5898 40.3652C19.4948 40.3652 20.2142 40.1178 20.748 39.623C21.321 39.1087 21.6074 38.4089 21.6074 37.5234C21.6074 36.8594 21.3665 36.2669 20.8848 35.7461C20.4486 35.2839 19.5371 34.7695 18.1504 34.2031L17.7695 34.0469C16.3177 33.4805 15.3639 33.0247 14.9082 32.6797C14.0684 32.0417 13.6484 31.1953 13.6484 30.1406C13.6484 28.9622 14.0879 28.0215 14.9668 27.3184C15.7676 26.6803 16.7832 26.3613 18.0137 26.3613C19.0814 26.3613 20.1426 26.6478 21.1973 27.2207C21.4121 27.3444 21.5716 27.4062 21.6758 27.4062C21.8646 27.4062 21.9688 27.1393 21.9883 26.6055H22.6133V30.7266H22.0176ZM30.2891 30.7754C31.6042 30.7754 32.7077 31.2214 33.5996 32.1133C34.5632 33.0768 35.0449 34.3366 35.0449 35.8926C35.0449 37.5397 34.5632 38.8418 33.5996 39.7988C32.7012 40.6777 31.5977 41.1172 30.2891 41.1172C28.9674 41.1172 27.8639 40.6777 26.9785 39.7988C26.0215 38.8418 25.543 37.556 25.543 35.9414C25.543 34.3529 26.0312 33.0703 27.0078 32.0938C27.8867 31.2148 28.9805 30.7754 30.2891 30.7754ZM30.2891 31.4688C29.2995 31.4688 28.5052 31.8887 27.9062 32.7285C27.3203 33.5423 27.0273 34.6133 27.0273 35.9414C27.0273 37.3411 27.3464 38.4414 27.9844 39.2422C28.5703 39.9909 29.3385 40.3652 30.2891 40.3652C31.4674 40.3652 32.3398 39.8444 32.9062 38.8027C33.3424 37.9824 33.5605 37.0352 33.5605 35.9609C33.5605 34.5482 33.2415 33.4316 32.6035 32.6113C32.0046 31.8496 31.2331 31.4688 30.2891 31.4688ZM41.5684 40.8047H36.7148V40.248C37.1445 40.248 37.5091 40.2057 37.8086 40.1211C38.2643 40.0234 38.4922 39.6458 38.4922 38.9883V28.5391C38.4922 27.9336 38.3392 27.569 38.0332 27.4453C37.8314 27.3607 37.3984 27.3184 36.7344 27.3184V26.7031C37.8086 26.6836 38.834 26.5827 39.8105 26.4004V38.9883C39.8105 39.5938 39.9896 39.9648 40.3477 40.1016C40.6081 40.1992 41.015 40.248 41.5684 40.248V40.8047ZM52.1152 35.6973H44.5762V36.0391C44.5762 37.3542 44.9766 38.4219 45.7773 39.2422C46.4479 39.9062 47.2617 40.2383 48.2188 40.2383C49.651 40.2383 50.7578 39.5449 51.5391 38.1582L52.0762 38.5781C51.2233 40.2708 49.8594 41.1172 47.9844 41.1172C46.5911 41.1172 45.4421 40.6647 44.5371 39.7598C43.6322 38.8288 43.1797 37.582 43.1797 36.0195C43.1797 34.3594 43.6582 33.0508 44.6152 32.0938C45.4486 31.2409 46.5098 30.8145 47.7988 30.8145C49.0488 30.8145 50.0612 31.2148 50.8359 32.0156C51.6888 32.8685 52.1152 33.9753 52.1152 35.3359V35.6973ZM50.7578 34.9355C50.7188 33.7897 50.3867 32.901 49.7617 32.2695C49.2214 31.7487 48.5605 31.4883 47.7793 31.4883C46.8483 31.4883 46.0736 31.8952 45.4551 32.709C45.0124 33.2884 44.7422 34.0306 44.6445 34.9355H50.7578ZM56.3633 26.6445C56.6497 26.6445 56.8906 26.7454 57.0859 26.9473C57.2878 27.1491 57.3887 27.39 57.3887 27.6699C57.3887 28.334 57.0469 28.666 56.3633 28.666C55.6992 28.666 55.3672 28.334 55.3672 27.6699C55.3672 26.9863 55.6992 26.6445 56.3633 26.6445ZM58.7266 40.8047H53.9707V40.248C54.4069 40.248 54.765 40.2057 55.0449 40.1211C55.4876 40.0039 55.709 39.623 55.709 38.9785V33.002C55.709 32.3704 55.5495 31.9961 55.2305 31.8789C55.0286 31.8008 54.6087 31.7617 53.9707 31.7617V31.1562C55.0579 31.1367 56.0768 31.0293 57.0273 30.834V38.9785C57.0273 39.5775 57.1803 39.9388 57.4863 40.0625C57.7858 40.1862 58.1992 40.248 58.7266 40.248V40.8047ZM64.6152 40.8047H59.7617V40.248C60.1914 40.248 60.556 40.2057 60.8555 40.1211C61.3112 40.0234 61.5391 39.6458 61.5391 38.9883V28.5391C61.5391 27.9336 61.3861 27.569 61.0801 27.4453C60.8783 27.3607 60.4453 27.3184 59.7812 27.3184V26.7031C60.8555 26.6836 61.8809 26.5827 62.8574 26.4004V38.9883C62.8574 39.5938 63.0365 39.9648 63.3945 40.1016C63.6549 40.1992 64.0618 40.248 64.6152 40.248V40.8047ZM74.1953 31.2441H75.709V29.0762H72.0273L71.8516 28.5781H75.709V26.6348C74.8366 26.7389 73.7103 26.8398 72.3301 26.9375L72.1934 26.4395C75.1751 26.1009 77.4277 25.6126 78.9512 24.9746C79.7389 25.4629 80.1328 25.8112 80.1328 26.0195C80.1328 26.1367 80.0124 26.1953 79.7715 26.1953C79.5892 26.1953 79.3743 26.1693 79.127 26.1172C78.4303 26.2604 77.6654 26.3874 76.832 26.498V28.5781H78.9121L79.752 27.416C80.2142 27.8783 80.5885 28.3047 80.875 28.6953L80.6504 29.0762H76.832V31.2441H78.3457L79.0293 30.4434C79.791 31.0228 80.1719 31.3939 80.1719 31.5566C80.1719 31.6283 80.1198 31.6966 80.0156 31.7617L79.5762 32.0449V35.6777H78.5117V34.8965H74.0391V35.9805H72.9551V30.6777C73.4564 30.8796 73.8698 31.0684 74.1953 31.2441ZM74.0391 31.7422V34.3984H78.5117V31.7422H74.0391ZM82.9648 27.1816H84.166C84.3353 26.4004 84.4622 25.528 84.5469 24.5645C85.8164 24.7858 86.4512 25.0234 86.4512 25.2773C86.4512 25.4401 86.181 25.5801 85.6406 25.6973C85.4648 26.1074 85.1784 26.6022 84.7812 27.1816H87.2617L88.0039 26.2637C88.7917 26.8496 89.1855 27.2402 89.1855 27.4355C89.1855 27.5332 89.1335 27.6146 89.0293 27.6797L88.5898 27.9824V35.9805H87.4473V34.8965H82.7305V35.9805H81.6074V26.6055C82.3757 26.918 82.8281 27.11 82.9648 27.1816ZM82.7305 27.6797V29.4375H87.4473V27.6797H82.7305ZM87.4473 34.3984V32.2988H82.7305V34.3984H87.4473ZM87.4473 31.8008V29.9355H82.7305V31.8008H87.4473ZM80.2109 35.7168C82.2487 36.498 83.2676 37.3639 83.2676 38.3145C83.2676 38.8092 83.0462 39.0566 82.6035 39.0566C82.3171 39.0566 82.1055 38.8646 81.9688 38.4805C81.6237 37.6341 80.9499 36.8268 79.9473 36.0586L80.2109 35.7168ZM74.6641 37.1035L75.1523 37.2598C75.1068 38.7051 74.7715 39.8932 74.1465 40.8242C73.6842 41.4883 73.2253 41.8203 72.7695 41.8203C72.2357 41.8203 71.9688 41.5664 71.9688 41.0586C71.9688 40.8047 72.1022 40.6061 72.3691 40.4629C73.541 39.8444 74.306 38.7246 74.6641 37.1035ZM85.9629 36.6152C87.1934 37.1426 88.2285 37.8034 89.0684 38.5977C89.6152 39.1445 89.8887 39.6654 89.8887 40.1602C89.8887 40.7331 89.6413 41.0195 89.1465 41.0195C88.847 41.0195 88.6061 40.7786 88.4238 40.2969C87.9616 39.1445 87.0501 38.0443 85.6895 36.9961L85.9629 36.6152ZM85.4355 38.4414C85.4355 39.4896 85.4876 40.1634 85.5918 40.4629C85.696 40.7038 85.9108 40.8242 86.2363 40.8242C86.1712 41.4492 85.849 41.8236 85.2695 41.9473C84.7357 42.0645 83.3359 42.123 81.0703 42.123C78.987 42.123 77.8021 42.0156 77.5156 41.8008C77.2487 41.599 77.1152 41.2116 77.1152 40.6387V36.4785C78.4368 36.5176 79.0977 36.6901 79.0977 36.9961C79.0977 37.1719 78.8177 37.3411 78.2578 37.5039V40.3359C78.2773 40.6615 78.3815 40.8568 78.5703 40.9219C78.8307 41 79.651 41.0391 81.0312 41.0391C82.4896 41.0391 83.4303 41.0065 83.8535 40.9414C84.2116 40.8828 84.4525 40.6615 84.5762 40.2773C84.7389 39.737 84.8594 39.0697 84.9375 38.2754L85.4355 38.4414Z" fill="#80C4CE"/>
<path d="M2.36781 15.736C1.90915 15.736 1.55715 15.6027 1.31181 15.336C1.06648 15.0693 0.943812 14.6747 0.943812 14.152C0.943812 13.6827 1.02915 13.1067 1.19981 12.424C1.38115 11.7307 1.60515 11.0213 1.87181 10.296C1.76515 10.2747 1.66381 10.2587 1.56781 10.248C1.47181 10.2267 1.38115 10.2 1.29581 10.168V9.88C1.38115 9.89067 1.48248 9.90133 1.59981 9.912C1.71715 9.92267 1.85048 9.93333 1.99981 9.944C2.22381 9.368 2.46381 8.81333 2.71981 8.28C2.97581 7.736 3.22648 7.256 3.47181 6.84C3.72781 6.41333 3.96781 6.07733 4.19181 5.832C4.42648 5.576 4.62381 5.448 4.78381 5.448C4.86915 5.448 4.94381 5.48 5.00781 5.544C5.08248 5.59733 5.11981 5.68267 5.11981 5.8C5.11981 5.98133 5.00781 6.28 4.78381 6.696C4.55981 7.10133 4.28248 7.58667 3.95181 8.152C3.62115 8.71733 3.30115 9.33067 2.99181 9.992C3.08781 9.992 3.18381 9.992 3.27981 9.992C3.38648 9.992 3.48781 9.992 3.58381 9.992C3.93581 9.992 4.30381 9.98667 4.68781 9.976C5.08248 9.96533 5.47715 9.93867 5.87181 9.896V10.184C5.28515 10.248 4.75715 10.296 4.28781 10.328C3.82915 10.36 3.41848 10.376 3.05581 10.376C3.01315 10.376 2.97048 10.376 2.92781 10.376C2.89581 10.376 2.85848 10.376 2.81581 10.376C2.57048 10.9413 2.36248 11.5227 2.19181 12.12C2.02115 12.7173 1.93581 13.2987 1.93581 13.864C1.93581 14.3227 2.00515 14.6533 2.14381 14.856C2.28248 15.048 2.51181 15.144 2.83181 15.144C3.38648 15.144 3.93048 14.8987 4.46381 14.408C4.99715 13.9173 5.46648 13.2507 5.87181 12.408L6.07981 12.568C5.82381 13.1653 5.49848 13.704 5.10381 14.184C4.71981 14.664 4.29315 15.0427 3.82381 15.32C3.35448 15.5973 2.86915 15.736 2.36781 15.736ZM6.67431 15.512C6.21565 15.512 5.89031 15.368 5.69831 15.08C5.50631 14.8027 5.41031 14.4613 5.41031 14.056C5.41031 13.7253 5.46365 13.384 5.57031 13.032C5.67698 12.68 5.81565 12.3493 5.98631 12.04C6.16765 11.7307 6.36498 11.48 6.57831 11.288C6.80231 11.096 7.02631 11 7.25031 11C7.30365 11 7.35698 11.0107 7.41031 11.032C7.47431 11.0427 7.53298 11.0587 7.58631 11.08C7.49031 11.1653 7.37298 11.3253 7.23431 11.56C7.10631 11.784 6.98365 12.0453 6.86631 12.344C6.74898 12.632 6.64765 12.92 6.56231 13.208C6.48765 13.496 6.45031 13.7413 6.45031 13.944C6.45031 14.264 6.50365 14.4987 6.61031 14.648C6.71698 14.7867 6.85565 14.856 7.02631 14.856C7.25031 14.856 7.51698 14.7387 7.82631 14.504C8.13565 14.2587 8.43965 13.9493 8.73831 13.576C8.43965 13.3307 8.20498 13.0107 8.03431 12.616C7.87431 12.2107 7.79431 11.8 7.79431 11.384C7.79431 11.032 7.85298 10.7013 7.97031 10.392C8.09831 10.0827 8.27965 9.83733 8.51431 9.656C8.74898 9.464 9.03165 9.368 9.36231 9.368C9.79965 9.368 10.093 9.48533 10.2423 9.72C10.3916 9.95467 10.4663 10.248 10.4663 10.6C10.4663 11.016 10.365 11.48 10.1623 11.992C9.95965 12.4933 9.70365 12.9787 9.39431 13.448C9.58631 13.5547 9.78898 13.608 10.0023 13.608C10.173 13.608 10.365 13.576 10.5783 13.512C10.7916 13.4373 10.9996 13.3147 11.2023 13.144C11.4156 12.9733 11.5863 12.744 11.7143 12.456L11.9063 12.616C11.693 13.1173 11.389 13.4747 10.9943 13.688C10.6103 13.8907 10.2423 13.992 9.89031 13.992C9.75165 13.992 9.61831 13.9813 9.49031 13.96C9.36231 13.928 9.23965 13.8853 9.12231 13.832C8.75965 14.312 8.35965 14.712 7.92231 15.032C7.49565 15.352 7.07965 15.512 6.67431 15.512ZM9.02631 13.16C9.29298 12.7653 9.51165 12.3547 9.68231 11.928C9.86365 11.4907 9.95431 11.08 9.95431 10.696C9.95431 10.3867 9.90631 10.1627 9.81031 10.024C9.72498 9.87467 9.61298 9.8 9.47431 9.8C9.26098 9.8 9.04231 9.95467 8.81831 10.264C8.59431 10.5733 8.48231 10.9627 8.48231 11.432C8.48231 11.7413 8.52498 12.056 8.61031 12.376C8.70631 12.6853 8.84498 12.9467 9.02631 13.16ZM12.7741 15.736C12.3154 15.736 11.9634 15.6027 11.7181 15.336C11.4727 15.0693 11.3501 14.6747 11.3501 14.152C11.3501 13.6827 11.4354 13.1067 11.6061 12.424C11.7874 11.7307 12.0114 11.0213 12.2781 10.296C12.1714 10.2747 12.0701 10.2587 11.9741 10.248C11.8781 10.2267 11.7874 10.2 11.7021 10.168V9.88C11.7874 9.89067 11.8887 9.90133 12.0061 9.912C12.1234 9.92267 12.2567 9.93333 12.4061 9.944C12.6301 9.368 12.8701 8.81333 13.1261 8.28C13.3821 7.736 13.6327 7.256 13.8781 6.84C14.1341 6.41333 14.3741 6.07733 14.5981 5.832C14.8327 5.576 15.0301 5.448 15.1901 5.448C15.2754 5.448 15.3501 5.48 15.4141 5.544C15.4887 5.59733 15.5261 5.68267 15.5261 5.8C15.5261 5.98133 15.4141 6.28 15.1901 6.696C14.9661 7.10133 14.6887 7.58667 14.3581 8.152C14.0274 8.71733 13.7074 9.33067 13.3981 9.992C13.4941 9.992 13.5901 9.992 13.6861 9.992C13.7927 9.992 13.8941 9.992 13.9901 9.992C14.3421 9.992 14.7101 9.98667 15.0941 9.976C15.4887 9.96533 15.8834 9.93867 16.2781 9.896V10.184C15.6914 10.248 15.1634 10.296 14.6941 10.328C14.2354 10.36 13.8247 10.376 13.4621 10.376C13.4194 10.376 13.3767 10.376 13.3341 10.376C13.3021 10.376 13.2647 10.376 13.2221 10.376C12.9767 10.9413 12.7687 11.5227 12.5981 12.12C12.4274 12.7173 12.3421 13.2987 12.3421 13.864C12.3421 14.3227 12.4114 14.6533 12.5501 14.856C12.6887 15.048 12.9181 15.144 13.2381 15.144C13.7927 15.144 14.3367 14.8987 14.8701 14.408C15.4034 13.9173 15.8727 13.2507 16.2781 12.408L16.4861 12.568C16.2301 13.1653 15.9047 13.704 15.5101 14.184C15.1261 14.664 14.6994 15.0427 14.2301 15.32C13.7607 15.5973 13.2754 15.736 12.7741 15.736ZM16.7446 15.752C16.4139 15.752 16.1366 15.64 15.9126 15.416C15.6779 15.2027 15.5606 14.872 15.5606 14.424C15.5606 14.04 15.6459 13.6293 15.8166 13.192C15.9872 12.744 16.2219 12.3067 16.5206 11.88C16.8192 11.4427 17.1552 11.048 17.5286 10.696C17.9126 10.3333 18.3126 10.0453 18.7286 9.832C19.1552 9.61867 19.5766 9.512 19.9926 9.512C20.4086 9.512 20.7552 9.624 21.0326 9.848C21.3099 10.0613 21.4486 10.3493 21.4486 10.712C21.4486 10.9787 21.3739 11.16 21.2246 11.256C21.0859 11.352 20.8992 11.4 20.6646 11.4C20.6859 11.3147 20.7019 11.224 20.7126 11.128C20.7339 11.0213 20.7446 10.9253 20.7446 10.84C20.7446 10.5947 20.6859 10.3867 20.5686 10.216C20.4512 10.0347 20.2486 9.944 19.9606 9.944C19.6619 9.944 19.3579 10.0507 19.0486 10.264C18.7392 10.4667 18.4406 10.744 18.1526 11.096C17.8646 11.4373 17.6086 11.8107 17.3846 12.216C17.1606 12.6213 16.9846 13.0213 16.8566 13.416C16.7286 13.8107 16.6646 14.1627 16.6646 14.472C16.6646 14.888 16.8086 15.096 17.0966 15.096C17.3419 15.096 17.6086 14.984 17.8966 14.76C18.1846 14.5253 18.4779 14.232 18.7766 13.88C19.0859 13.5173 19.3792 13.144 19.6566 12.76C19.9339 12.376 20.1792 12.024 20.3926 11.704C20.4352 11.64 20.4619 11.608 20.4726 11.608C20.5366 11.6187 20.6166 11.64 20.7126 11.672C20.8192 11.704 20.9099 11.7467 20.9846 11.8C21.0592 11.8533 21.0966 11.9227 21.0966 12.008C21.0966 12.104 21.0486 12.2373 20.9526 12.408C20.8566 12.568 20.7499 12.7547 20.6326 12.968C20.5152 13.1813 20.4086 13.4 20.3126 13.624C20.2166 13.8373 20.1686 14.04 20.1686 14.232C20.1686 14.392 20.2112 14.552 20.2966 14.712C20.3819 14.8613 20.5206 14.936 20.7126 14.936C21.0006 14.936 21.3792 14.728 21.8486 14.312C22.3179 13.8853 22.7926 13.2507 23.2726 12.408L23.4326 12.568C23.2086 13.144 22.9206 13.6507 22.5686 14.088C22.2166 14.5253 21.8379 14.8667 21.4326 15.112C21.0379 15.3573 20.6486 15.48 20.2646 15.48C19.8699 15.48 19.5766 15.3627 19.3846 15.128C19.2032 14.8933 19.1126 14.6373 19.1126 14.36C19.1126 14.296 19.1179 14.2267 19.1286 14.152C19.1392 14.0667 19.1499 13.9813 19.1606 13.896C18.7019 14.5147 18.2806 14.9787 17.8966 15.288C17.5232 15.5973 17.1392 15.752 16.7446 15.752ZM24.2733 15.48C23.8146 15.48 23.484 15.32 23.2813 15C23.0893 14.6907 22.9933 14.3013 22.9933 13.832C22.9933 13.32 23.0893 12.712 23.2813 12.008C23.4733 11.304 23.724 10.5627 24.0333 9.784C24.3533 9.00533 24.7 8.248 25.0733 7.512C25.4466 6.76533 25.82 6.088 26.1933 5.48C26.5666 4.872 26.908 4.38667 27.2173 4.024C27.5373 3.66133 27.788 3.48 27.9693 3.48C28.0866 3.48 28.1826 3.54933 28.2573 3.688C28.332 3.816 28.3906 3.976 28.4333 4.168C28.476 4.34933 28.4973 4.51467 28.4973 4.664C28.4973 4.952 28.4226 5.33067 28.2733 5.8C28.1346 6.25867 27.932 6.776 27.6653 7.352C27.4093 7.91733 27.1 8.49333 26.7373 9.08C26.3853 9.656 25.996 10.2107 25.5693 10.744C25.1533 11.2773 24.7106 11.736 24.2413 12.12C24.1773 12.408 24.124 12.6907 24.0813 12.968C24.0493 13.2347 24.0333 13.4907 24.0333 13.736C24.0333 14.152 24.092 14.4613 24.2093 14.664C24.3266 14.8667 24.5026 14.968 24.7373 14.968C25.0253 14.968 25.308 14.84 25.5853 14.584C25.8733 14.328 26.14 14.008 26.3853 13.624C26.6413 13.2293 26.86 12.824 27.0413 12.408L27.2813 12.536C26.8546 13.4427 26.3906 14.1627 25.8893 14.696C25.388 15.2187 24.8493 15.48 24.2733 15.48ZM24.3853 11.576C24.7586 11.2027 25.1213 10.776 25.4733 10.296C25.8253 9.80533 26.1506 9.29867 26.4493 8.776C26.7586 8.25333 27.0306 7.74667 27.2653 7.256C27.5 6.76533 27.6813 6.328 27.8093 5.944C27.9373 5.54933 28.0013 5.24533 28.0013 5.032C28.0013 4.92533 27.9853 4.856 27.9533 4.824C27.932 4.792 27.9106 4.776 27.8893 4.776C27.804 4.776 27.6546 4.91467 27.4413 5.192C27.2386 5.45867 26.9986 5.82133 26.7213 6.28C26.444 6.73867 26.1613 7.26133 25.8733 7.848C25.5853 8.43467 25.308 9.048 25.0413 9.688C24.7853 10.328 24.5666 10.9573 24.3853 11.576ZM32.3708 16.168C31.8161 16.168 31.4001 15.9867 31.1228 15.624C30.8561 15.2613 30.7228 14.7707 30.7228 14.152C30.7228 13.6187 30.8135 12.9893 30.9948 12.264C31.1761 11.5387 31.4161 10.7813 31.7148 9.992C32.0135 9.192 32.3441 8.41333 32.7068 7.656C33.0801 6.89867 33.4535 6.216 33.8268 5.608C34.2001 4.98933 34.5521 4.49867 34.8828 4.136C35.2135 3.76267 35.4855 3.576 35.6988 3.576C35.8801 3.576 36.0081 3.688 36.0828 3.912C36.1681 4.136 36.2108 4.36 36.2108 4.584C36.2108 4.88267 36.1468 5.24533 36.0188 5.672C35.8908 6.09867 35.7095 6.55733 35.4748 7.048C35.2401 7.528 34.9681 8.00267 34.6588 8.472C34.3495 8.94133 34.0135 9.37333 33.6508 9.768C33.2988 10.152 32.9361 10.456 32.5628 10.68C32.4988 10.7973 32.4028 11.0427 32.2748 11.416C32.1575 11.7787 32.0455 12.2 31.9388 12.68C31.8428 13.1493 31.7948 13.608 31.7948 14.056C31.7948 14.4933 31.8588 14.8507 31.9868 15.128C32.1255 15.416 32.3548 15.56 32.6748 15.56C32.9841 15.56 33.3041 15.432 33.6348 15.176C33.9655 14.9307 34.2321 14.6107 34.4348 14.216C34.0401 14.0133 33.7468 13.72 33.5548 13.336C33.3628 12.9413 33.2668 12.5467 33.2668 12.152C33.2668 11.64 33.4001 11.2293 33.6668 10.92C33.9335 10.6107 34.2481 10.456 34.6108 10.456C34.9201 10.456 35.1655 10.584 35.3468 10.84C35.5281 11.0853 35.6188 11.448 35.6188 11.928C35.6188 12.28 35.5708 12.6427 35.4748 13.016C35.3788 13.3893 35.2401 13.752 35.0588 14.104C35.1228 14.1147 35.1868 14.1253 35.2508 14.136C35.3255 14.1467 35.4001 14.152 35.4748 14.152C35.8588 14.152 36.1788 14.0613 36.4348 13.88C36.6908 13.688 36.9041 13.4587 37.0748 13.192C37.2561 12.9147 37.4055 12.6533 37.5228 12.408L37.7148 12.616C37.4161 13.352 37.0588 13.8427 36.6428 14.088C36.2375 14.3227 35.8321 14.44 35.4268 14.44C35.3415 14.44 35.2561 14.4347 35.1708 14.424C35.0855 14.4133 35.0001 14.4027 34.9148 14.392C34.6268 14.8827 34.2695 15.2987 33.8428 15.64C33.4268 15.992 32.9361 16.168 32.3708 16.168ZM34.5948 13.896C34.7121 13.6507 34.8028 13.3947 34.8668 13.128C34.9308 12.8507 34.9628 12.568 34.9628 12.28C34.9628 11.9067 34.9095 11.6133 34.8028 11.4C34.7068 11.1867 34.5841 11.08 34.4348 11.08C34.2748 11.08 34.1308 11.192 34.0028 11.416C33.8855 11.6293 33.8268 11.9013 33.8268 12.232C33.8268 12.52 33.8855 12.824 34.0028 13.144C34.1201 13.464 34.3175 13.7147 34.5948 13.896ZM32.7388 10.056C33.0375 9.82133 33.3255 9.52267 33.6028 9.16C33.8908 8.79733 34.1575 8.41333 34.4028 8.008C34.6481 7.592 34.8668 7.18667 35.0588 6.792C35.2508 6.39733 35.4001 6.04 35.5068 5.72C35.6135 5.4 35.6668 5.16 35.6668 5C35.6668 4.94667 35.6615 4.91467 35.6508 4.904C35.6401 4.88267 35.6241 4.872 35.6028 4.872C35.5175 4.872 35.3521 5.02667 35.1068 5.336C34.8721 5.63467 34.6055 6.04 34.3068 6.552C34.0188 7.05333 33.7308 7.61333 33.4428 8.232C33.1548 8.84 32.9201 9.448 32.7388 10.056ZM38.9077 15.704C38.257 15.704 37.7664 15.5227 37.4357 15.16C37.1157 14.808 36.9557 14.3707 36.9557 13.848C36.9557 13.368 37.073 12.8613 37.3077 12.328C37.553 11.7947 37.873 11.2933 38.2677 10.824C38.673 10.3547 39.1157 9.976 39.5957 9.688C40.0757 9.38933 40.5504 9.24 41.0197 9.24C41.265 9.24 41.489 9.304 41.6917 9.432C41.905 9.56 42.0117 9.82133 42.0117 10.216C42.0117 10.6213 41.889 11.0053 41.6437 11.368C41.409 11.72 41.0944 12.0347 40.6997 12.312C40.3157 12.5893 39.889 12.8187 39.4197 13C38.961 13.1707 38.5024 13.2773 38.0437 13.32C38.0224 13.4267 38.0064 13.528 37.9957 13.624C37.985 13.72 37.9797 13.8107 37.9797 13.896C37.9797 14.056 37.9957 14.216 38.0277 14.376C38.0704 14.536 38.1397 14.6853 38.2357 14.824C38.3317 14.952 38.4597 15.0533 38.6197 15.128C38.7904 15.2027 38.9984 15.24 39.2437 15.24C39.7024 15.24 40.1557 15.112 40.6037 14.856C41.0517 14.5893 41.4677 14.2427 41.8517 13.816C42.2357 13.3893 42.561 12.92 42.8277 12.408L43.0197 12.552C42.7317 13.192 42.3637 13.7467 41.9157 14.216C41.4784 14.6853 40.9984 15.048 40.4757 15.304C39.9637 15.5707 39.441 15.704 38.9077 15.704ZM38.1237 13.016C38.4117 12.92 38.737 12.7813 39.0997 12.6C39.4624 12.408 39.809 12.184 40.1397 11.928C40.481 11.672 40.7584 11.3893 40.9717 11.08C41.1957 10.7707 41.3077 10.4453 41.3077 10.104C41.3077 9.98667 41.2864 9.896 41.2437 9.832C41.201 9.768 41.1104 9.736 40.9717 9.736C40.7157 9.736 40.4437 9.83733 40.1557 10.04C39.8677 10.232 39.5904 10.488 39.3237 10.808C39.057 11.128 38.817 11.48 38.6037 11.864C38.3904 12.248 38.2304 12.632 38.1237 13.016ZM43.2758 15.752C42.9451 15.752 42.6678 15.64 42.4438 15.416C42.2091 15.2027 42.0918 14.872 42.0918 14.424C42.0918 14.04 42.1771 13.6293 42.3478 13.192C42.5185 12.744 42.7531 12.3067 43.0518 11.88C43.3505 11.4427 43.6865 11.048 44.0598 10.696C44.4438 10.3333 44.8438 10.0453 45.2598 9.832C45.6865 9.61867 46.1078 9.512 46.5238 9.512C46.9398 9.512 47.2865 9.624 47.5638 9.848C47.8411 10.0613 47.9798 10.3493 47.9798 10.712C47.9798 10.9787 47.9051 11.16 47.7558 11.256C47.6171 11.352 47.4305 11.4 47.1958 11.4C47.2171 11.3147 47.2331 11.224 47.2438 11.128C47.2651 11.0213 47.2758 10.9253 47.2758 10.84C47.2758 10.5947 47.2171 10.3867 47.0998 10.216C46.9825 10.0347 46.7798 9.944 46.4918 9.944C46.1931 9.944 45.8891 10.0507 45.5798 10.264C45.2705 10.4667 44.9718 10.744 44.6838 11.096C44.3958 11.4373 44.1398 11.8107 43.9158 12.216C43.6918 12.6213 43.5158 13.0213 43.3878 13.416C43.2598 13.8107 43.1958 14.1627 43.1958 14.472C43.1958 14.888 43.3398 15.096 43.6278 15.096C43.8731 15.096 44.1398 14.984 44.4278 14.76C44.7158 14.5253 45.0091 14.232 45.3078 13.88C45.6171 13.5173 45.9105 13.144 46.1878 12.76C46.4651 12.376 46.7105 12.024 46.9238 11.704C46.9665 11.64 46.9931 11.608 47.0038 11.608C47.0678 11.6187 47.1478 11.64 47.2438 11.672C47.3505 11.704 47.4411 11.7467 47.5158 11.8C47.5905 11.8533 47.6278 11.9227 47.6278 12.008C47.6278 12.104 47.5798 12.2373 47.4838 12.408C47.3878 12.568 47.2811 12.7547 47.1638 12.968C47.0465 13.1813 46.9398 13.4 46.8438 13.624C46.7478 13.8373 46.6998 14.04 46.6998 14.232C46.6998 14.392 46.7425 14.552 46.8278 14.712C46.9131 14.8613 47.0518 14.936 47.2438 14.936C47.5318 14.936 47.9105 14.728 48.3798 14.312C48.8491 13.8853 49.3238 13.2507 49.8038 12.408L49.9638 12.568C49.7398 13.144 49.4518 13.6507 49.0998 14.088C48.7478 14.5253 48.3691 14.8667 47.9638 15.112C47.5691 15.3573 47.1798 15.48 46.7958 15.48C46.4011 15.48 46.1078 15.3627 45.9158 15.128C45.7345 14.8933 45.6438 14.6373 45.6438 14.36C45.6438 14.296 45.6491 14.2267 45.6598 14.152C45.6705 14.0667 45.6811 13.9813 45.6918 13.896C45.2331 14.5147 44.8118 14.9787 44.4278 15.288C44.0545 15.5973 43.6705 15.752 43.2758 15.752ZM50.6766 15.48C50.3139 15.48 50.0206 15.32 49.7966 15C49.5832 14.6693 49.4766 14.2907 49.4766 13.864C49.4766 13.5547 49.5246 13.1973 49.6206 12.792C49.7272 12.3867 49.8552 11.9867 50.0046 11.592C50.1539 11.1973 50.3086 10.872 50.4686 10.616C50.6286 10.36 50.7672 10.232 50.8846 10.232C50.9379 10.232 51.0286 10.264 51.1566 10.328C51.2846 10.3813 51.3912 10.456 51.4766 10.552C51.3592 10.7333 51.2152 11.0107 51.0446 11.384C50.8739 11.7573 50.7246 12.1573 50.5966 12.584C50.4686 13.0107 50.4046 13.4053 50.4046 13.768C50.4046 13.8533 50.4152 13.9867 50.4366 14.168C50.4579 14.3387 50.5112 14.4933 50.5966 14.632C50.6819 14.7707 50.8099 14.84 50.9806 14.84C51.1832 14.84 51.3912 14.7387 51.6046 14.536C51.8179 14.3227 52.0312 14.0507 52.2446 13.72C52.4686 13.3893 52.6819 13.032 52.8846 12.648C53.0872 12.264 53.2739 11.896 53.4446 11.544C53.6259 11.192 53.7752 10.8987 53.8926 10.664C53.9566 10.6747 54.0472 10.696 54.1646 10.728C54.2926 10.76 54.4046 10.8027 54.5006 10.856C54.6072 10.9093 54.6606 10.984 54.6606 11.08C54.6606 11.1227 54.6072 11.2667 54.5006 11.512C54.3939 11.7467 54.2659 12.04 54.1166 12.392C53.9779 12.7333 53.8552 13.08 53.7486 13.432C53.6419 13.784 53.5886 14.0933 53.5886 14.36C53.5886 14.552 53.6259 14.7067 53.7006 14.824C53.7859 14.9413 53.9246 15 54.1166 15C54.3406 15 54.6126 14.8987 54.9326 14.696C55.2526 14.4933 55.5779 14.2 55.9086 13.816C56.2392 13.4213 56.5326 12.952 56.7886 12.408L56.9966 12.552C56.7726 13.128 56.4792 13.64 56.1166 14.088C55.7539 14.5253 55.3699 14.8667 54.9646 15.112C54.5592 15.3573 54.1646 15.48 53.7806 15.48C53.5032 15.48 53.2792 15.4267 53.1086 15.32C52.9486 15.2133 52.8312 15.0693 52.7566 14.888C52.6926 14.7067 52.6606 14.5093 52.6606 14.296C52.6606 14.168 52.6712 14.04 52.6926 13.912C52.7139 13.7733 52.7406 13.6347 52.7726 13.496C52.5806 13.848 52.3726 14.1787 52.1486 14.488C51.9246 14.7867 51.6899 15.0267 51.4446 15.208C51.1992 15.3893 50.9432 15.48 50.6766 15.48ZM57.8522 15.736C57.3935 15.736 57.0415 15.6027 56.7962 15.336C56.5509 15.0693 56.4282 14.6747 56.4282 14.152C56.4282 13.6827 56.5135 13.1067 56.6842 12.424C56.8655 11.7307 57.0895 11.0213 57.3562 10.296C57.2495 10.2747 57.1482 10.2587 57.0522 10.248C56.9562 10.2267 56.8655 10.2 56.7802 10.168V9.88C56.8655 9.89067 56.9669 9.90133 57.0842 9.912C57.2015 9.92267 57.3349 9.93333 57.4842 9.944C57.7082 9.368 57.9482 8.81333 58.2042 8.28C58.4602 7.736 58.7109 7.256 58.9562 6.84C59.2122 6.41333 59.4522 6.07733 59.6762 5.832C59.9109 5.576 60.1082 5.448 60.2682 5.448C60.3535 5.448 60.4282 5.48 60.4922 5.544C60.5669 5.59733 60.6042 5.68267 60.6042 5.8C60.6042 5.98133 60.4922 6.28 60.2682 6.696C60.0442 7.10133 59.7669 7.58667 59.4362 8.152C59.1055 8.71733 58.7855 9.33067 58.4762 9.992C58.5722 9.992 58.6682 9.992 58.7642 9.992C58.8709 9.992 58.9722 9.992 59.0682 9.992C59.4202 9.992 59.7882 9.98667 60.1722 9.976C60.5669 9.96533 60.9615 9.93867 61.3562 9.896V10.184C60.7695 10.248 60.2415 10.296 59.7722 10.328C59.3135 10.36 58.9029 10.376 58.5402 10.376C58.4975 10.376 58.4549 10.376 58.4122 10.376C58.3802 10.376 58.3429 10.376 58.3002 10.376C58.0549 10.9413 57.8469 11.5227 57.6762 12.12C57.5055 12.7173 57.4202 13.2987 57.4202 13.864C57.4202 14.3227 57.4895 14.6533 57.6282 14.856C57.7669 15.048 57.9962 15.144 58.3162 15.144C58.8709 15.144 59.4149 14.8987 59.9482 14.408C60.4815 13.9173 60.9509 13.2507 61.3562 12.408L61.5642 12.568C61.3082 13.1653 60.9829 13.704 60.5882 14.184C60.2042 14.664 59.7775 15.0427 59.3082 15.32C58.8389 15.5973 58.3535 15.736 57.8522 15.736ZM61.7427 19.48C61.476 19.48 61.2414 19.4053 61.0387 19.256C60.836 19.1173 60.7347 18.9093 60.7347 18.632C60.7347 18.2907 60.82 17.9867 60.9907 17.72C61.1614 17.4533 61.3907 17.208 61.6787 16.984C61.9667 16.76 62.2974 16.5467 62.6707 16.344C63.044 16.1413 63.4334 15.9387 63.8387 15.736C63.988 15.3413 64.1374 14.904 64.2867 14.424C64.4467 13.9333 64.596 13.3947 64.7347 12.808C64.3934 13.3627 64.0254 13.8427 63.6307 14.248C63.2467 14.6427 62.836 14.84 62.3987 14.84C62.196 14.84 61.9934 14.7973 61.7907 14.712C61.5987 14.616 61.4387 14.472 61.3107 14.28C61.1827 14.088 61.1187 13.8427 61.1187 13.544C61.1187 13.2453 61.1667 12.8987 61.2627 12.504C61.3694 12.1093 61.4974 11.7253 61.6467 11.352C61.796 10.9787 61.9507 10.6693 62.1107 10.424C62.2707 10.1787 62.4094 10.056 62.5267 10.056C62.5694 10.056 62.644 10.072 62.7507 10.104C62.868 10.136 62.9747 10.184 63.0707 10.248C63.1774 10.3013 63.2307 10.36 63.2307 10.424C63.1347 10.5627 63.028 10.76 62.9107 11.016C62.7934 11.272 62.676 11.56 62.5587 11.88C62.452 12.1893 62.3614 12.4933 62.2867 12.792C62.212 13.0907 62.1747 13.3467 62.1747 13.56C62.1747 13.752 62.2174 13.9067 62.3027 14.024C62.388 14.1413 62.5374 14.2 62.7507 14.2C62.9534 14.2 63.1774 14.104 63.4227 13.912C63.6787 13.7093 63.9294 13.4533 64.1747 13.144C64.4307 12.8347 64.6654 12.504 64.8787 12.152C64.9107 12.0347 64.9374 11.9173 64.9587 11.8C64.9907 11.672 65.0174 11.544 65.0387 11.416C65.0707 11.2667 65.1454 11.096 65.2627 10.904C65.3907 10.7013 65.588 10.6 65.8547 10.6C65.908 10.6 65.9614 10.6053 66.0147 10.616C66.068 10.616 66.1267 10.6267 66.1907 10.648C66.1907 10.8187 66.1374 11.1387 66.0307 11.608C65.9347 12.0667 65.7907 12.6053 65.5987 13.224C65.4174 13.8427 65.1987 14.4773 64.9427 15.128C65.444 14.936 65.9347 14.6213 66.4147 14.184C66.8947 13.736 67.284 13.144 67.5827 12.408L67.7907 12.568C67.6307 13.08 67.3854 13.528 67.0547 13.912C66.7347 14.2853 66.372 14.6107 65.9667 14.888C65.5614 15.1547 65.1614 15.3787 64.7667 15.56C64.4894 16.2427 64.1854 16.8827 63.8547 17.48C63.5347 18.0773 63.1934 18.5573 62.8307 18.92C62.4787 19.2933 62.116 19.48 61.7427 19.48ZM61.6627 18.968C61.8227 18.968 62.0894 18.7547 62.4627 18.328C62.8467 17.912 63.252 17.176 63.6787 16.12C63.2414 16.3547 62.836 16.584 62.4627 16.808C62.0894 17.0427 61.7907 17.2933 61.5667 17.56C61.3427 17.8267 61.2307 18.136 61.2307 18.488C61.2307 18.5733 61.2627 18.6747 61.3267 18.792C61.3907 18.9093 61.5027 18.968 61.6627 18.968ZM73.1097 15.816C72.6084 15.816 72.2084 15.704 71.9097 15.48C71.6217 15.2667 71.419 15 71.3017 14.68C71.1737 14.36 71.1097 14.04 71.1097 13.72C71.1097 13.4 71.1524 13.1547 71.2377 12.984C71.323 12.8133 71.4244 12.6853 71.5417 12.6C71.6697 12.5147 71.787 12.4507 71.8937 12.408C72.011 12.3653 72.091 12.3227 72.1337 12.28C72.4537 11.928 72.747 11.56 73.0137 11.176C73.2804 10.792 73.515 10.3867 73.7177 9.96V9.768C73.7177 9.37333 73.7817 9.096 73.9097 8.936C74.0484 8.76533 74.1924 8.68 74.3417 8.68C74.427 8.68 74.491 8.70133 74.5337 8.744C74.5764 8.78667 74.5977 8.83467 74.5977 8.888C74.5977 8.94133 74.5817 9.02667 74.5497 9.144C74.5177 9.26133 74.5017 9.41067 74.5017 9.592C74.5017 9.944 74.571 10.328 74.7097 10.744C74.8484 11.1493 74.987 11.5813 75.1257 12.04C75.2644 12.488 75.3337 12.9573 75.3337 13.448C75.3337 13.5867 75.323 13.7253 75.3017 13.864C75.291 13.992 75.2697 14.1147 75.2377 14.232C75.611 14.168 75.963 14.0027 76.2937 13.736C76.6244 13.4587 76.9444 13.0213 77.2537 12.424L77.3977 12.584C77.195 13.1707 76.891 13.6187 76.4857 13.928C76.0804 14.2267 75.6377 14.4133 75.1577 14.488C74.987 14.9467 74.715 15.2827 74.3417 15.496C73.979 15.7093 73.5684 15.816 73.1097 15.816ZM73.1417 15.256C73.2697 15.256 73.4404 15.2133 73.6537 15.128C73.867 15.0427 74.0324 14.824 74.1497 14.472C73.7017 14.3867 73.3017 14.2107 72.9497 13.944C72.6084 13.6773 72.3524 13.4107 72.1817 13.144C71.947 13.1547 71.8297 13.3413 71.8297 13.704C71.8297 14.088 71.9417 14.4453 72.1657 14.776C72.4004 15.096 72.7257 15.256 73.1417 15.256ZM74.2297 14.216C74.251 14.1093 74.267 13.9973 74.2777 13.88C74.2884 13.7627 74.2937 13.624 74.2937 13.464C74.2937 12.9627 74.2297 12.4667 74.1017 11.976C73.9844 11.4747 73.883 11.0053 73.7977 10.568C73.5524 10.9733 73.291 11.3627 73.0137 11.736C72.747 12.0987 72.491 12.4027 72.2457 12.648C72.4057 12.9893 72.651 13.3093 72.9817 13.608C73.323 13.9067 73.739 14.1093 74.2297 14.216ZM77.7133 15.752C77.3826 15.752 77.1053 15.64 76.8813 15.416C76.6466 15.2027 76.5293 14.872 76.5293 14.424C76.5293 14.04 76.6146 13.6293 76.7853 13.192C76.956 12.744 77.1906 12.3067 77.4893 11.88C77.788 11.4427 78.124 11.048 78.4973 10.696C78.8813 10.3333 79.2813 10.0453 79.6973 9.832C80.124 9.61867 80.5453 9.512 80.9613 9.512C81.3773 9.512 81.724 9.624 82.0013 9.848C82.2786 10.0613 82.4173 10.3493 82.4173 10.712C82.4173 10.9787 82.3426 11.16 82.1933 11.256C82.0546 11.352 81.868 11.4 81.6333 11.4C81.6546 11.3147 81.6706 11.224 81.6813 11.128C81.7026 11.0213 81.7133 10.9253 81.7133 10.84C81.7133 10.5947 81.6546 10.3867 81.5373 10.216C81.42 10.0347 81.2173 9.944 80.9293 9.944C80.6306 9.944 80.3266 10.0507 80.0173 10.264C79.708 10.4667 79.4093 10.744 79.1213 11.096C78.8333 11.4373 78.5773 11.8107 78.3533 12.216C78.1293 12.6213 77.9533 13.0213 77.8253 13.416C77.6973 13.8107 77.6333 14.1627 77.6333 14.472C77.6333 14.888 77.7773 15.096 78.0653 15.096C78.3106 15.096 78.5773 14.984 78.8653 14.76C79.1533 14.5253 79.4466 14.232 79.7453 13.88C80.0546 13.5173 80.348 13.144 80.6253 12.76C80.9026 12.376 81.148 12.024 81.3613 11.704C81.404 11.64 81.4306 11.608 81.4413 11.608C81.5053 11.6187 81.5853 11.64 81.6813 11.672C81.788 11.704 81.8786 11.7467 81.9533 11.8C82.028 11.8533 82.0653 11.9227 82.0653 12.008C82.0653 12.104 82.0173 12.2373 81.9213 12.408C81.8253 12.568 81.7186 12.7547 81.6013 12.968C81.484 13.1813 81.3773 13.4 81.2813 13.624C81.1853 13.8373 81.1373 14.04 81.1373 14.232C81.1373 14.392 81.18 14.552 81.2653 14.712C81.3506 14.8613 81.4893 14.936 81.6813 14.936C81.9693 14.936 82.348 14.728 82.8173 14.312C83.2866 13.8853 83.7613 13.2507 84.2413 12.408L84.4013 12.568C84.1773 13.144 83.8893 13.6507 83.5373 14.088C83.1853 14.5253 82.8066 14.8667 82.4013 15.112C82.0066 15.3573 81.6173 15.48 81.2333 15.48C80.8386 15.48 80.5453 15.3627 80.3533 15.128C80.172 14.8933 80.0813 14.6373 80.0813 14.36C80.0813 14.296 80.0866 14.2267 80.0973 14.152C80.108 14.0667 80.1186 13.9813 80.1293 13.896C79.6706 14.5147 79.2493 14.9787 78.8653 15.288C78.492 15.5973 78.108 15.752 77.7133 15.752ZM85.2421 15.48C84.7834 15.48 84.4527 15.32 84.2501 15C84.0581 14.6907 83.9621 14.3013 83.9621 13.832C83.9621 13.32 84.0581 12.712 84.2501 12.008C84.4421 11.304 84.6927 10.5627 85.0021 9.784C85.3221 9.00533 85.6687 8.248 86.0421 7.512C86.4154 6.76533 86.7887 6.088 87.1621 5.48C87.5354 4.872 87.8767 4.38667 88.1861 4.024C88.5061 3.66133 88.7567 3.48 88.9381 3.48C89.0554 3.48 89.1514 3.54933 89.2261 3.688C89.3007 3.816 89.3594 3.976 89.4021 4.168C89.4447 4.34933 89.4661 4.51467 89.4661 4.664C89.4661 4.952 89.3914 5.33067 89.2421 5.8C89.1034 6.25867 88.9007 6.776 88.6341 7.352C88.3781 7.91733 88.0687 8.49333 87.7061 9.08C87.3541 9.656 86.9647 10.2107 86.5381 10.744C86.1221 11.2773 85.6794 11.736 85.2101 12.12C85.1461 12.408 85.0927 12.6907 85.0501 12.968C85.0181 13.2347 85.0021 13.4907 85.0021 13.736C85.0021 14.152 85.0607 14.4613 85.1781 14.664C85.2954 14.8667 85.4714 14.968 85.7061 14.968C85.9941 14.968 86.2767 14.84 86.5541 14.584C86.8421 14.328 87.1087 14.008 87.3541 13.624C87.6101 13.2293 87.8287 12.824 88.0101 12.408L88.2501 12.536C87.8234 13.4427 87.3594 14.1627 86.8581 14.696C86.3567 15.2187 85.8181 15.48 85.2421 15.48ZM85.3541 11.576C85.7274 11.2027 86.0901 10.776 86.4421 10.296C86.7941 9.80533 87.1194 9.29867 87.4181 8.776C87.7274 8.25333 87.9994 7.74667 88.2341 7.256C88.4687 6.76533 88.6501 6.328 88.7781 5.944C88.9061 5.54933 88.9701 5.24533 88.9701 5.032C88.9701 4.92533 88.9541 4.856 88.9221 4.824C88.9007 4.792 88.8794 4.776 88.8581 4.776C88.7727 4.776 88.6234 4.91467 88.4101 5.192C88.2074 5.45867 87.9674 5.82133 87.6901 6.28C87.4127 6.73867 87.1301 7.26133 86.8421 7.848C86.5541 8.43467 86.2767 9.048 86.0101 9.688C85.7541 10.328 85.5354 10.9573 85.3541 11.576ZM88.7993 15.512C88.3406 15.512 88.0153 15.368 87.8233 15.08C87.6313 14.8027 87.5353 14.4613 87.5353 14.056C87.5353 13.7253 87.5886 13.384 87.6953 13.032C87.802 12.68 87.9406 12.3493 88.1113 12.04C88.2926 11.7307 88.49 11.48 88.7033 11.288C88.9273 11.096 89.1513 11 89.3753 11C89.4286 11 89.482 11.0107 89.5353 11.032C89.5993 11.0427 89.658 11.0587 89.7113 11.08C89.6153 11.1653 89.498 11.3253 89.3593 11.56C89.2313 11.784 89.1086 12.0453 88.9913 12.344C88.874 12.632 88.7726 12.92 88.6873 13.208C88.6126 13.496 88.5753 13.7413 88.5753 13.944C88.5753 14.264 88.6286 14.4987 88.7353 14.648C88.842 14.7867 88.9806 14.856 89.1513 14.856C89.3753 14.856 89.642 14.7387 89.9513 14.504C90.2606 14.2587 90.5646 13.9493 90.8633 13.576C90.5646 13.3307 90.33 13.0107 90.1593 12.616C89.9993 12.2107 89.9193 11.8 89.9193 11.384C89.9193 11.032 89.978 10.7013 90.0953 10.392C90.2233 10.0827 90.4046 9.83733 90.6393 9.656C90.874 9.464 91.1566 9.368 91.4873 9.368C91.9246 9.368 92.218 9.48533 92.3673 9.72C92.5166 9.95467 92.5913 10.248 92.5913 10.6C92.5913 11.016 92.49 11.48 92.2873 11.992C92.0846 12.4933 91.8286 12.9787 91.5193 13.448C91.7113 13.5547 91.914 13.608 92.1273 13.608C92.298 13.608 92.49 13.576 92.7033 13.512C92.9166 13.4373 93.1246 13.3147 93.3273 13.144C93.5406 12.9733 93.7113 12.744 93.8393 12.456L94.0313 12.616C93.818 13.1173 93.514 13.4747 93.1193 13.688C92.7353 13.8907 92.3673 13.992 92.0153 13.992C91.8766 13.992 91.7433 13.9813 91.6153 13.96C91.4873 13.928 91.3646 13.8853 91.2473 13.832C90.8846 14.312 90.4846 14.712 90.0473 15.032C89.6206 15.352 89.2046 15.512 88.7993 15.512ZM91.1513 13.16C91.418 12.7653 91.6366 12.3547 91.8073 11.928C91.9886 11.4907 92.0793 11.08 92.0793 10.696C92.0793 10.3867 92.0313 10.1627 91.9353 10.024C91.85 9.87467 91.738 9.8 91.5993 9.8C91.386 9.8 91.1673 9.95467 90.9433 10.264C90.7193 10.5733 90.6073 10.9627 90.6073 11.432C90.6073 11.7413 90.65 12.056 90.7353 12.376C90.8313 12.6853 90.97 12.9467 91.1513 13.16ZM98.7071 15.32C98.3337 15.32 98.0511 15.224 97.8591 15.032C97.6777 14.84 97.5871 14.5947 97.5871 14.296C97.5871 14.072 97.6244 13.8373 97.6991 13.592C97.7844 13.3467 97.8644 13.096 97.9391 12.84C98.0137 12.5733 98.0511 12.3173 98.0511 12.072C98.0511 11.7733 97.9871 11.5707 97.8591 11.464C97.7417 11.3467 97.5924 11.288 97.4111 11.288C97.0804 11.288 96.7444 11.4267 96.4031 11.704C96.0617 11.9707 95.7311 12.3173 95.4111 12.744C95.0911 13.16 94.7924 13.592 94.5151 14.04C94.2377 14.488 93.9924 14.888 93.7791 15.24C93.6084 15.24 93.4484 15.208 93.2991 15.144C93.1391 15.0907 93.0164 15.0053 92.9311 14.888C92.9311 14.8347 92.9897 14.6693 93.1071 14.392C93.2137 14.1147 93.3417 13.7733 93.4911 13.368C93.6404 12.9627 93.7737 12.5467 93.8911 12.12C94.0084 11.6933 94.0671 11.304 94.0671 10.952C94.1311 10.8773 94.2324 10.8027 94.3711 10.728C94.5097 10.6533 94.6537 10.616 94.8031 10.616C95.0911 10.616 95.2351 10.7547 95.2351 11.032C95.2351 11.2027 95.1871 11.4907 95.0911 11.896C94.9951 12.2907 94.8724 12.7067 94.7231 13.144C95.0111 12.7067 95.3311 12.2747 95.6831 11.848C96.0457 11.4107 96.4297 11.048 96.8351 10.76C97.2404 10.472 97.6457 10.328 98.0511 10.328C98.4671 10.328 98.7657 10.4773 98.9471 10.776C99.1391 11.0747 99.2351 11.4053 99.2351 11.768C99.2351 12.0987 99.1817 12.408 99.0751 12.696C98.9684 12.9733 98.8564 13.2453 98.7391 13.512C98.6324 13.768 98.5791 14.0293 98.5791 14.296C98.5791 14.52 98.6217 14.68 98.7071 14.776C98.8031 14.8613 98.9204 14.904 99.0591 14.904C99.3257 14.904 99.5924 14.7813 99.8591 14.536C100.126 14.28 100.382 13.96 100.627 13.576C100.883 13.192 101.107 12.8027 101.299 12.408L101.475 12.616C101.251 13.1387 101 13.6027 100.723 14.008C100.446 14.4133 100.142 14.7333 99.8111 14.968C99.4804 15.2027 99.1124 15.32 98.7071 15.32Z" fill="#80C4CE"/>
</svg>
