<svg width="139" height="59" viewBox="0 0 139 59" fill="none" xmlns="http://www.w3.org/2000/svg">
<g clip-path="url(#clip0_200_22)">
<path d="M27.3135 44.1847C27.1927 43.0753 26.7901 42.1609 26.1058 41.4413C25.3276 40.6078 24.2762 40.1947 22.9513 40.2021C21.8842 40.208 21.0411 40.5565 20.4219 41.2475C19.9236 41.7946 19.6766 42.4512 19.6809 43.2175C19.6882 44.5281 20.6498 45.5182 22.5658 46.1878L23.1147 46.3781C25.4397 47.2102 26.9409 48.0039 27.6184 48.7593C28.2526 49.4719 28.5724 50.326 28.578 51.3214C28.5864 52.8253 27.9841 53.9817 26.7712 54.7906C25.8864 55.3756 24.8317 55.6716 23.6071 55.6784C22.2679 55.6859 21.0198 55.3312 19.8627 54.6143C19.5321 54.3941 19.2736 54.2846 19.0874 54.2856C18.8225 54.2871 18.6918 54.6173 18.6955 55.2761L18.0187 55.2799L17.9901 50.1559L18.6239 50.1523C18.789 51.4978 19.2282 52.5589 19.9415 53.3355C20.8781 54.3258 22.0983 54.8167 23.6022 54.8083C24.5976 54.8027 25.3875 54.5262 25.9717 53.9786C26.5987 53.4093 26.9095 52.6377 26.9041 51.6638C26.9 50.9333 26.6314 50.2831 26.0982 49.7131C25.6156 49.2073 24.6098 48.6472 23.081 48.0327L22.661 47.8631C21.0606 47.249 20.0086 46.7536 19.5052 46.3768C18.5774 45.6801 18.1103 44.7517 18.1039 43.5916C18.0966 42.2953 18.5742 41.2578 19.5367 40.479C20.4136 39.7722 21.5289 39.4151 22.8824 39.4075C24.0569 39.401 25.2259 39.7095 26.3896 40.3333C26.6267 40.468 26.8025 40.5351 26.9171 40.5344C27.1248 40.5333 27.2378 40.239 27.256 39.6517L27.9435 39.6478L27.9688 44.181L27.3135 44.1847ZM36.4124 44.1876C37.8591 44.1795 39.0757 44.6633 40.0623 45.6389C41.1281 46.6929 41.6658 48.0757 41.6753 49.7873C41.6854 51.5991 41.1635 53.0344 40.1095 54.093C39.1266 55.0653 37.9154 55.5555 36.476 55.5636C35.0222 55.5717 33.8056 55.0951 32.8263 54.1337C31.7677 53.0868 31.2334 51.6754 31.2235 49.8994C31.2137 48.152 31.7429 46.7382 32.8112 45.6579C33.7726 44.6857 34.973 44.1956 36.4124 44.1876ZM36.4167 44.9503C35.3282 44.9564 34.457 45.4232 33.8033 46.3507C33.1638 47.2494 32.8481 48.4293 32.8563 49.8902C32.8649 51.43 33.2225 52.6383 33.9293 53.5152C34.5784 54.3352 35.4258 54.7423 36.4713 54.7364C37.7676 54.7292 38.724 54.1509 39.3407 53.0016C39.8154 52.0966 40.0495 51.0532 40.0429 49.8716C40.0342 48.3176 39.6765 47.0913 38.9696 46.1929C38.3061 45.3587 37.4551 44.9445 36.4167 44.9503ZM48.8813 55.1505L43.5424 55.1803L43.539 54.568C44.0116 54.5654 44.4124 54.5166 44.7413 54.4217C45.242 54.3114 45.4904 53.8947 45.4863 53.1714L45.4221 41.6772C45.4184 41.0112 45.2479 40.6111 44.9105 40.4769C44.688 40.3851 44.2115 40.3412 43.481 40.3453L43.4773 39.6685C44.6588 39.6404 45.7861 39.5231 46.8592 39.3166L46.9365 53.1633C46.9402 53.8293 47.1395 54.2364 47.5342 54.3846C47.8212 54.4904 48.2691 54.5416 48.8779 54.5382L48.8813 55.1505ZM60.4515 49.4676L52.1585 49.5139L52.1606 49.8899C52.1687 51.3365 52.6157 52.5085 53.5016 53.4059C54.2433 54.1323 55.1405 54.4925 56.1932 54.4866C57.7687 54.4778 58.9819 53.7083 59.8328 52.1781L60.4262 52.6368C59.4984 54.504 58.0033 55.4433 55.9408 55.4549C54.4083 55.4634 53.1415 54.9728 52.1405 53.9829C51.1393 52.9643 50.6339 51.5957 50.6243 49.877C50.6141 48.0508 51.1325 46.6084 52.1793 45.5498C53.0908 44.6065 54.2555 44.1309 55.6734 44.123C57.0484 44.1153 58.1645 44.5495 59.0216 45.4256C59.965 46.3585 60.4409 47.5734 60.4492 49.0701L60.4515 49.4676ZM58.9536 48.638C58.9036 47.3778 58.5329 46.4023 57.8415 45.7115C57.2439 45.1419 56.5154 44.8595 55.6561 44.8643C54.632 44.87 53.7823 45.3224 53.1069 46.2214C52.6235 46.8615 52.3309 47.6795 52.229 48.6756L58.9536 48.638ZM65.0687 39.4835C65.3838 39.4817 65.6494 39.5912 65.8655 39.812C66.0887 40.0328 66.2012 40.2972 66.2029 40.6051C66.207 41.3356 65.8331 41.7029 65.0811 41.7071C64.3507 41.7112 63.9834 41.348 63.9793 40.6175C63.9751 39.8656 64.3382 39.4875 65.0687 39.4835ZM67.7553 55.0451L62.5239 55.0743L62.5204 54.462C63.0002 54.4594 63.3939 54.4106 63.7013 54.3158C64.1876 54.1842 64.4287 53.7639 64.4247 53.0549L64.388 46.4806C64.3841 45.786 64.2064 45.3752 63.8548 45.2482C63.6323 45.1635 63.1701 45.1232 62.4683 45.1271L62.4646 44.4611C63.6604 44.4329 64.7805 44.3085 65.8249 44.0878L65.8749 53.0468C65.8786 53.7056 66.0491 54.1021 66.3865 54.2363C66.7167 54.3706 67.1718 54.4361 67.7519 54.4328L67.7553 55.0451ZM74.2328 55.0089L68.894 55.0388L68.8905 54.4265C69.3632 54.4238 69.764 54.375 70.0929 54.2801C70.5936 54.1699 70.8419 53.7531 70.8379 53.0298L70.7737 41.5357C70.77 40.8696 70.5994 40.4695 70.2621 40.3353C70.0396 40.2435 69.5631 40.1996 68.8326 40.2037L68.8288 39.5269C70.0103 39.4988 71.1377 39.3815 72.2108 39.175L72.2881 53.0217C72.2918 53.6877 72.491 54.0948 72.8857 54.243C73.1728 54.3488 73.6207 54.4 74.2294 54.3966L74.2328 55.0089ZM84.7122 44.4335L86.3772 44.4242L86.3639 42.0394L82.3141 42.062L82.1177 41.5153L86.3609 41.4916L86.3489 39.3539C85.3899 39.4738 84.1516 39.5917 82.634 39.7076L82.4805 39.1606C85.7584 38.7699 88.2333 38.219 89.9051 37.5078C90.7747 38.0401 91.2101 38.4208 91.2113 38.65C91.2121 38.7789 91.0799 38.844 90.815 38.8455C90.6144 38.8466 90.378 38.8193 90.1055 38.7636C89.3401 38.9254 88.4994 39.0697 87.5834 39.1966L87.5962 41.4847L89.8843 41.4719L90.801 40.1884C91.3123 40.694 91.7267 41.1608 92.0442 41.5888L91.7995 42.0091L87.5993 42.0325L87.6126 44.4173L89.2776 44.408L90.0247 43.5229C90.8661 44.1556 91.2873 44.5615 91.2883 44.7405C91.2888 44.8193 91.2319 44.8948 91.1177 44.9671L90.6361 45.2813L90.6584 49.2774L89.4875 49.2839L89.4827 48.4246L84.5628 48.452L84.5694 49.6444L83.377 49.6511L83.3445 43.8181C83.8971 44.037 84.353 44.2421 84.7122 44.4335ZM84.5434 44.9823L84.5597 47.9042L89.4796 47.8767L89.4633 44.9548L84.5434 44.9823ZM94.3337 39.9109L95.655 39.9035C95.8364 39.0431 95.9707 38.0827 96.0579 37.0222C97.4557 37.2579 98.1554 37.5154 98.157 37.7947C98.158 37.9738 97.8616 38.1294 97.268 38.2616C97.0771 38.7139 96.7651 39.2599 96.3318 39.8997L99.0603 39.8845L99.871 38.8702C100.741 39.5098 101.177 39.9371 101.178 40.152C101.179 40.2594 101.122 40.3492 101.008 40.4215L100.526 40.7572L100.575 49.555L99.3184 49.562L99.3118 48.3697L94.1233 48.3986L94.13 49.591L92.8946 49.5979L92.837 39.2854C93.684 39.6245 94.1829 39.8329 94.3337 39.9109ZM94.079 40.4602L94.0898 42.3938L99.2782 42.3648L99.2674 40.4312L94.079 40.4602ZM99.3087 47.8218L99.2958 45.5122L94.1073 45.5412L94.1202 47.8508L99.3087 47.8218ZM99.2928 44.9644L99.2813 42.9126L94.0928 42.9416L94.1043 44.9934L99.2928 44.9644ZM91.3569 49.3165C93.6032 50.1633 94.7293 51.1095 94.7351 52.1551C94.7382 52.6994 94.4962 52.9729 94.0092 52.9756C93.6941 52.9774 93.4602 52.7674 93.3074 52.3457C92.9227 51.4168 92.1765 50.533 91.0689 49.6941L91.3569 49.3165ZM85.2638 50.8759L85.8019 51.0448C85.7606 52.6349 85.3991 53.944 84.7173 54.9719C84.2129 55.7052 83.7101 56.0732 83.2088 56.076C82.6216 56.0793 82.3264 55.8017 82.3233 55.2431C82.3217 54.9638 82.4673 54.7445 82.76 54.5853C84.0453 53.8978 84.8799 52.6613 85.2638 50.8759ZM97.6895 50.2694C99.0463 50.8419 100.189 51.5625 101.118 52.431C101.723 53.0292 102.027 53.6004 102.03 54.1447C102.033 54.7749 101.763 55.0915 101.219 55.0946C100.889 55.0964 100.623 54.8329 100.419 54.3041C99.9036 53.0394 98.8943 51.8347 97.3911 50.69L97.6895 50.2694ZM97.1207 52.2814C97.1271 53.4344 97.1885 54.1753 97.305 54.5041C97.421 54.7684 97.6581 54.8996 98.0162 54.8976C97.9484 55.5855 97.5962 55.9993 96.9596 56.1389C96.3731 56.2711 94.8337 56.3441 92.3415 56.3581C90.0499 56.3709 88.7458 56.26 88.4294 56.0254C88.1345 55.805 87.9853 55.3798 87.9818 54.7495L87.9563 50.1734C89.4103 50.2082 90.1382 50.3939 90.1401 50.7305C90.1412 50.9239 89.8343 51.1118 89.2194 51.2943L89.2368 54.4095C89.2603 54.7675 89.3761 54.9817 89.5841 55.0521C89.8711 55.1365 90.7737 55.1744 92.2919 55.1659C93.8961 55.157 94.9307 55.1154 95.3958 55.0412C95.7893 54.9745 96.0529 54.7295 96.1866 54.3062C96.3623 53.7108 96.4907 52.9761 96.5718 52.1019L97.1207 52.2814Z" fill="#80C4CE"/>
<path d="M2.26882 25.4577C2.43427 25.4568 2.55778 25.3527 2.61912 25.2283L4.33331 21.1032L5.19012 18.9889C5.4756 18.2634 5.76132 17.5794 6.04704 16.8953C6.86306 14.8847 7.22965 13.8692 7.53732 13.4125C8.1582 13.4918 8.79953 13.5296 9.39927 13.5262C10.2885 13.5212 11.177 13.3715 11.9604 12.9328C12.0428 12.8703 12.0834 12.7253 12.0827 12.6012C12.0816 12.4151 11.9771 12.2089 11.7082 12.2104C11.6462 12.2107 11.543 12.2527 11.4811 12.2737C10.9038 12.5872 10.2427 12.7149 9.39476 12.7197C8.40209 12.7252 7.28442 12.566 5.73199 12.3265C4.84191 12.1867 3.93116 12.047 3.14529 12.0514C1.82174 12.0588 0.335504 12.5634 0.343011 13.9077C0.347168 14.6522 0.930267 15.3728 1.57137 15.3692C1.84021 15.3677 2.04598 15.1804 2.04471 14.9529C2.04356 14.7461 1.89787 14.5815 1.69106 14.5826C1.33949 14.5846 1.15152 14.2548 1.14955 13.9032C1.14574 13.2207 2.01248 12.885 3.10855 12.8789C3.95646 12.8741 4.99129 13.0131 6.06773 13.1932L6.68884 13.3139C6.4431 13.7495 6.17852 14.5162 5.83145 15.3247L5.32148 16.5891C4.85195 17.6879 4.34198 18.9523 3.85235 20.1545C3.79134 20.341 3.66876 20.6105 3.60764 20.7763L1.89346 24.9014C1.85256 24.9844 1.85313 25.0878 1.85325 25.1085C1.85429 25.2946 2.02066 25.4591 2.26882 25.4577ZM7.98122 25.4879C8.93252 25.4826 9.81809 24.8158 10.4964 24.0675C10.6829 24.1285 10.8691 24.1482 11.0966 24.1469C12.172 24.1409 13.1184 23.267 13.9816 22.2901C14.0433 22.2278 14.0841 22.1241 14.0835 22.0207C14.0825 21.8346 13.9778 21.6077 13.7089 21.6092C13.6055 21.6098 13.4817 21.6518 13.3994 21.735C12.4542 22.8364 11.7332 23.3368 11.1128 23.3402L11.0507 23.3406C11.6248 22.4481 12.1155 21.432 12.109 20.2738C12.1057 19.6741 11.9139 18.6618 11.0453 18.6666C9.76311 18.6738 9.09232 20.7664 9.09821 21.8211C9.1026 22.6069 9.35446 23.2673 9.77027 23.6579C9.31772 24.0948 8.61781 24.6778 7.97671 24.6813C7.4597 24.6842 7.20864 24.1686 7.20552 23.6102C7.19883 22.4108 8.05725 20.586 9.54071 19.585C9.66421 19.4809 9.72556 19.3565 9.72487 19.2324C9.72383 19.0463 9.53655 18.8405 9.30906 18.8418C9.24702 18.8421 9.14397 18.9048 9.04079 18.9467C7.28941 20.1146 6.39113 22.2084 6.39898 23.6147C6.40406 24.5247 6.88514 25.494 7.98122 25.4879ZM11.0498 19.4732C11.2773 19.4719 11.3012 20.0509 11.3026 20.299C11.3076 21.1883 10.817 22.2251 10.2837 23.014C9.97176 22.7055 9.90648 22.1268 9.90475 21.8166C9.90036 21.0307 10.3674 19.477 11.0498 19.4732ZM13.679 22.4159C13.7824 22.4153 13.8856 22.3734 13.9679 22.2902L14.4201 21.7914C14.1971 22.5992 14.0976 23.3029 14.1006 23.8406C14.105 24.6264 14.4612 25.4517 15.3091 25.447C16.4258 25.4407 18.3777 23.1342 19.0967 22.2616C19.1584 22.1992 19.2196 22.0541 19.2191 21.9714C19.2181 21.7852 19.0308 21.5795 18.8033 21.5807C18.6999 21.5813 18.5967 21.6233 18.5145 21.7064C17.3636 23.0158 15.8423 24.6374 15.3046 24.6404C14.9737 24.6423 14.8882 24.1464 14.8864 23.8155C14.8805 22.7608 15.5316 20.8545 16.0005 19.6317L18.2133 19.6193C18.4408 19.618 18.6259 19.4309 18.6246 19.2034C18.6233 18.9759 18.4363 18.8115 18.2088 18.8128L16.3062 18.8234L17.5305 15.8591C17.5713 15.7555 17.5707 15.6521 17.5705 15.6107C17.5694 15.4246 17.4442 15.2185 17.1753 15.22C17.0099 15.2209 16.8657 15.3251 16.8045 15.4703C16.8045 15.4703 16.498 16.1338 15.7027 18.165L15.3962 18.8285L14.1967 18.8352C13.9693 18.8364 13.7841 19.0029 13.7853 19.2304C13.7866 19.4579 13.9738 19.643 14.2013 19.6417L14.9664 19.6374C14.5566 20.3222 14.0847 20.9867 13.3857 21.7351C13.3034 21.8183 13.2626 21.9219 13.2632 22.0253C13.2644 22.2321 13.4309 22.4173 13.679 22.4159ZM22.9418 25.425C23.769 25.4204 24.941 24.1937 26.7293 22.219C26.7909 22.1566 26.8522 22.0115 26.8517 21.9287C26.8507 21.7426 26.684 21.516 26.4565 21.5173C26.3531 21.5179 26.291 21.5182 26.1471 21.6638C25.6539 22.225 23.5784 24.6149 22.9373 24.6185C22.6891 24.6199 22.543 24.3725 22.5414 24.083C22.5393 23.7107 22.7012 23.0687 22.9457 22.4262C23.6835 21.2226 24.3579 19.7711 24.5415 19.3151C24.5618 19.253 24.6029 19.1907 24.6024 19.108C24.6016 18.9632 24.4356 18.8607 24.3318 18.7993C24.2489 18.7584 23.7928 18.5748 23.1311 18.5785C20.608 18.5926 17.8939 21.4204 17.907 23.7573C17.9123 24.7086 18.4128 25.4503 19.4054 25.4448C20.3154 25.4397 21.1183 24.7941 21.7348 24.0875C21.7386 24.7699 22.1146 25.4296 22.9418 25.425ZM23.1149 19.3851C23.2597 19.3843 23.4252 19.4041 23.5494 19.4241C23.2218 20.005 22.6279 21.063 22.2201 22.0994L22.22 22.0787C21.6669 23.0331 20.4763 24.6322 19.3802 24.6383C18.9459 24.6408 18.7162 24.2284 18.7136 23.7735C18.7036 21.9742 20.9227 19.3974 23.1149 19.3851ZM27.556 25.3993C28.4246 25.3944 29.596 24.0643 30.5002 23.0252C30.7878 22.6926 31.0344 22.4017 31.24 22.1938C31.3017 22.1314 31.3631 22.007 31.3625 21.9035C31.3615 21.7174 31.2361 21.4906 30.9673 21.4921C30.8432 21.4928 30.7401 21.5554 30.6579 21.6386C30.4317 21.8674 30.1645 22.1791 29.8562 22.5117C29.0342 23.447 28.027 24.5694 27.6134 24.5717C27.2825 24.5735 27.2604 24.3048 27.2585 23.9739C27.2531 23.0019 27.8029 21.4684 28.1697 20.4944C29.7509 18.4795 32.0495 15.3024 32.8263 13.6849C32.9901 13.3738 33.0503 13.0425 33.0486 12.753C33.0459 12.2567 32.7946 11.6997 32.1742 11.7032C31.7399 11.7056 31.059 11.9989 30.2607 13.4718C29.9947 13.9903 29.0531 15.7328 27.4436 20.0848C26.8071 20.9156 26.3346 21.4766 26.1495 21.6638C26.0878 21.7262 26.047 21.8298 26.0476 21.9332C26.0488 22.14 26.2152 22.3252 26.4634 22.3238C26.5461 22.3234 26.6494 22.3021 26.7111 22.2397C26.5487 22.7784 26.4486 23.3787 26.4521 23.9991C26.4557 24.6402 26.7495 25.4038 27.556 25.3993ZM32.158 12.5098C32.22 12.5095 32.2414 12.6334 32.2421 12.7575C32.2429 12.9023 32.2028 13.13 32.1006 13.3374C31.6099 14.3535 30.4408 16.0973 29.2299 17.7585C29.7397 16.4734 30.3312 14.9811 30.966 13.8608C31.5394 12.8442 31.9512 12.511 32.158 12.5098ZM38.3899 25.3388C39.3826 25.3332 40.3294 24.5214 41.0264 23.4214C41.2543 23.5028 41.482 23.5429 41.7302 23.5415C42.6402 23.5364 43.3807 22.8291 44.0179 22.1224C44.0796 22.06 44.1408 21.9149 44.1403 21.8115C44.1392 21.6254 44.0347 21.4192 43.7451 21.4208C43.6417 21.4213 43.518 21.4841 43.4357 21.5673C42.7574 22.3156 42.2427 22.7321 41.7257 22.735C41.643 22.7354 41.5188 22.7154 41.4153 22.6953C41.804 21.9486 42.1094 21.0783 42.1043 20.1684C42.1011 19.5893 41.9508 18.5975 41.0822 18.6023C39.9861 18.6084 39.5811 20.1411 39.5853 20.9063C39.5893 21.6094 39.801 22.4975 40.3208 22.991C39.7674 23.8834 39.0678 24.5284 38.4061 24.5321C37.8684 24.5351 37.5769 24.1851 37.5732 23.5234C37.5691 22.7995 37.8113 21.7228 38.3816 20.1478C39.4507 19.025 41.8748 16.0955 42.9601 14.166C43.2466 13.6267 43.3474 13.1505 43.3456 12.8403C43.3424 12.2612 42.8845 11.7468 42.2641 11.7502C42.1607 11.7508 42.078 11.7513 41.9129 11.8142L41.9335 11.7934C41.2524 12.0454 40.4932 13.1251 39.4105 15.5301C38.8182 16.857 38.2262 18.246 37.6556 19.7589C36.6899 20.9018 33.629 24.5795 33.629 24.5795C33.5673 24.6418 33.5265 24.7455 33.5271 24.8489C33.5281 25.035 33.6535 25.2618 33.9223 25.2603C34.005 25.2598 34.1289 25.2178 34.2111 25.1346C35.1563 24.0332 36.0805 22.8699 37.0256 21.7478C36.8435 22.4727 36.764 23.0522 36.7666 23.5279C36.7725 24.5826 37.2731 25.345 38.3899 25.3388ZM42.2892 12.536C42.3926 12.5354 42.5379 12.638 42.5391 12.8448C42.5445 13.8168 40.7378 16.1845 39.2378 17.9301C39.8291 16.4171 40.9116 13.9707 41.7743 12.9111C41.9591 12.6826 42.1444 12.5368 42.2892 12.536ZM41.0867 19.4089C41.2728 19.4078 41.2967 19.9868 41.2979 20.1936C41.3017 20.876 41.0575 21.5805 40.7511 22.2647C40.4803 21.9147 40.3946 21.3981 40.392 20.9225C40.3897 20.5089 40.5697 19.4117 41.0867 19.4089ZM44.7404 25.324C46.0433 25.3167 47.877 24.0863 49.6031 22.0912C49.6441 22.0289 49.7055 21.9045 49.705 21.8218C49.7041 21.6563 49.5993 21.4088 49.3305 21.4103C49.2271 21.4108 49.1032 21.4529 49.0209 21.5361C47.2741 23.5106 45.6045 24.5126 44.6945 24.5177C44.0948 24.521 43.8236 24.1089 43.8202 23.4885C43.8182 23.1369 43.8784 22.8057 43.9796 22.4122C46.4994 21.819 47.7956 20.6123 47.7901 19.6196C47.7864 18.9578 47.3084 18.5469 46.5846 18.5509C44.682 18.5615 43.0034 21.6524 43.0134 23.4516C43.0189 24.4443 43.4996 25.3309 44.7404 25.324ZM46.5891 19.3574C46.7338 19.3566 46.9824 19.4173 46.9834 19.6034C46.9862 20.0998 46.2878 20.9516 44.326 21.4796C44.7553 20.5879 45.6585 19.3626 46.5891 19.3574ZM53.4578 25.2546C54.285 25.25 55.457 24.0232 57.2453 22.0485C57.3069 21.9862 57.3682 21.841 57.3677 21.7583C57.3667 21.5722 57.2 21.3456 56.9725 21.3469C56.8691 21.3475 56.807 21.3478 56.6631 21.4934C56.1699 22.0545 54.0944 24.4445 53.4533 24.4481C53.2051 24.4494 53.059 24.2021 53.0574 23.9126C53.0553 23.5403 53.2172 22.8983 53.4617 22.2558C54.1995 21.0522 54.8739 19.6007 55.0575 19.1447C55.0778 19.0825 55.1189 19.0203 55.1184 18.9376C55.1176 18.7928 54.9516 18.6903 54.8478 18.6288C54.7649 18.5879 54.3088 18.4044 53.6471 18.4081C51.124 18.4221 48.4099 21.25 48.423 23.5869C48.4283 24.5382 48.9288 25.2799 49.9214 25.2744C50.8314 25.2693 51.6343 24.6237 52.2508 23.9171C52.2546 24.5995 52.6306 25.2592 53.4578 25.2546ZM53.6309 19.2147C53.7757 19.2139 53.9412 19.2337 54.0654 19.2537C53.7378 19.8346 53.1439 20.8926 52.7361 21.929L52.736 21.9083C52.1829 22.8627 50.9923 24.4618 49.8962 24.4679C49.4619 24.4704 49.2322 24.058 49.2296 23.603C49.2196 21.8038 51.4387 19.227 53.6309 19.2147ZM61.505 25.2097C62.4563 25.2044 63.7098 23.7703 64.5933 22.7314C64.8399 22.4404 65.0867 22.1909 65.2717 22.0037C65.3334 21.9413 65.3948 21.8169 65.3942 21.7135C65.3932 21.5274 65.2059 21.3216 64.9784 21.3229C64.875 21.3235 64.7718 21.3654 64.6896 21.4486C63.3742 22.9243 62.0175 24.4002 61.5212 24.403C61.4591 24.4034 61.4381 24.3414 61.4375 24.238C61.4344 23.6796 62.1076 22.0214 62.5364 21.0263C62.8017 20.4044 63.0254 19.7206 63.2705 19.1609C63.3318 19.0365 63.352 18.9536 63.3516 18.8709C63.3508 18.7261 63.2461 18.4992 62.9359 18.501C62.7704 18.5019 62.6471 18.6267 62.5857 18.7511C62.033 19.7675 60.803 21.7185 59.6316 23.0486C58.9738 23.7554 58.274 24.3591 57.7776 24.3619C57.6535 24.3626 57.591 24.2802 57.5901 24.1147C57.587 23.5564 57.9743 22.5408 58.4232 21.4629L59.1375 19.7424C59.219 19.5351 59.3008 19.3692 59.3622 19.2448C59.4237 19.141 59.4436 19.0168 59.4435 18.9961C59.4424 18.7893 59.2963 18.5626 59.0688 18.5639C58.7586 18.5656 58.6978 18.7728 58.5749 19.001C58.2885 19.561 57.8166 20.2254 56.7069 21.4932C56.6452 21.5555 56.5839 21.7007 56.5844 21.7834C56.5856 21.9902 56.7107 22.1756 56.9795 22.1741C57.1036 22.1734 57.2068 22.1315 57.3302 22.0067C56.963 22.9187 56.7806 23.5815 56.7835 24.0986C56.785 24.3674 56.8276 24.5947 56.9527 24.7801C57.0777 24.9449 57.3065 25.1711 57.8028 25.1683C58.5058 25.1437 59.4325 24.4354 60.1726 23.6453C60.4399 23.3543 60.748 22.9803 61.015 22.6479C60.8114 23.2281 60.6288 23.8496 60.6309 24.2218C60.6332 24.6355 60.8207 24.8826 60.9661 25.0059C61.0908 25.1086 61.2568 25.2111 61.505 25.2097ZM64.9564 22.1296C65.0598 22.129 65.163 22.0871 65.2452 22.0039L65.6975 21.505C65.4745 22.3128 65.375 23.0165 65.378 23.5542C65.3824 24.3401 65.7386 25.1653 66.5865 25.1606C67.7032 25.1544 69.6551 22.8479 70.374 21.9752C70.4357 21.9128 70.497 21.7677 70.4965 21.685C70.4955 21.4989 70.3082 21.2931 70.0807 21.2944C69.9773 21.295 69.8741 21.3369 69.7919 21.4201C68.641 22.7294 67.1197 24.3511 66.582 24.3541C66.2511 24.3559 66.1656 23.86 66.1637 23.5291C66.1579 22.4744 66.809 20.5681 67.2778 19.3453L69.4907 19.333C69.7182 19.3317 69.9032 19.1445 69.902 18.917C69.9007 18.6895 69.7137 18.5251 69.4862 18.5264L67.5836 18.537L68.8079 15.5728C68.8487 15.4692 68.8481 15.3657 68.8478 15.3244C68.8468 15.1383 68.7216 14.9321 68.4527 14.9336C68.2873 14.9346 68.1431 15.0388 68.0819 15.1839C68.0819 15.1839 67.7753 15.8474 66.9801 17.8786L66.6736 18.5421L65.4741 18.5488C65.2466 18.5501 65.0614 18.7166 65.0627 18.9441C65.064 19.1715 65.2511 19.3566 65.4786 19.3554L66.2438 19.3511C65.834 20.0359 65.3621 20.7003 64.6631 21.4487C64.5808 21.5319 64.54 21.6355 64.5406 21.7389C64.5418 21.9458 64.7082 22.131 64.9564 22.1296ZM71.793 31.3773C73.0338 31.3703 73.833 30.0423 74.3436 28.902C74.5273 28.4666 74.7316 28.0105 75.6897 25.5234C77.2769 24.5839 78.9254 23.4992 80.3022 21.9198C80.3432 21.8575 80.4045 21.7331 80.4041 21.6504C80.403 21.4642 80.2984 21.2373 80.0295 21.2388C79.9054 21.2395 79.8023 21.2815 79.72 21.3646C78.3223 22.9029 77.4159 23.549 76.1998 24.2797C76.8118 22.7665 77.2403 21.7301 78.0966 19.5331C78.1374 19.4294 78.1574 19.3052 78.1571 19.2432C78.1558 19.0157 77.9893 18.8305 77.7618 18.8318C77.6171 18.8326 77.4522 18.9369 77.3908 19.0613C76.2846 20.9495 73.7593 24.2519 72.7252 24.2577C72.6632 24.2581 72.6212 24.1549 72.6207 24.0515C72.6185 23.6586 72.9037 22.8918 73.311 21.752C73.6166 20.9231 73.881 20.1357 73.8777 19.536C73.8748 19.0189 73.6442 18.4618 72.9411 18.4658C72.2379 18.4697 71.5189 19.3423 69.7728 21.4409C69.7109 21.4826 69.6497 21.6277 69.6503 21.7311C69.6514 21.9379 69.756 22.1441 70.0455 22.1425C70.1696 22.1418 70.2314 22.1001 70.252 22.0793L71.0121 21.1651C71.6899 20.3341 72.5525 19.2538 72.9248 19.2517C73.0282 19.2512 73.0703 19.3957 73.0711 19.5405C73.0737 19.9954 72.7681 20.8244 72.524 21.5496C72.2389 22.3578 71.8101 23.3322 71.8144 24.0973C71.8172 24.6144 72.0678 25.0473 72.7296 25.0436C73.7016 25.0381 75.0998 23.5827 76.1062 22.3362C75.6985 23.3932 75.6172 23.6418 75.0662 24.9685C74.1799 25.5111 73.0262 26.3035 72.0794 27.1153C71.3179 27.7814 70.3512 28.7381 70.3577 29.8962C70.362 30.6614 70.9657 31.3819 71.793 31.3773ZM74.515 26.2538C74.1276 27.2487 73.8834 27.9739 73.5975 28.6166C73.0459 29.8399 72.4916 30.5668 71.8091 30.5706C71.4369 30.5727 71.1663 30.264 71.1641 29.871C71.1602 29.1679 71.9 28.3158 72.5791 27.7123C73.1552 27.192 73.8556 26.6918 74.515 26.2538ZM86.4126 25.236C88.2946 25.2255 90.2903 23.3737 91.6054 21.8567C91.6671 21.7943 91.7078 21.67 91.7072 21.5666C91.7062 21.3804 91.5809 21.1743 91.3121 21.1758C91.2294 21.1763 91.1055 21.2183 91.0232 21.3015C90.3039 22.1121 89.2342 23.1315 88.3277 23.757C88.4494 23.322 88.488 22.8254 88.4852 22.3291C88.483 21.9361 88.4394 21.5434 88.4166 21.1506C88.3728 20.7166 88.3497 20.2824 88.347 19.8067C88.3451 19.4552 88.3432 19.1243 88.4457 18.9582C88.5686 18.7507 88.7538 18.5843 88.753 18.4395C88.752 18.2534 88.6059 18.0267 88.3785 18.028C88.0889 18.0296 87.8838 18.3409 87.7813 18.4863C87.2481 19.2958 86.468 20.3343 85.7078 21.2278C85.1735 21.8512 83.755 23.3689 82.9327 24.2628C82.8916 24.3043 82.8304 24.4495 82.8306 24.4908C82.8316 24.6769 82.8742 24.8835 83.102 24.9443C83.2677 24.9847 83.4121 24.9219 83.5355 24.7971L84.1113 24.2148C84.6936 24.7906 85.544 25.2409 86.4126 25.236ZM86.4907 24.4083C85.7669 24.4124 85.1861 24.1054 84.7078 23.6324C85.4274 22.8632 85.6533 22.5931 85.9205 22.2813C86.7012 21.367 87.1739 20.8267 87.5227 20.3284C87.5214 20.1009 87.5665 20.7624 87.5885 21.0105C87.6323 21.4445 87.6762 21.8993 87.6789 22.3749C87.6852 23.5124 87.4214 24.4031 86.4907 24.4083ZM95.4451 25.0201C96.2723 25.0155 97.4443 23.7888 99.2325 21.8141C99.2942 21.7517 99.3554 21.6066 99.355 21.5238C99.3539 21.3377 99.1872 21.1112 98.9597 21.1124C98.8563 21.113 98.7943 21.1133 98.6503 21.2589C98.1571 21.8201 96.0817 24.21 95.4406 24.2136C95.1924 24.215 95.0463 23.9676 95.0446 23.6781C95.0426 23.3058 95.2044 22.6638 95.449 22.0213C96.1868 20.8177 96.8612 19.3662 97.0448 18.9102C97.0651 18.8481 97.1061 18.7858 97.1057 18.7031C97.1049 18.5583 96.9388 18.4558 96.8351 18.3944C96.7521 18.3535 96.2961 18.1699 95.6343 18.1736C93.1113 18.1877 90.3972 21.0155 90.4102 23.3524C90.4155 24.3037 90.916 25.0454 91.9087 25.0399C92.8186 25.0348 93.6216 24.3892 94.2381 23.6826C94.2419 24.365 94.6179 25.0247 95.4451 25.0201ZM95.6182 18.9802C95.7629 18.9794 95.9285 18.9992 96.0527 19.0192C95.725 19.6001 95.1312 20.6581 94.7233 21.6945L94.7232 21.6738C94.1702 22.6282 92.9796 24.2273 91.8835 24.2334C91.4492 24.2359 91.2194 23.8235 91.2169 23.3686C91.2068 21.5693 93.426 18.9925 95.6182 18.9802ZM100.059 24.9944C100.928 24.9895 102.099 23.6594 103.003 22.6203C103.291 22.2877 103.538 21.9968 103.743 21.7889C103.805 21.7265 103.866 21.6021 103.866 21.4987C103.865 21.3125 103.739 21.0857 103.471 21.0872C103.346 21.0879 103.243 21.1505 103.161 21.2337C102.935 21.4625 102.668 21.7742 102.359 22.1068C101.537 23.0421 100.53 24.1645 100.117 24.1668C99.7858 24.1686 99.7636 23.8999 99.7618 23.569C99.7564 22.597 100.306 21.0635 100.673 20.0895C102.254 18.0746 104.553 14.8975 105.33 13.28C105.493 12.9689 105.554 12.6377 105.552 12.3481C105.549 11.8518 105.298 11.2948 104.677 11.2983C104.243 11.3007 103.562 11.594 102.764 13.0669C102.498 13.5854 101.556 15.3279 99.9469 19.6799C99.3104 20.5107 98.8379 21.0717 98.6528 21.2589C98.5911 21.3213 98.5503 21.4249 98.5509 21.5283C98.552 21.7351 98.7185 21.9203 98.9667 21.919C99.0494 21.9185 99.1527 21.8972 99.2144 21.8348C99.0519 22.3735 98.9519 22.9738 98.9554 23.5942C98.9589 24.2353 99.2527 24.9989 100.059 24.9944ZM104.661 12.1049C104.723 12.1046 104.745 12.2285 104.745 12.3526C104.746 12.4974 104.706 12.7251 104.604 12.9325C104.113 13.9486 102.944 15.6924 101.733 17.3536C102.243 16.0685 102.834 14.5762 103.469 13.4559C104.043 12.4393 104.454 12.1061 104.661 12.1049ZM104.356 24.9497C105.307 24.9444 106.193 24.2776 106.871 23.5293C107.058 23.5903 107.244 23.61 107.471 23.6087C108.547 23.6027 109.493 22.7288 110.356 21.7519C110.418 21.6896 110.459 21.5859 110.458 21.4825C110.457 21.2964 110.353 21.0695 110.084 21.071C109.98 21.0716 109.857 21.1136 109.774 21.1968C108.829 22.2982 108.108 22.7986 107.488 22.802L107.426 22.8024C108 21.9099 108.49 20.8938 108.484 19.7356C108.481 19.1359 108.289 18.1236 107.42 18.1284C106.138 18.1356 105.467 20.2282 105.473 21.2829C105.477 22.0687 105.729 22.7291 106.145 23.1197C105.693 23.5566 104.993 24.1396 104.352 24.1431C103.835 24.146 103.583 23.6304 103.58 23.072C103.574 21.8725 104.432 20.0478 105.916 19.0468C106.039 18.9427 106.1 18.8183 106.1 18.6942C106.099 18.5081 105.911 18.3023 105.684 18.3036C105.622 18.3039 105.519 18.3666 105.416 18.4085C103.664 19.5764 102.766 21.6702 102.774 23.0765C102.779 23.9865 103.26 24.9558 104.356 24.9497ZM107.425 18.935C107.652 18.9337 107.676 19.5127 107.677 19.7608C107.682 20.6501 107.192 21.6869 106.659 22.4758C106.347 22.1673 106.281 21.5886 106.28 21.2784C106.275 20.4925 106.742 18.9388 107.425 18.935ZM111.601 24.8265C111.704 24.8259 111.89 24.8042 111.972 24.659L112.3 24.0574C112.709 23.3106 113.467 22.0034 114.227 21.0272C115.069 19.9677 116.118 18.9898 117.028 18.9848C117.152 18.9841 117.235 19.0043 117.236 19.1697C117.239 19.6867 116.769 20.6821 116.421 21.4492C115.972 22.4444 115.543 23.3568 115.546 23.9772C115.548 24.3908 115.82 24.865 116.44 24.8615C117.495 24.8556 119.098 23.0681 120.311 21.6964C120.352 21.6341 120.413 21.5096 120.413 21.4269C120.411 21.1994 120.286 21.014 120.017 21.0155C119.914 21.0161 119.79 21.0788 119.729 21.1412C118.537 22.4921 117.118 24.0512 116.457 24.0549C116.394 24.0552 116.353 24.0141 116.352 23.9314C116.35 23.4764 116.779 22.502 117.147 21.7761C117.433 21.1954 118.046 19.8684 118.042 19.0618C118.039 18.5034 117.603 18.175 117.023 18.1782C115.927 18.1843 114.857 19.0176 113.87 20.1812C113.992 19.7876 114.052 19.415 114.051 19.1875C114.048 18.7119 113.735 18.1552 113.135 18.1586C112.866 18.1601 112.536 18.286 112.227 18.5152C111.733 18.8902 110.459 20.3657 109.761 21.1969C109.699 21.2593 109.638 21.4044 109.638 21.4871C109.639 21.6939 109.826 21.879 110.054 21.8777C110.157 21.8771 110.281 21.8351 110.363 21.7312C111.267 20.6921 112.336 19.4453 112.707 19.1743C112.913 19.0284 113.057 18.9656 113.14 18.9651C113.202 18.9648 113.223 19.0681 113.224 19.1715C113.229 20.04 112.105 22.5487 111.307 24.0423C111.205 24.2496 111.184 24.3118 111.185 24.4152C111.186 24.6634 111.311 24.8281 111.601 24.8265Z" fill="#80C4CE"/>
<path d="M126.62 12.29C126.68 12.31 126.75 12.3 126.81 12.27L133.85 8.36002C133.97 8.29002 134.02 8.14002 133.95 8.01002C133.88 7.89002 133.73 7.84002 133.6 7.91002L126.56 11.82C126.44 11.89 126.39 12.04 126.46 12.17C126.49 12.23 126.55 12.27 126.62 12.29Z" fill="#80C4CE"/>
<path d="M125.21 10.7C125.3 10.72 125.39 10.7 125.46 10.63L129.74 6.28C129.84 6.18 129.84 6.02 129.74 5.92C129.64 5.82 129.48 5.82 129.38 5.92L125.1 10.27C125 10.37 125 10.53 125.1 10.63C125.12 10.67 125.16 10.69 125.21 10.7Z" fill="#80C4CE"/>
<path d="M118.12 8.44C118.16 8.45 118.2 8.45 118.24 8.44C118.38 8.41 118.46 8.26999 118.43 8.13999L116.52 -0.110004C116.49 -0.250004 116.35 -0.330005 116.22 -0.300005C116.08 -0.270005 116 -0.130005 116.03 -4.82798e-06L117.94 8.25C117.96 8.35 118.04 8.42 118.12 8.44Z" fill="#80C4CE"/>
<path d="M134.94 7.69001C135 7.71001 135.07 7.70001 135.13 7.66001L138.86 5.52001C138.98 5.45001 139.02 5.29001 138.95 5.17001C138.88 5.05001 138.73 5.01001 138.6 5.08001L134.87 7.22001C134.75 7.29001 134.71 7.45001 134.78 7.57001C134.82 7.64001 134.88 7.68001 134.94 7.69001Z" fill="#80C4CE"/>
<path d="M127.86 15.75C127.88 15.75 127.89 15.76 127.91 15.76L135.24 16.17C135.38 16.18 135.5 16.07 135.51 15.93C135.52 15.79 135.41 15.67 135.27 15.66L127.94 15.25C127.8 15.24 127.68 15.35 127.67 15.49C127.66 15.61 127.74 15.72 127.86 15.75Z" fill="#80C4CE"/>
<path d="M137.54 16.28C137.56 16.28 137.57 16.29 137.59 16.29L140.12 16.47C140.26 16.48 140.38 16.37 140.39 16.23C140.4 16.09 140.29 15.97 140.15 15.96L137.62 15.78C137.48 15.77 137.36 15.88 137.35 16.02C137.35 16.14 137.43 16.25 137.54 16.28Z" fill="#80C4CE"/>
<path d="M127.65 13.97C127.69 13.98 127.73 13.98 127.78 13.97L134.81 12.12C134.95 12.08 135.03 11.95 134.99 11.81C134.95 11.67 134.82 11.59 134.68 11.63L127.65 13.48C127.51 13.52 127.43 13.65 127.47 13.79C127.49 13.88 127.56 13.95 127.65 13.97Z" fill="#80C4CE"/>
<path d="M123.54 9.37002C123.66 9.40002 123.79 9.34002 123.84 9.22002L128.29 -1.20998C128.35 -1.33998 128.29 -1.48998 128.16 -1.53998C128.03 -1.59998 127.88 -1.52998 127.83 -1.40998L123.38 9.02002C123.32 9.15002 123.38 9.30002 123.51 9.35002C123.52 9.37002 123.53 9.37002 123.54 9.37002Z" fill="#80C4CE"/>
<path d="M121.14 8.55001C121.16 8.56001 121.18 8.56001 121.2 8.56001C121.34 8.56001 121.46 8.45001 121.46 8.31001L121.57 0.210012C121.57 0.0700124 121.46 -0.0499878 121.32 -0.0499878C121.18 -0.0499878 121.06 0.0600122 121.06 0.200012L120.95 8.30001C120.94 8.42001 121.02 8.52001 121.14 8.55001Z" fill="#80C4CE"/>
<path d="M115.69 8.65999C115.75 8.67999 115.81 8.66999 115.87 8.63999C115.99 8.57999 116.04 8.41999 115.98 8.29999L112.31 1.07999C112.25 0.949995 112.09 0.909995 111.97 0.969995C111.85 1.02999 111.8 1.18999 111.86 1.30999L115.53 8.53C115.56 8.6 115.62 8.63999 115.69 8.65999Z" fill="#80C4CE"/>
</g>
<defs>
<clipPath id="clip0_200_22">
<rect width="139" height="58.5463" fill="white"/>
</clipPath>
</defs>
</svg>
