<svg width="140" height="61" viewBox="0 0 140 61" fill="none" xmlns="http://www.w3.org/2000/svg">
<g clip-path="url(#clip0_200_3)">
<path d="M2.12454 30.4623C2.28998 30.4614 2.41349 30.3573 2.47484 30.2329L4.18902 26.1077L5.04583 23.9935C5.33132 23.268 5.61703 22.5839 5.90275 21.8999C6.71877 19.8892 7.08536 18.8738 7.39303 18.4171C8.01391 18.4964 8.65524 18.5341 9.25498 18.5308C10.1442 18.5258 11.0327 18.3761 11.8161 17.9374C11.8985 17.8749 11.9391 17.7299 11.9384 17.6058C11.9373 17.4197 11.8328 17.2135 11.5639 17.215C11.5019 17.2153 11.3987 17.2573 11.3368 17.2783C10.7595 17.5917 10.0984 17.7195 9.25047 17.7242C8.25781 17.7298 7.14013 17.5706 5.5877 17.3311C4.69762 17.1913 3.78687 17.0516 3.00101 17.056C1.67745 17.0634 0.191217 17.568 0.198724 18.9123C0.202881 19.6568 0.78598 20.3774 1.42708 20.3738C1.69593 20.3723 1.90169 20.185 1.90042 19.9575C1.89927 19.7507 1.75358 19.5861 1.54677 19.5872C1.1952 19.5892 1.00723 19.2593 1.00527 18.9078C1.00146 18.2253 1.86819 17.8896 2.96426 17.8834C3.81217 17.8787 4.84701 18.0177 5.92344 18.1978L6.54455 18.3184C6.29881 18.7541 6.03423 19.5208 5.68717 20.3293L5.1772 21.5937C4.70766 22.6924 4.19769 23.9568 3.70806 25.1591C3.64706 25.3456 3.52447 25.6151 3.46336 25.7809L1.74917 29.906C1.70827 29.989 1.70885 30.0924 1.70896 30.1131C1.71 30.2992 1.87637 30.4637 2.12454 30.4623ZM7.83693 30.4925C8.78824 30.4872 9.67381 29.8204 10.3521 29.0721C10.5386 29.1331 10.7248 29.1527 10.9523 29.1515C12.0277 29.1455 12.9742 28.2716 13.8373 27.2947C13.899 27.2323 13.9398 27.1287 13.9392 27.0253C13.9382 26.8392 13.8335 26.6123 13.5647 26.6138C13.4613 26.6143 13.3374 26.6564 13.2551 26.7396C12.31 27.841 11.5889 28.3413 10.9685 28.3448L10.9064 28.3452C11.4805 27.4527 11.9712 26.4365 11.9647 25.2784C11.9614 24.6787 11.7696 23.6664 10.901 23.6712C9.61883 23.6784 8.94803 25.7709 8.95392 26.8256C8.95831 27.6115 9.21017 28.2719 9.62598 28.6625C9.17343 29.0994 8.47352 29.6823 7.83243 29.6859C7.31541 29.6888 7.06436 29.1732 7.06124 28.6148C7.05454 27.4153 7.91296 25.5906 9.39642 24.5896C9.51993 24.4855 9.58128 24.3611 9.58058 24.237C9.57954 24.0509 9.39226 23.8451 9.16478 23.8464C9.10273 23.8467 8.99968 23.9093 8.89651 23.9513C7.14512 25.1192 6.24684 27.213 6.25469 28.6193C6.25978 29.5293 6.74086 30.4986 7.83693 30.4925ZM10.9055 24.4778C11.133 24.4765 11.1569 25.0554 11.1583 25.3036C11.1633 26.1929 10.6727 27.2297 10.1394 28.0185C9.82747 27.7101 9.7622 27.1314 9.76046 26.8211C9.75608 26.0353 10.2231 24.4816 10.9055 24.4778ZM13.5347 27.4205C13.6381 27.4199 13.7413 27.378 13.8236 27.2948L14.2758 26.7959C14.0528 27.6037 13.9533 28.3075 13.9563 28.8452C13.9607 29.631 14.3169 30.4563 15.1648 30.4515C16.2816 30.4453 18.2334 28.1388 18.9524 27.2662C19.0141 27.2038 19.0753 27.0587 19.0748 26.9759C19.0738 26.7898 18.8865 26.584 18.659 26.5853C18.5556 26.5859 18.4525 26.6278 18.3702 26.711C17.2194 28.0204 15.698 29.642 15.1603 29.645C14.8294 29.6468 14.7439 29.151 14.7421 28.8201C14.7362 27.7654 15.3873 25.8591 15.8562 24.6363L18.069 24.6239C18.2965 24.6226 18.4816 24.4355 18.4803 24.208C18.479 23.9805 18.292 23.8161 18.0645 23.8174L16.1619 23.828L17.3862 20.8637C17.427 20.7601 17.4264 20.6567 17.4262 20.6153C17.4251 20.4292 17.2999 20.2231 17.0311 20.2246C16.8656 20.2255 16.7214 20.3297 16.6602 20.4748C16.6602 20.4748 16.3537 21.1383 15.5584 23.1695L15.2519 23.8331L14.0525 23.8398C13.825 23.841 13.6398 24.0075 13.641 24.235C13.6423 24.4625 13.8295 24.6476 14.057 24.6463L14.8221 24.642C14.4123 25.3268 13.9404 25.9912 13.2414 26.7397C13.1591 26.8228 13.1184 26.9265 13.1189 27.0299C13.1201 27.2367 13.2866 27.4219 13.5347 27.4205ZM22.7975 30.4296C23.6247 30.425 24.7967 29.1982 26.585 27.2235C26.6467 27.1611 26.7079 27.016 26.7074 26.9333C26.7064 26.7472 26.5397 26.5206 26.3122 26.5219C26.2088 26.5225 26.1467 26.5228 26.0028 26.6684C25.5096 27.2295 23.4341 29.6195 22.793 29.6231C22.5448 29.6244 22.3987 29.3771 22.3971 29.0876C22.395 28.7153 22.5569 28.0733 22.8015 27.4308C23.5393 26.2272 24.2136 24.7757 24.3972 24.3197C24.4176 24.2575 24.4586 24.1953 24.4581 24.1125C24.4573 23.9678 24.2913 23.8653 24.1875 23.8038C24.1046 23.7629 23.6486 23.5794 22.9868 23.5831C20.4637 23.5971 17.7496 26.4249 17.7627 28.7619C17.768 29.7132 18.2685 30.4549 19.2611 30.4493C20.1711 30.4443 20.974 29.7987 21.5905 29.0921C21.5943 29.7745 21.9703 30.4342 22.7975 30.4296ZM22.9706 24.3897C23.1154 24.3889 23.2809 24.4087 23.4051 24.4286C23.0775 25.0095 22.4836 26.0676 22.0758 27.1039L22.0757 27.0833C21.5226 28.0377 20.332 29.6368 19.236 29.6429C18.8017 29.6453 18.5719 29.233 18.5693 28.778C18.5593 26.9788 20.7785 24.402 22.9706 24.3897ZM27.4117 30.4038C28.2803 30.399 29.4517 29.0688 30.3559 28.0297C30.6436 27.6972 30.8901 27.4063 31.0958 27.1983C31.1575 27.136 31.2188 27.0115 31.2182 26.9081C31.2172 26.722 31.0918 26.4952 30.823 26.4967C30.6989 26.4974 30.5958 26.56 30.5136 26.6432C30.2874 26.872 30.0203 27.1837 29.7119 27.5163C28.8899 28.4515 27.8828 29.574 27.4691 29.5763C27.1382 29.5781 27.1161 29.3094 27.1142 28.9785C27.1088 28.0065 27.6586 26.473 28.0254 25.4989C29.6066 23.484 31.9052 20.307 32.6821 18.6895C32.8458 18.3784 32.906 18.0471 32.9043 17.7576C32.9016 17.2613 32.6503 16.7043 32.0299 16.7077C31.5956 16.7102 30.9147 17.0035 30.1164 18.4763C29.8504 18.9948 28.9088 20.7373 27.2993 25.0894C26.6628 25.9202 26.1903 26.4812 26.0052 26.6684C25.9435 26.7308 25.9027 26.8344 25.9033 26.9378C25.9045 27.1446 26.071 27.3298 26.3191 27.3284C26.4018 27.328 26.5051 27.3067 26.5668 27.2443C26.4044 27.7829 26.3043 28.3833 26.3078 29.0037C26.3114 29.6448 26.6052 30.4083 27.4117 30.4038ZM32.0137 17.5144C32.0757 17.5141 32.0971 17.638 32.0978 17.7621C32.0986 17.9069 32.0585 18.1346 31.9563 18.342C31.4656 19.3581 30.2965 21.1018 29.0856 22.7631C29.5954 21.478 30.1869 19.9857 30.8217 18.8653C31.3951 17.8488 31.8069 17.5156 32.0137 17.5144ZM38.2456 30.3433C39.2383 30.3378 40.1851 29.5259 40.8821 28.4259C41.11 28.5074 41.3378 28.5475 41.5859 28.5461C42.4959 28.541 43.2364 27.8337 43.8736 27.127C43.9353 27.0646 43.9965 26.9195 43.996 26.8161C43.9949 26.63 43.8904 26.4237 43.6008 26.4253C43.4974 26.4259 43.3737 26.4887 43.2914 26.5718C42.6131 27.3202 42.0984 27.7367 41.5814 27.7395C41.4987 27.74 41.3745 27.72 41.271 27.6999C41.6598 26.9532 41.9651 26.0829 41.96 25.173C41.9568 24.5939 41.8065 23.602 40.9379 23.6069C39.8418 23.613 39.4368 25.1457 39.441 25.9109C39.445 26.614 39.6567 27.5021 40.1765 27.9956C39.6231 28.8879 38.9236 29.533 38.2618 29.5367C37.7241 29.5397 37.4326 29.1897 37.4289 28.5279C37.4249 27.8041 37.667 26.7273 38.2373 25.1524C39.3065 24.0296 41.7305 21.1 42.8158 19.1706C43.1023 18.6313 43.2031 18.1551 43.2013 17.8449C43.1981 17.2658 42.7403 16.7513 42.1198 16.7548C42.0164 16.7554 41.9337 16.7558 41.7686 16.8188L41.7892 16.798C41.1081 17.05 40.3489 18.1296 39.2663 20.5347C38.6739 21.8616 38.0819 23.2506 37.5113 24.7635C36.5456 25.9064 33.4847 29.584 33.4847 29.584C33.423 29.6464 33.3822 29.7501 33.3828 29.8535C33.3838 30.0396 33.5092 30.2664 33.778 30.2649C33.8607 30.2644 33.9846 30.2224 34.0669 30.1392C35.012 29.0378 35.9362 27.8745 36.8813 26.7524C36.6992 27.4773 36.6197 28.0568 36.6224 28.5324C36.6282 29.5872 37.1289 30.3496 38.2456 30.3433ZM42.1449 17.5405C42.2483 17.54 42.3936 17.6426 42.3948 17.8494C42.4002 18.8214 40.5935 21.1891 39.0935 22.9347C39.6848 21.4217 40.7673 18.9752 41.63 17.9157C41.8148 17.6872 42.0001 17.5414 42.1449 17.5405ZM40.9424 24.4134C41.1285 24.4124 41.1525 24.9913 41.1536 25.1981C41.1574 25.8806 40.9132 26.5851 40.6068 27.2693C40.336 26.9193 40.2504 26.4027 40.2477 25.927C40.2454 25.5134 40.4254 24.4163 40.9424 24.4134ZM44.5961 30.3285C45.899 30.3213 47.7328 29.0908 49.4588 27.0958C49.4999 27.0335 49.5612 26.9091 49.5607 26.8264C49.5598 26.6609 49.455 26.4133 49.1862 26.4148C49.0828 26.4154 48.9589 26.4575 48.8767 26.5407C47.1298 28.5151 45.4602 29.5172 44.5503 29.5222C43.9505 29.5256 43.6794 29.1135 43.6759 28.4931C43.6739 28.1415 43.7341 27.8102 43.8353 27.4167C46.3551 26.8236 47.6513 25.6168 47.6458 24.6242C47.6421 23.9624 47.1641 23.5514 46.4403 23.5555C44.5377 23.5661 42.8591 26.657 42.8691 28.4562C42.8747 29.4489 43.3553 30.3355 44.5961 30.3285ZM46.4448 24.362C46.5896 24.3612 46.8381 24.4219 46.8391 24.608C46.8419 25.1043 46.1435 25.9562 44.1817 26.4841C44.611 25.5925 45.5142 24.3672 46.4448 24.362ZM53.3135 30.2592C54.1407 30.2546 55.3127 29.0278 57.101 27.0531C57.1627 26.9907 57.2239 26.8456 57.2234 26.7629C57.2224 26.5768 57.0557 26.3502 56.8282 26.3515C56.7248 26.3521 56.6627 26.3524 56.5188 26.498C56.0256 27.0591 53.9501 29.4491 53.309 29.4526C53.0609 29.454 52.9147 29.2067 52.9131 28.9171C52.911 28.5449 53.0729 27.9029 53.3175 27.2604C54.0553 26.0567 54.7296 24.6053 54.9132 24.1493C54.9336 24.0871 54.9746 24.0249 54.9741 23.9421C54.9733 23.7974 54.8073 23.6949 54.7035 23.6334C54.6206 23.5925 54.1646 23.4089 53.5028 23.4126C50.9797 23.4267 48.2656 26.2545 48.2787 28.5914C48.284 29.5427 48.7845 30.2845 49.7771 30.2789C50.6871 30.2739 51.49 29.6282 52.1065 28.9216C52.1104 29.6041 52.4863 30.2638 53.3135 30.2592ZM53.4866 24.2193C53.6314 24.2185 53.7969 24.2382 53.9211 24.2582C53.5935 24.8391 52.9996 25.8972 52.5918 26.9335L52.5917 26.9129C52.0386 27.8673 50.848 29.4664 49.752 29.4725C49.3177 29.4749 49.0879 29.0626 49.0853 28.6076C49.0753 26.8084 51.2945 24.2315 53.4866 24.2193ZM61.3607 30.2142C62.312 30.2089 63.5656 28.7749 64.449 27.7359C64.6956 27.445 64.9424 27.1955 65.1275 27.0083C65.1892 26.9459 65.2505 26.8215 65.2499 26.7181C65.2489 26.5319 65.0616 26.3262 64.8341 26.3275C64.7307 26.328 64.6275 26.37 64.5453 26.4532C63.2299 27.9289 61.8732 29.4048 61.3769 29.4076C61.3148 29.4079 61.2938 29.346 61.2932 29.2426C61.2901 28.6842 61.9633 27.026 62.3921 26.0309C62.6575 25.409 62.8811 24.7252 63.1262 24.1655C63.1875 24.041 63.2078 23.9582 63.2073 23.8755C63.2065 23.7307 63.1018 23.5038 62.7916 23.5055C62.6262 23.5065 62.5028 23.6312 62.4414 23.7557C61.8887 24.7721 60.6587 26.723 59.4873 28.0532C58.8295 28.76 58.1297 29.3637 57.6333 29.3664C57.5093 29.3671 57.4468 29.2848 57.4458 29.1193C57.4427 28.5609 57.83 27.5454 58.2789 26.4675L58.9932 24.7469C59.0748 24.5397 59.1566 24.3738 59.2179 24.2493C59.2794 24.1456 59.2994 24.0214 59.2992 24.0007C59.2981 23.7939 59.152 23.5672 58.9246 23.5685C58.6144 23.5702 58.5535 23.7774 58.4307 24.0056C58.1442 24.5655 57.6723 25.23 56.5626 26.4977C56.5009 26.5601 56.4396 26.7052 56.4401 26.788C56.4413 26.9948 56.5664 27.1802 56.8352 27.1787C56.9593 27.178 57.0625 27.1361 57.1859 27.0113C56.8187 27.9233 56.6363 28.5861 56.6392 29.1031C56.6407 29.372 56.6833 29.5992 56.8084 29.7847C56.9334 29.9494 57.1622 30.1756 57.6585 30.1729C58.3615 30.1483 59.2882 29.4399 60.0284 28.6499C60.2956 28.3589 60.6037 27.9849 60.8707 27.6525C60.6672 28.2327 60.4845 28.8542 60.4866 29.2264C60.4889 29.64 60.6764 29.8872 60.8218 30.0104C60.9465 30.1132 61.1125 30.2156 61.3607 30.2142ZM64.8121 27.1341C64.9155 27.1336 65.0187 27.0916 65.101 27.0084L65.5532 26.5096C65.3302 27.3174 65.2307 28.0211 65.2337 28.5588C65.2381 29.3447 65.5943 30.1699 66.4422 30.1652C67.5589 30.1589 69.5108 27.8524 70.2298 26.9798C70.2914 26.9174 70.3527 26.7723 70.3522 26.6896C70.3512 26.5035 70.1639 26.2977 69.9364 26.299C69.833 26.2995 69.7298 26.3415 69.6476 26.4247C68.4967 27.734 66.9754 29.3556 66.4377 29.3586C66.1068 29.3605 66.0213 28.8646 66.0195 28.5337C66.0136 27.479 66.6647 25.5727 67.1336 24.3499L69.3464 24.3375C69.5739 24.3363 69.759 24.1491 69.7577 23.9216C69.7564 23.6941 69.5694 23.5297 69.3419 23.531L67.4393 23.5416L68.6636 20.5774C68.7044 20.4737 68.7038 20.3703 68.7036 20.329C68.7025 20.1428 68.5773 19.9367 68.3084 19.9382C68.143 19.9392 67.9988 20.0434 67.9376 20.1885C67.9376 20.1885 67.6311 20.852 66.8358 22.8832L66.5293 23.5467L65.3298 23.5534C65.1024 23.5547 64.9172 23.7212 64.9184 23.9486C64.9197 24.1761 65.1069 24.3612 65.3343 24.3599L66.0995 24.3557C65.6897 25.0404 65.2178 25.7049 64.5188 26.4533C64.4365 26.5365 64.3957 26.6401 64.3963 26.7435C64.3975 26.9503 64.564 27.1355 64.8121 27.1341ZM71.6487 36.3818C72.8895 36.3749 73.6887 35.0469 74.1993 33.9065C74.383 33.4712 74.5873 33.0151 75.5454 30.528C77.1326 29.5885 78.7811 28.5038 80.1579 26.9244C80.1989 26.8621 80.2603 26.7377 80.2598 26.6549C80.2588 26.4688 80.1541 26.2419 79.8852 26.2434C79.7612 26.2441 79.658 26.286 79.5757 26.3692C78.178 27.9074 77.2716 28.5536 76.0555 29.2842C76.6675 27.7711 77.096 26.7346 77.9524 24.5377C77.9931 24.434 78.0131 24.3098 78.0128 24.2478C78.0115 24.0203 77.845 23.8351 77.6175 23.8364C77.4728 23.8372 77.3079 23.9415 77.2466 24.0659C76.1403 25.9541 73.615 29.2565 72.5809 29.2623C72.5189 29.2626 72.477 29.1595 72.4764 29.0561C72.4742 28.6631 72.7594 27.8963 73.1667 26.7566C73.4723 25.9276 73.7367 25.1403 73.7334 24.5405C73.7305 24.0235 73.4999 23.4664 72.7968 23.4703C72.0936 23.4743 71.3747 24.3469 69.6285 26.4454C69.5667 26.4872 69.5054 26.6323 69.506 26.7357C69.5072 26.9425 69.6117 27.1487 69.9012 27.1471C70.0253 27.1464 70.0871 27.1047 70.1077 27.0839L70.8678 26.1697C71.5456 25.3386 72.4082 24.2584 72.7805 24.2563C72.8839 24.2557 72.926 24.4003 72.9269 24.545C72.9294 25 72.6238 25.829 72.3797 26.5542C72.0947 27.3623 71.6658 28.3367 71.6701 29.1019C71.673 29.6189 71.9235 30.0518 72.5853 30.0482C73.5573 30.0427 74.9555 28.5872 75.9619 27.3407C75.5542 28.3978 75.4729 28.6464 74.9219 29.9731C74.0356 30.5157 72.8819 31.3081 71.9351 32.1199C71.1736 32.786 70.2069 33.7427 70.2134 34.9008C70.2177 35.666 70.8215 36.3865 71.6487 36.3818ZM74.3707 31.2584C73.9833 32.2532 73.7392 32.9784 73.4532 33.6212C72.9016 34.8444 72.3473 35.5714 71.6649 35.5752C71.2926 35.5773 71.022 35.2686 71.0198 34.8756C71.0159 34.1725 71.7557 33.3204 72.4348 32.7169C73.0109 32.1966 73.7113 31.6964 74.3707 31.2584ZM86.2683 30.2406C88.1503 30.2301 90.146 28.3783 91.4611 26.8612C91.5228 26.7988 91.5635 26.6745 91.5629 26.5711C91.5619 26.385 91.4366 26.1789 91.1678 26.1804C91.0851 26.1809 90.9612 26.2229 90.879 26.3061C90.1596 27.1167 89.0899 28.136 88.1834 28.7615C88.3051 28.3265 88.3437 27.83 88.3409 27.3336C88.3387 26.9407 88.2952 26.548 88.2723 26.1552C88.2285 25.7211 88.2054 25.287 88.2027 24.8113C88.2008 24.4597 88.1989 24.1288 88.3014 23.9628C88.4243 23.7553 88.6095 23.5888 88.6087 23.4441C88.6077 23.258 88.4617 23.0313 88.2342 23.0325C87.9446 23.0342 87.7396 23.3455 87.637 23.4909C87.1038 24.3004 86.3237 25.3388 85.5635 26.2324C85.0292 26.8558 83.6107 28.3734 82.7885 29.2673C82.7473 29.3089 82.6861 29.454 82.6863 29.4954C82.6874 29.6815 82.7299 29.8881 82.9577 29.9489C83.1234 29.9893 83.2678 29.9265 83.3912 29.8017L83.967 29.2194C84.5493 29.7952 85.3998 30.2454 86.2683 30.2406ZM86.3464 29.4129C85.6226 29.417 85.0418 29.11 84.5635 28.637C85.2831 27.8678 85.5091 27.5976 85.7762 27.2859C86.5569 26.3716 87.0296 25.8312 87.3784 25.3329C87.3771 25.1055 87.4222 25.767 87.4443 26.0151C87.488 26.4491 87.5319 26.9039 87.5346 27.3795C87.5409 28.5169 87.2771 29.4077 86.3464 29.4129ZM95.3008 30.0247C96.128 30.0201 97.3 28.7933 99.0882 26.8186C99.1499 26.7563 99.2112 26.6111 99.2107 26.5284C99.2097 26.3423 99.0429 26.1157 98.8155 26.117C98.7121 26.1176 98.65 26.1179 98.5061 26.2635C98.0128 26.8246 95.9374 29.2146 95.2963 29.2182C95.0481 29.2195 94.902 28.9722 94.9004 28.6827C94.8983 28.3104 95.0601 27.6684 95.3047 27.0259C96.0425 25.8223 96.7169 24.3708 96.9005 23.9148C96.9208 23.8526 96.9618 23.7904 96.9614 23.7077C96.9606 23.5629 96.7945 23.4604 96.6908 23.3989C96.6078 23.358 96.1518 23.1745 95.49 23.1782C92.967 23.1922 90.2529 26.0201 90.2659 28.357C90.2712 29.3083 90.7717 30.05 91.7644 30.0445C92.6744 30.0394 93.4773 29.3938 94.0938 28.6872C94.0976 29.3696 94.4736 30.0293 95.3008 30.0247ZM95.4739 23.9848C95.6186 23.984 95.7842 24.0038 95.9084 24.0238C95.5807 24.6047 94.9869 25.6627 94.5791 26.6991L94.5789 26.6784C94.0259 27.6328 92.8353 29.2319 91.7392 29.238C91.3049 29.2405 91.0751 28.8281 91.0726 28.3731C91.0625 26.5739 93.2817 23.9971 95.4739 23.9848ZM99.915 29.9989C100.784 29.9941 101.955 28.6639 102.859 27.6248C103.147 27.2923 103.393 27.0014 103.599 26.7935C103.661 26.7311 103.722 26.6066 103.722 26.5032C103.72 26.3171 103.595 26.0903 103.326 26.0918C103.202 26.0925 103.099 26.1551 103.017 26.2383C102.791 26.4671 102.524 26.7788 102.215 27.1114C101.393 28.0466 100.386 29.1691 99.9724 29.1714C99.6415 29.1732 99.6193 28.9045 99.6175 28.5736C99.6121 27.6016 100.162 26.0681 100.529 25.0941C102.11 23.0791 104.408 19.9021 105.185 18.2846C105.349 17.9735 105.409 17.6422 105.408 17.3527C105.405 16.8564 105.154 16.2994 104.533 16.3028C104.099 16.3053 103.418 16.5986 102.62 18.0714C102.354 18.59 101.412 20.3324 99.8026 24.6845C99.1661 25.5153 98.6936 26.0763 98.5085 26.2635C98.4468 26.3259 98.406 26.4295 98.4066 26.5329C98.4077 26.7397 98.5742 26.9249 98.8224 26.9235C98.9051 26.9231 99.0084 26.9018 99.0701 26.8394C98.9077 27.378 98.8076 27.9784 98.8111 28.5988C98.8146 29.2399 99.1084 30.0034 99.915 29.9989ZM104.517 17.1095C104.579 17.1092 104.6 17.2331 104.601 17.3572C104.602 17.502 104.562 17.7297 104.46 17.9371C103.969 18.9532 102.8 20.6969 101.589 22.3582C102.099 21.0731 102.69 19.5808 103.325 18.4604C103.898 17.4439 104.31 17.1107 104.517 17.1095ZM104.212 29.9543C105.163 29.9489 106.049 29.2822 106.727 28.5339C106.913 28.5949 107.1 28.6145 107.327 28.6133C108.403 28.6073 109.349 27.7334 110.212 26.7565C110.274 26.6941 110.315 26.5905 110.314 26.4871C110.313 26.301 110.208 26.0741 109.939 26.0756C109.836 26.0761 109.712 26.1182 109.63 26.2014C108.685 27.3028 107.964 27.8031 107.343 27.8066L107.281 27.8069C107.855 26.9145 108.346 25.8983 108.34 24.7402C108.336 24.1405 108.144 23.1282 107.276 23.133C105.994 23.1402 105.323 25.2327 105.329 26.2874C105.333 27.0733 105.585 27.7337 106.001 28.1243C105.548 28.5612 104.848 29.1441 104.207 29.1477C103.69 29.1506 103.439 28.635 103.436 28.0766C103.429 26.8771 104.288 25.0524 105.771 24.0514C105.895 23.9473 105.956 23.8229 105.955 23.6988C105.954 23.5127 105.767 23.3069 105.54 23.3082C105.478 23.3085 105.375 23.3711 105.271 23.4131C103.52 24.581 102.622 26.6748 102.63 28.0811C102.635 28.991 103.116 29.9604 104.212 29.9543ZM107.28 23.9396C107.508 23.9383 107.532 24.5172 107.533 24.7654C107.538 25.6547 107.048 26.6915 106.514 27.4803C106.202 27.1719 106.137 26.5931 106.135 26.2829C106.131 25.4971 106.598 23.9434 107.28 23.9396ZM111.456 29.8311C111.56 29.8305 111.746 29.8088 111.828 29.6636L112.155 29.062C112.565 28.3152 113.323 27.008 114.082 26.0317C114.924 24.9723 115.974 23.9944 116.884 23.9893C117.008 23.9886 117.091 24.0089 117.092 24.1743C117.094 24.6913 116.624 25.6866 116.277 26.4538C115.828 27.449 115.398 28.3614 115.402 28.9818C115.404 29.3954 115.676 29.8696 116.296 29.8661C117.351 29.8602 118.954 28.0727 120.166 26.7009C120.207 26.6387 120.269 26.5142 120.268 26.4315C120.267 26.204 120.142 26.0186 119.873 26.0201C119.77 26.0207 119.646 26.0834 119.584 26.1458C118.392 27.4967 116.974 29.0557 116.312 29.0594C116.25 29.0598 116.209 29.0187 116.208 28.9359C116.206 28.481 116.634 27.5065 117.003 26.7806C117.289 26.2 117.902 24.8729 117.897 24.0664C117.894 23.508 117.458 23.1796 116.879 23.1828C115.783 23.1889 114.712 24.0221 113.726 25.1858C113.848 24.7922 113.908 24.4196 113.907 24.1921C113.904 23.7164 113.591 23.1598 112.991 23.1631C112.722 23.1646 112.392 23.2906 112.083 23.5198C111.589 23.8948 110.315 25.3703 109.616 26.2015C109.555 26.2638 109.493 26.409 109.494 26.4917C109.495 26.6985 109.682 26.8836 109.91 26.8823C110.013 26.8817 110.137 26.8397 110.219 26.7358C111.123 25.6967 112.192 24.4498 112.562 24.1789C112.768 24.033 112.913 23.9702 112.995 23.9697C113.058 23.9693 113.079 24.0726 113.079 24.176C113.084 25.0446 111.961 27.5533 111.163 29.0468C111.06 29.2542 111.04 29.3164 111.041 29.4198C111.042 29.6679 111.167 29.8327 111.456 29.8311Z" fill="#80C4CE"/>
<path d="M27.9356 46.1242C27.8148 45.0148 27.4122 44.1004 26.7278 43.3809C25.9497 42.5473 24.8982 42.1342 23.5734 42.1416C22.5063 42.1476 21.6632 42.4961 21.044 43.187C20.5457 43.7341 20.2987 44.3908 20.303 45.1571C20.3103 46.4676 21.2719 47.4577 23.1878 48.1274L23.7368 48.3177C26.0618 49.1498 27.563 49.9435 28.2404 50.6988C28.8746 51.4115 29.1945 52.2655 29.2001 53.2609C29.2085 54.7649 28.6062 55.9212 27.3932 56.7301C26.5084 57.3152 25.4537 57.6111 24.2291 57.6179C22.8899 57.6254 21.6418 57.2707 20.4848 56.5539C20.1541 56.3337 19.8957 56.2241 19.7095 56.2252C19.4445 56.2266 19.3139 56.5568 19.3176 57.2157L18.6408 57.2194L18.6122 52.0954L19.246 52.0919C19.411 53.4374 19.8503 54.4984 20.5636 55.2751C21.5001 56.2653 22.7204 56.7562 24.2243 56.7478C25.2197 56.7423 26.0095 56.4657 26.5937 55.9182C27.2208 55.3489 27.5316 54.5773 27.5262 53.6033C27.5221 52.8728 27.2535 52.2226 26.7203 51.6527C26.2377 51.1469 25.2319 50.5867 23.703 49.9722L23.2831 49.8027C21.6826 49.1885 20.6307 48.6931 20.1273 48.3163C19.1995 47.6197 18.7324 46.6913 18.7259 45.5311C18.7187 44.2349 19.1963 43.1974 20.1588 42.4185C21.0357 41.7118 22.1509 41.3546 23.5045 41.3471C24.6789 41.3405 25.848 41.6491 27.0117 42.2728C27.2488 42.4076 27.4246 42.4746 27.5392 42.474C27.7469 42.4728 27.8598 42.1786 27.878 41.5912L28.5655 41.5874L28.5908 46.1206L27.9356 46.1242ZM37.0345 46.1271C38.4811 46.119 39.6977 46.6028 40.6843 47.5785C41.7501 48.6324 42.2878 50.0152 42.2974 51.7268C42.3075 53.5387 41.7856 54.9739 40.7315 56.0326C39.7487 57.0049 38.5375 57.4951 37.098 57.5031C35.6443 57.5112 34.4277 57.0346 33.4483 56.0732C32.3897 55.0264 31.8555 53.6149 31.8455 51.8389C31.8358 50.0915 32.365 48.6777 33.4332 47.5975C34.3946 46.6253 35.5951 46.1352 37.0345 46.1271ZM37.0388 46.8898C35.9502 46.8959 35.0791 47.3627 34.4254 48.2902C33.7859 49.189 33.4702 50.3688 33.4784 51.8298C33.4869 53.3695 33.8446 54.5778 34.5514 55.4548C35.2005 56.2747 36.0478 56.6818 37.0934 56.676C38.3896 56.6687 39.3461 56.0904 39.9627 54.9411C40.4375 54.0361 40.6716 52.9928 40.665 51.8111C40.6563 50.2571 40.2985 49.0309 39.5917 48.1324C38.9282 47.2982 38.0772 46.884 37.0388 46.8898ZM49.5033 57.0901L44.1645 57.1199L44.1611 56.5076C44.6337 56.5049 45.0345 56.4561 45.3634 56.3612C45.8641 56.251 46.1124 55.8342 46.1084 55.1109L46.0442 43.6168C46.0405 42.9508 45.87 42.5507 45.5326 42.4165C45.3101 42.3246 44.8336 42.2807 44.1031 42.2848L44.0993 41.608C45.2809 41.58 46.4082 41.4627 47.4813 41.2561L47.5586 55.1028C47.5623 55.7688 47.7615 56.1759 48.1563 56.3241C48.4433 56.43 48.8912 56.4812 49.4999 56.4778L49.5033 57.0901ZM61.0735 51.4071L52.7806 51.4534L52.7827 51.8294C52.7907 53.276 53.2377 54.448 54.1236 55.3455C54.8653 56.0718 55.7626 56.432 56.8153 56.4262C58.3908 56.4174 59.604 55.6479 60.4549 54.1177L61.0483 54.5763C60.1205 56.4435 58.6254 57.3829 56.5629 57.3944C55.0303 57.403 53.7636 56.9123 52.7625 55.9224C51.7614 54.9039 51.256 53.5352 51.2464 51.8165C51.2362 49.9903 51.7545 48.5479 52.8014 47.4893C53.7128 46.546 54.8775 46.0705 56.2955 46.0625C57.6705 46.0549 58.7866 46.4891 59.6437 47.3652C60.5871 48.2981 61.063 49.5129 61.0713 51.0097L61.0735 51.4071ZM59.5757 50.5776C59.5257 49.3174 59.155 48.3419 58.4636 47.6511C57.866 47.0815 57.1375 46.7991 56.2781 46.8039C55.2541 46.8096 54.4043 47.2619 53.729 48.1609C53.2456 48.801 52.9529 49.6191 52.8511 50.6151L59.5757 50.5776ZM65.6908 41.423C66.0059 41.4213 66.2715 41.5308 66.4876 41.7516C66.7108 41.9723 66.8233 42.2367 66.825 42.5446C66.8291 43.2751 66.4551 43.6424 65.7032 43.6466C64.9727 43.6507 64.6054 43.2875 64.6014 42.5571C64.5972 41.8051 64.9603 41.4271 65.6908 41.423ZM68.3774 56.9847L63.1459 57.0139L63.1425 56.4016C63.6223 56.3989 64.0159 56.3501 64.3234 56.2553C64.8096 56.1237 65.0508 55.7034 65.0468 54.9944L65.0101 48.4202C65.0062 47.7255 64.8285 47.3147 64.4768 47.1878C64.2543 47.1031 63.7922 47.0627 63.0904 47.0666L63.0867 46.4006C64.2825 46.3724 65.4026 46.248 66.447 46.0273L66.497 54.9863C66.5007 55.6452 66.6712 56.0417 67.0085 56.1759C67.3387 56.3101 67.7939 56.3756 68.3739 56.3724L68.3774 56.9847ZM74.8549 56.9485L69.516 56.9783L69.5126 56.366C69.9853 56.3634 70.3861 56.3146 70.715 56.2196C71.2157 56.1094 71.464 55.6926 71.46 54.9693L71.3958 43.4752C71.3921 42.8092 71.2215 42.4091 70.8842 42.2749C70.6616 42.183 70.1851 42.1391 69.4547 42.1432L69.4509 41.4665C70.6324 41.4384 71.7597 41.3211 72.8328 41.1146L72.9102 54.9612C72.9139 55.6273 73.1131 56.0344 73.5078 56.1826C73.7949 56.2884 74.2428 56.3396 74.8515 56.3362L74.8549 56.9485ZM85.3343 46.373L86.9993 46.3637L86.986 43.979L82.9362 44.0016L82.7398 43.4548L86.9829 43.4311L86.971 41.2934C86.012 41.4134 84.7737 41.5313 83.256 41.6472L83.1026 41.1002C86.3805 40.7095 88.8553 40.1585 90.5272 39.4473C91.3967 39.9796 91.8321 40.3603 91.8334 40.5895C91.8341 40.7184 91.702 40.7836 91.437 40.7851C91.2365 40.7862 91 40.7589 90.7276 40.7031C89.9622 40.8649 89.1215 41.0093 88.2055 41.1361L88.2183 43.4242L90.5064 43.4114L91.4231 42.128C91.9344 42.6336 92.3488 43.1004 92.6663 43.5283L92.4215 43.9486L88.2213 43.9721L88.2347 46.3568L89.8997 46.3475L90.6467 45.4625C91.4882 46.0952 91.9094 46.501 91.9104 46.6801C91.9108 46.7589 91.854 46.8344 91.7398 46.9066L91.2581 47.2208L91.2804 51.2169L90.1095 51.2235L90.1047 50.3641L85.1848 50.3916L85.1915 51.584L83.9991 51.5906L83.9665 45.7576C84.5192 45.9765 84.9751 46.1817 85.3343 46.373ZM85.1654 46.9219L85.1818 49.8437L90.1017 49.8163L90.0854 46.8944L85.1654 46.9219ZM94.9558 41.8504L96.2771 41.843C96.4585 40.9826 96.5928 40.0222 96.6799 38.9618C98.0778 39.1975 98.7775 39.455 98.7791 39.7343C98.7801 39.9133 98.4837 40.0689 97.89 40.2012C97.6992 40.6534 97.3871 41.1995 96.9538 41.8393L99.6824 41.824L100.493 40.8097C101.363 41.4494 101.799 41.8767 101.8 42.0915C101.801 42.1989 101.744 42.2888 101.63 42.361L101.148 42.6967L101.197 51.4946L99.9405 51.5016L99.9338 50.3092L94.7454 50.3382L94.752 51.5306L93.5167 51.5375L93.4591 41.225C94.3061 41.564 94.805 41.7725 94.9558 41.8504ZM94.701 42.3997L94.7118 44.3333L99.9003 44.3043L99.8895 42.3707L94.701 42.3997ZM99.9308 49.7614L99.9179 47.4518L94.7294 47.4808L94.7423 49.7903L99.9308 49.7614ZM99.9148 46.9039L99.9034 44.8522L94.7149 44.8812L94.7264 46.9329L99.9148 46.9039ZM91.9789 51.256C94.2253 52.1029 95.3513 53.0491 95.3572 54.0947C95.3602 54.6389 95.1183 54.9124 94.6313 54.9151C94.3162 54.9169 94.0822 54.7069 93.9295 54.2852C93.5447 53.3564 92.7986 52.4725 91.691 51.6336L91.9789 51.256ZM85.8859 52.8155L86.4239 52.9843C86.3827 54.5745 86.0212 55.8835 85.3394 56.9114C84.835 57.6447 84.3322 58.0128 83.8309 58.0156C83.2436 58.0189 82.9485 57.7412 82.9453 57.1826C82.9438 56.9033 83.0894 56.6841 83.3821 56.5249C84.6674 55.8373 85.502 54.6009 85.8859 52.8155ZM98.3116 52.209C99.6683 52.7815 100.811 53.502 101.74 54.3705C102.345 54.9687 102.649 55.54 102.652 56.0843C102.655 56.7145 102.385 57.0311 101.841 57.0341C101.511 57.036 101.245 56.7725 101.041 56.2436C100.526 54.9789 99.5163 53.7742 98.0132 52.6296L98.3116 52.209ZM97.7427 54.221C97.7492 55.374 97.8106 56.1149 97.927 56.4437C98.0431 56.708 98.2802 56.8392 98.6382 56.8372C98.5705 57.5251 98.2183 57.9388 97.5817 58.0784C96.9951 58.2106 95.4558 58.2837 92.9636 58.2976C90.6719 58.3104 89.3679 58.1995 89.0515 57.9649C88.7566 57.7446 88.6074 57.3193 88.6039 56.6891L88.5783 52.1129C90.0323 52.1478 90.7603 52.3335 90.7622 52.6701C90.7633 52.8634 90.4564 53.0513 89.8415 53.2338L89.8589 56.3491C89.8823 56.707 89.9981 56.9212 90.2062 56.9917C90.4931 57.076 91.3957 57.1139 92.914 57.1055C94.5181 57.0965 95.5528 57.0549 96.0179 56.9807C96.4114 56.914 96.675 56.6691 96.8087 56.2458C96.9844 55.6504 97.1128 54.9156 97.1939 54.0414L97.7427 54.221Z" fill="#80C4CE"/>
<path d="M127.37 2.69001C127.49 2.72001 127.62 2.66001 127.67 2.54001L128.44 0.720008C128.49 0.590008 128.44 0.440009 128.31 0.390009C128.18 0.330009 128.03 0.400009 127.98 0.520009L127.21 2.34001C127.16 2.47001 127.21 2.62001 127.34 2.67001C127.35 2.68001 127.36 2.69001 127.37 2.69001Z" fill="#80C4CE"/>
<path d="M125.37 17.51C125.43 17.53 125.5 17.52 125.56 17.49L132.6 13.58C132.72 13.51 132.77 13.36 132.7 13.23C132.63 13.11 132.48 13.06 132.35 13.13L125.31 17.04C125.19 17.11 125.14 17.26 125.21 17.39C125.24 17.45 125.3 17.49 125.37 17.51Z" fill="#80C4CE"/>
<path d="M123.95 15.92C124.04 15.94 124.13 15.92 124.2 15.85L128.48 11.5C128.58 11.4 128.58 11.24 128.48 11.14C128.38 11.04 128.22 11.04 128.12 11.14L123.84 15.49C123.74 15.59 123.74 15.75 123.84 15.85C123.87 15.89 123.91 15.91 123.95 15.92Z" fill="#80C4CE"/>
<path d="M116.87 13.66C116.91 13.67 116.95 13.67 116.99 13.66C117.13 13.63 117.21 13.49 117.18 13.36L115.27 5.11C115.24 4.97 115.1 4.89 114.97 4.92C114.83 4.95 114.75 5.09 114.78 5.22L116.69 13.47C116.71 13.57 116.78 13.64 116.87 13.66Z" fill="#80C4CE"/>
<path d="M133.69 12.91C133.75 12.93 133.82 12.92 133.88 12.88L137.61 10.74C137.73 10.67 137.77 10.51 137.7 10.39C137.63 10.27 137.48 10.23 137.35 10.3L133.62 12.44C133.5 12.51 133.46 12.67 133.53 12.79C133.57 12.86 133.63 12.9 133.69 12.91Z" fill="#80C4CE"/>
<path d="M126.61 20.97C126.63 20.97 126.64 20.98 126.66 20.98L133.99 21.39C134.13 21.4 134.25 21.29 134.26 21.15C134.27 21.01 134.16 20.89 134.02 20.88L126.69 20.47C126.55 20.46 126.43 20.57 126.42 20.71C126.41 20.83 126.49 20.94 126.61 20.97Z" fill="#80C4CE"/>
<path d="M136.29 21.5C136.31 21.5 136.32 21.51 136.34 21.51L138.87 21.69C139.01 21.7 139.13 21.59 139.14 21.45C139.15 21.31 139.04 21.19 138.9 21.18L136.37 21C136.23 20.99 136.11 21.1 136.1 21.24C136.1 21.36 136.18 21.47 136.29 21.5Z" fill="#80C4CE"/>
<path d="M126.4 19.19C126.44 19.2 126.48 19.2 126.53 19.19L133.56 17.34C133.7 17.3 133.78 17.17 133.74 17.03C133.7 16.89 133.57 16.81 133.43 16.85L126.4 18.7C126.26 18.74 126.18 18.87 126.22 19.01C126.24 19.1 126.31 19.17 126.4 19.19Z" fill="#80C4CE"/>
<path d="M122.29 14.59C122.41 14.62 122.54 14.56 122.59 14.44L127.04 4.01002C127.1 3.88002 127.04 3.73002 126.91 3.68002C126.78 3.62002 126.63 3.69002 126.58 3.81002L122.13 14.24C122.07 14.37 122.13 14.52 122.26 14.57C122.27 14.59 122.28 14.59 122.29 14.59Z" fill="#80C4CE"/>
<path d="M119.88 13.77C119.9 13.78 119.92 13.78 119.94 13.78C120.08 13.78 120.2 13.67 120.2 13.53L120.31 5.43001C120.31 5.29001 120.2 5.17001 120.06 5.17001C119.92 5.17001 119.8 5.28001 119.8 5.42001L119.69 13.52C119.69 13.64 119.77 13.74 119.88 13.77Z" fill="#80C4CE"/>
<path d="M119.97 3.70001C119.99 3.70001 120.01 3.71001 120.03 3.71001C120.17 3.71001 120.29 3.60001 120.29 3.46001L120.36 0.77001C120.36 0.63001 120.25 0.51001 120.11 0.51001C119.97 0.51001 119.85 0.62001 119.85 0.76001L119.78 3.45001C119.77 3.57001 119.85 3.67001 119.97 3.70001Z" fill="#80C4CE"/>
<path d="M114.44 13.88C114.5 13.9 114.56 13.89 114.62 13.86C114.74 13.8 114.79 13.64 114.73 13.52L111.06 6.29999C111 6.16999 110.84 6.13 110.72 6.19C110.6 6.25 110.55 6.41 110.61 6.53L114.28 13.75C114.31 13.82 114.37 13.86 114.44 13.88Z" fill="#80C4CE"/>
<path d="M109.9 4.94001C109.96 4.96001 110.02 4.95 110.08 4.92C110.2 4.86 110.25 4.7 110.19 4.58L108.54 1.34001C108.48 1.21001 108.32 1.17 108.2 1.23C108.08 1.29 108.03 1.45 108.09 1.57L109.74 4.81C109.77 4.88 109.83 4.93001 109.9 4.94001Z" fill="#80C4CE"/>
</g>
<defs>
<clipPath id="clip0_200_3">
<rect width="140" height="60.4858" fill="white"/>
</clipPath>
</defs>
</svg>
