<svg width="180" height="68" viewBox="0 0 180 68" fill="none" xmlns="http://www.w3.org/2000/svg">
<path d="M4.23524 34.2633C3.43453 34.3193 2.80375 34.1295 2.34291 33.6939C1.88207 33.2583 1.61975 32.5843 1.55594 31.6719C1.49865 30.8526 1.57731 29.8366 1.79191 28.624C2.02383 27.3915 2.32828 26.1258 2.70527 24.8271C2.51645 24.8028 2.3376 24.7873 2.16871 24.7804C1.99851 24.7548 1.83698 24.7194 1.6841 24.6739L1.64894 24.1711C1.79922 24.1793 1.97742 24.1856 2.18355 24.1899C2.38969 24.1942 2.62376 24.1965 2.88576 24.1969C3.20649 23.164 3.55775 22.1664 3.93956 21.2041C4.32006 20.2232 4.69906 19.3546 5.07656 18.5985C5.47139 17.8224 5.84935 17.2065 6.21044 16.7509C6.58886 16.2753 6.91773 16.0278 7.19704 16.0082C7.34601 15.9978 7.48027 16.0446 7.59981 16.1485C7.73667 16.2325 7.81226 16.3769 7.82658 16.5817C7.84872 16.8983 7.68965 17.4333 7.34939 18.1869C7.00783 18.9219 6.58292 19.803 6.07468 20.8303C5.56643 21.8576 5.08267 22.9673 4.62339 24.1596C4.79098 24.1479 4.95857 24.1362 5.12616 24.1245C5.31237 24.1114 5.48927 24.0991 5.65686 24.0874C6.27136 24.0444 6.91314 23.9902 7.5822 23.9247C8.26989 23.8579 8.95561 23.7631 9.63939 23.6405L9.67455 24.1432C8.65819 24.3266 7.7423 24.4748 6.92688 24.588C6.13007 24.6998 5.41511 24.7779 4.78199 24.8222C4.7075 24.8274 4.63302 24.8326 4.55854 24.8378C4.50267 24.8417 4.4375 24.8463 4.36301 24.8515C4.00374 25.8683 3.71159 26.9086 3.48657 27.9722C3.26155 29.0358 3.18354 30.0611 3.25256 31.048C3.30855 31.8487 3.46995 32.4175 3.73677 32.7544C4.00228 33.0727 4.41436 33.2123 4.97299 33.1732C5.94129 33.1055 6.86103 32.6108 7.73219 31.6891C8.60335 30.7674 9.3413 29.5463 9.94604 28.0258L10.3287 28.2797C9.95469 29.3537 9.45251 30.3338 8.82212 31.2199C8.21035 32.1048 7.51173 32.8179 6.72625 33.3593C5.94077 33.9008 5.11043 34.2021 4.23524 34.2633ZM11.7259 33.3466C10.9252 33.4025 10.3397 33.1909 9.96934 32.7115C9.6003 32.2508 9.39104 31.6667 9.34156 30.9591C9.30119 30.3818 9.35263 29.7794 9.49587 29.1519C9.63912 28.5244 9.84083 27.9302 10.101 27.3693C10.3798 26.8072 10.6937 26.3455 11.0427 25.9843C11.4103 25.6218 11.7896 25.4268 12.1807 25.3995C12.2738 25.393 12.3682 25.4051 12.4639 25.4358C12.5769 25.4466 12.6813 25.4674 12.777 25.4981C12.6198 25.6588 12.4345 25.9524 12.2211 26.379C12.025 26.7857 11.8427 27.2569 11.6744 27.7926C11.5047 28.3097 11.3629 28.8249 11.2491 29.338C11.1539 29.8499 11.1187 30.2828 11.1435 30.6366C11.1825 31.1952 11.3043 31.5984 11.5087 31.8461C11.7119 32.0751 11.9624 32.1792 12.2603 32.1584C12.6514 32.131 13.1026 31.8937 13.6139 31.4462C14.124 30.9802 14.617 30.403 15.0928 29.7148C14.5414 29.323 14.0927 28.793 13.7466 28.1249C13.4178 27.4368 13.228 26.7297 13.1772 26.0034C13.1342 25.3889 13.1963 24.8045 13.3634 24.2502C13.5491 23.6945 13.8357 23.2441 14.2232 22.8989C14.6094 22.5351 15.0912 22.333 15.6684 22.2926C16.4319 22.2392 16.9583 22.4082 17.2476 22.7997C17.537 23.1911 17.7031 23.6941 17.7461 24.3086C17.7969 25.0348 17.6766 25.8572 17.3853 26.7758C17.0927 27.6757 16.7051 28.5542 16.2224 29.4113C16.5706 29.5741 16.9309 29.6425 17.3033 29.6164C17.6012 29.5956 17.9325 29.5163 18.2971 29.3785C18.6604 29.2221 19.0086 28.9826 19.3415 28.6599C19.6931 28.3359 19.9631 27.9147 20.1514 27.3963L20.5061 27.6522C20.1949 28.5534 19.7078 29.2144 19.0448 29.635C18.3992 30.0357 17.7691 30.2575 17.1546 30.3004C16.9126 30.3174 16.6785 30.315 16.4524 30.2934C16.2251 30.2532 16.0057 30.1937 15.7944 30.1149C15.2199 30.9971 14.5704 31.7442 13.846 32.3563C13.1402 32.967 12.4335 33.2971 11.7259 33.3466ZM15.5448 28.9535C15.9621 28.2319 16.2937 27.4883 16.5396 26.7226C16.8027 25.937 16.9109 25.209 16.864 24.5387C16.8263 23.9987 16.7151 23.6135 16.5306 23.3831C16.3634 23.1328 16.1588 23.0162 15.9167 23.0331C15.5443 23.0591 15.1814 23.3558 14.8281 23.9232C14.4748 24.4906 14.3268 25.1839 14.3841 26.0032C14.4219 26.5433 14.5348 27.0874 14.7228 27.6356C14.9282 28.1639 15.2022 28.6032 15.5448 28.9535ZM22.4018 32.993C21.6011 33.049 20.9703 32.8592 20.5095 32.4236C20.0486 31.988 19.7863 31.314 19.7225 30.4016C19.6652 29.5822 19.7439 28.5663 19.9585 27.3537C20.1904 26.1212 20.4949 24.8555 20.8718 23.5567C20.683 23.5325 20.5042 23.5169 20.3353 23.51C20.1651 23.4845 20.0036 23.449 19.8507 23.4036L19.8155 22.9008C19.9658 22.909 20.144 22.9153 20.3501 22.9196C20.5563 22.9239 20.7903 22.9262 21.0523 22.9266C21.3731 21.8937 21.7243 20.8961 22.1061 19.9338C22.4866 18.9529 22.8656 18.0843 23.2431 17.3281C23.638 16.552 24.0159 15.9362 24.377 15.4805C24.7554 15.005 25.0843 14.7574 25.3636 14.7379C25.5126 14.7275 25.6468 14.7742 25.7664 14.8782C25.9032 14.9621 25.9788 15.1066 25.9932 15.3114C26.0153 15.6279 25.8562 16.163 25.516 16.9166C25.1744 17.6515 24.7495 18.5327 24.2413 19.5599C23.733 20.5872 23.2492 21.697 22.79 22.8893C22.9576 22.8776 23.1251 22.8659 23.2927 22.8541C23.4789 22.8411 23.6558 22.8287 23.8234 22.817C24.4379 22.7741 25.0797 22.7198 25.7488 22.6543C26.4365 22.5875 27.1222 22.4928 27.806 22.3701L27.8411 22.8729C26.8248 23.0562 25.9089 23.2045 25.0935 23.3177C24.2967 23.4295 23.5817 23.5076 22.9486 23.5518C22.8741 23.5571 22.7996 23.5623 22.7251 23.5675C22.6692 23.5714 22.6041 23.5759 22.5296 23.5811C22.1703 24.598 21.8782 25.6383 21.6531 26.7019C21.4281 27.7655 21.3501 28.7908 21.4191 29.7777C21.4751 30.5784 21.6365 31.1472 21.9033 31.4841C22.1689 31.8023 22.5809 31.9419 23.1396 31.9029C24.1079 31.8352 25.0276 31.3405 25.8988 30.4188C26.7699 29.4971 27.5079 28.276 28.1126 26.7554L28.4953 27.0093C28.1213 28.0834 27.6191 29.0635 26.9887 29.9496C26.3769 30.8344 25.6783 31.5476 24.8928 32.089C24.1073 32.6305 23.277 32.9318 22.4018 32.993ZM29.3352 32.5362C28.758 32.5766 28.2601 32.4149 27.8417 32.0512C27.406 31.7074 27.1608 31.1445 27.1062 30.3624C27.0593 29.6921 27.1581 28.9647 27.4027 28.1804C27.6459 27.3775 28.0022 26.5854 28.4715 25.8041C28.9395 25.0041 29.4779 24.2741 30.0867 23.6141C30.7128 22.9341 31.3759 22.3825 32.0761 21.9593C32.7949 21.5348 33.5174 21.2971 34.2436 21.2463C34.9699 21.1955 35.5887 21.3487 36.1002 21.7059C36.6104 22.0445 36.8876 22.5303 36.9319 23.1635C36.9645 23.629 36.8563 23.9547 36.6073 24.1405C36.3769 24.325 36.0569 24.4316 35.6472 24.4602C35.6741 24.3087 35.6909 24.1484 35.6978 23.9795C35.7221 23.7907 35.729 23.6218 35.7185 23.4729C35.6886 23.0446 35.5608 22.6886 35.3351 22.405C35.1081 22.1028 34.7433 21.9692 34.2405 22.0044C33.7191 22.0408 33.2014 22.2642 32.6875 22.6744C32.1722 23.0659 31.6846 23.5865 31.2248 24.2362C30.7637 24.8672 30.3624 25.5502 30.0208 26.2852C29.6793 27.0201 29.4209 27.7399 29.2456 28.4445C29.0703 29.1491 29.0015 29.7714 29.0393 30.3114C29.0901 31.0377 29.3669 31.3832 29.8696 31.348C30.2979 31.3181 30.7498 31.09 31.2252 30.6638C31.6993 30.219 32.1756 29.6711 32.654 29.0201C33.1498 28.3493 33.6163 27.6617 34.0536 26.9575C34.4908 26.2533 34.8762 25.6088 35.2095 25.0241C35.2762 24.9072 35.3188 24.8481 35.3375 24.8468C35.4505 24.8576 35.5927 24.8851 35.7642 24.9292C35.9544 24.9721 36.1178 25.0355 36.2547 25.1195C36.3916 25.2035 36.4652 25.3199 36.4756 25.4689C36.4873 25.6365 36.4198 25.8751 36.2731 26.1848C36.125 26.4758 35.9616 26.8147 35.7828 27.2015C35.604 27.5882 35.4445 27.983 35.3042 28.3857C35.1627 28.7699 35.1036 29.1295 35.1271 29.4647C35.1466 29.744 35.2406 30.0181 35.4091 30.287C35.5763 30.5373 35.8275 30.6507 36.1627 30.6273C36.6655 30.5922 37.3011 30.1828 38.0697 29.3993C38.8369 28.5972 39.5881 27.4312 40.3232 25.9016L40.622 26.1614C40.3013 27.1943 39.8604 28.1139 39.2993 28.9204C38.7381 29.7268 38.1188 30.3689 37.4411 30.8467C36.7821 31.3231 36.1174 31.5848 35.447 31.6317C34.758 31.6799 34.2316 31.5108 33.8678 31.1246C33.5226 30.7371 33.3331 30.3012 33.2992 29.8171C33.2914 29.7054 33.2922 29.5837 33.3017 29.452C33.3099 29.3017 33.3181 29.1515 33.3263 29.0012C32.6012 30.1372 31.9223 30.9987 31.2897 31.5856C30.6757 32.1712 30.0242 32.488 29.3352 32.5362ZM42.4452 31.1423C41.6445 31.1983 41.0477 30.9594 40.6549 30.4255C40.2819 29.9089 40.0668 29.2409 40.0095 28.4216C39.947 27.5278 40.0404 26.4546 40.2896 25.2022C40.5389 23.9498 40.886 22.625 41.3309 21.2279C41.7945 19.8295 42.3072 18.4651 42.8691 17.1346C43.4297 15.7856 43.9988 14.5575 44.5763 13.4506C45.1538 12.3436 45.6905 11.4546 46.1862 10.7838C46.7006 10.1116 47.116 9.76442 47.4326 9.74228C47.6374 9.72796 47.8135 9.83728 47.9608 10.0702C48.1067 10.2846 48.2287 10.5567 48.3266 10.8867C48.4232 11.1981 48.4806 11.4841 48.4989 11.7448C48.534 12.2476 48.4499 12.9177 48.2465 13.7553C48.0604 14.5729 47.7698 15.5008 47.3746 16.5389C46.9967 17.5571 46.527 18.6004 45.9655 19.6688C45.4213 20.7173 44.8093 21.7332 44.1296 22.7163C43.4684 23.6981 42.7517 24.5529 41.9792 25.2805C41.9026 25.7911 41.844 26.2911 41.8034 26.7805C41.7801 27.2499 41.7834 27.6988 41.8134 28.127C41.8641 28.8533 42.0043 29.3861 42.2339 29.7256C42.4635 30.0651 42.7831 30.2205 43.1928 30.1919C43.6955 30.1567 44.1734 29.8987 44.6263 29.418C45.0978 28.9359 45.5242 28.3447 45.9057 27.6444C46.3044 26.9242 46.6366 26.1899 46.9024 25.4415L47.337 25.6357C46.7029 27.2706 45.9807 28.5841 45.1706 29.5764C44.3592 30.55 43.4508 31.072 42.4452 31.1423ZM42.1642 24.3133C42.7703 23.616 43.3514 22.8268 43.9073 21.9459C44.4619 21.0464 44.968 20.1222 45.4256 19.1733C45.9018 18.2231 46.3148 17.3053 46.6645 16.4201C47.0143 15.5349 47.2775 14.7493 47.4541 14.0633C47.6293 13.3587 47.704 12.8202 47.6779 12.4478C47.6649 12.2615 47.6285 12.1425 47.5687 12.0905C47.5276 12.0372 47.4884 12.0119 47.4511 12.0145C47.3022 12.0249 47.0584 12.2852 46.7198 12.7954C46.3986 13.2857 46.0239 13.9481 45.5957 14.7827C45.1676 15.6173 44.7379 16.5642 44.3067 17.6235C43.8756 18.6829 43.4663 19.7874 43.0789 20.9373C42.7101 22.0858 42.4052 23.2111 42.1642 24.3133ZM56.6653 31.3549C55.697 31.4226 54.9487 31.1568 54.4202 30.5576C53.9104 29.957 53.6178 29.1167 53.5422 28.0367C53.4771 27.1056 53.5586 25.9959 53.7866 24.7075C54.0146 23.4191 54.3412 22.0677 54.7662 20.6533C55.1899 19.2202 55.6721 17.8205 56.2128 16.4542C56.7721 15.0865 57.3405 13.8491 57.918 12.7422C58.4942 11.6166 59.0488 10.717 59.5818 10.0435C60.1135 9.35142 60.5656 8.99235 60.938 8.9663C61.2545 8.94417 61.4917 9.12407 61.6494 9.506C61.8257 9.88662 61.9275 10.2725 61.9549 10.6635C61.9913 11.1849 61.9239 11.8258 61.7525 12.5863C61.5811 13.3468 61.3205 14.1696 60.9708 15.0548C60.6197 15.9214 60.2028 16.7833 59.7201 17.6404C59.2374 18.4975 58.7035 19.2927 58.1186 20.0259C57.551 20.7392 56.955 21.3142 56.3306 21.7508C56.2332 21.9635 56.0955 22.4035 55.9176 23.0709C55.7571 23.7183 55.613 24.4675 55.4854 25.3185C55.3751 26.1495 55.3473 26.9561 55.402 27.7382C55.4553 28.5017 55.6107 29.1177 55.868 29.5862C56.1452 30.072 56.5632 30.2954 57.1218 30.2564C57.6618 30.2186 58.2048 29.9561 58.7508 29.4688C59.2981 29.0002 59.7246 28.409 60.0302 27.6952C59.3165 27.3896 58.7686 26.9134 58.3866 26.2664C58.0032 25.6009 57.7874 24.9236 57.7393 24.2346C57.6768 23.3408 57.8594 22.6076 58.2872 22.0351C58.7149 21.4625 59.2454 21.1541 59.8785 21.1098C60.4185 21.072 60.8624 21.2655 61.2102 21.6903C61.5567 22.0965 61.7593 22.7185 61.8179 23.5565C61.8609 24.171 61.8213 24.8099 61.6993 25.4734C61.5773 26.1369 61.3795 26.7869 61.1059 27.4236C61.2189 27.4344 61.332 27.4452 61.445 27.456C61.5766 27.4655 61.7076 27.4657 61.838 27.4566C62.5084 27.4097 63.0559 27.2123 63.4807 26.8645C63.9042 26.4981 64.2486 26.0717 64.514 25.5853C64.7967 25.0791 65.0255 24.6046 65.2004 24.162L65.5609 24.5017C65.1294 25.823 64.5655 26.7232 63.8692 27.2023C63.1902 27.6614 62.497 27.9157 61.7894 27.9652C61.6404 27.9756 61.4908 27.9767 61.3405 27.9685C61.1902 27.9603 61.0399 27.9521 60.8897 27.9439C60.4468 28.8356 59.8738 29.6055 59.1706 30.2534C58.4873 30.9187 57.6522 31.2859 56.6653 31.3549ZM60.2705 27.1171C60.4454 26.6745 60.5724 26.2165 60.6516 25.7432C60.7295 25.2512 60.7508 24.7538 60.7157 24.251C60.6701 23.5993 60.5412 23.0937 60.3289 22.7343C60.1353 22.3736 59.9081 22.2024 59.6474 22.2206C59.3681 22.2401 59.1304 22.4533 58.9343 22.8599C58.7555 23.2467 58.6863 23.7287 58.7266 24.3059C58.7618 24.8087 58.9013 25.3322 59.1452 25.8766C59.3891 26.4209 59.7642 26.8344 60.2705 27.1171ZM56.5616 20.64C57.0544 20.1939 57.5207 19.6373 57.9606 18.9704C58.4191 18.3021 58.8377 17.5992 59.2165 16.8616C59.594 16.1054 59.9263 15.3711 60.2133 14.6587C60.5003 13.9463 60.7174 13.3043 60.8645 12.7326C61.0117 12.1609 61.0755 11.7355 61.056 11.4561C61.0494 11.363 61.0362 11.3078 61.0163 11.2905C60.9951 11.2546 60.9658 11.2379 60.9286 11.2405C60.7796 11.2509 60.5099 11.5411 60.1194 12.1111C59.7462 12.6611 59.3301 13.4013 58.8712 14.3315C58.4296 15.2419 57.9952 16.2547 57.568 17.3699C57.1394 18.4664 56.804 19.5565 56.5616 20.64ZM68.0203 29.7469C66.8845 29.8263 66.0057 29.5697 65.3842 28.9769C64.7826 28.4015 64.4499 27.6575 64.3861 26.7451C64.3275 25.9071 64.4705 25.0083 64.815 24.0486C65.1782 23.0876 65.6757 22.1733 66.3074 21.3058C66.9577 20.437 67.6842 19.7219 68.487 19.1605C69.2885 18.5806 70.0989 18.2619 70.9183 18.2046C71.3465 18.1747 71.7454 18.2591 72.1148 18.4578C72.5029 18.6552 72.721 19.0984 72.7692 19.7874C72.8187 20.495 72.6514 21.1803 72.2674 21.8434C71.9007 22.4865 71.3898 23.0743 70.7346 23.6066C70.0981 24.1376 69.3813 24.5901 68.5841 24.9639C67.8042 25.3178 67.0165 25.56 66.221 25.6905C66.1968 25.8793 66.1812 26.0582 66.1743 26.2271C66.1674 26.396 66.1692 26.5549 66.1796 26.7039C66.1991 26.9832 66.2466 27.2606 66.322 27.536C66.416 27.8101 66.5553 28.0623 66.7398 28.2927C66.923 28.5044 67.1588 28.6657 67.4473 28.7765C67.7543 28.886 68.122 28.9258 68.5503 28.8958C69.351 28.8399 70.1268 28.5611 70.8776 28.0595C71.6271 27.5392 72.311 26.8833 72.9293 26.0915C73.5476 25.2998 74.0583 24.4408 74.4613 23.5144L74.814 23.7424C74.3894 24.8948 73.8147 25.908 73.0899 26.782C72.3837 27.6548 71.59 28.3465 70.7088 28.8572C69.8476 29.3852 68.9514 29.6818 68.0203 29.7469ZM66.3236 25.1501C66.8146 24.9473 67.3656 24.6655 67.9766 24.3047C68.5863 23.9252 69.1641 23.4919 69.7101 23.0046C70.2748 22.516 70.7244 21.9887 71.0591 21.4226C71.4124 20.8553 71.5682 20.2737 71.5265 19.6778C71.5122 19.4729 71.4639 19.3173 71.3816 19.2108C71.2993 19.1042 71.1371 19.0594 70.895 19.0764C70.4481 19.1076 69.9856 19.3177 69.5076 19.7067C69.0283 20.077 68.5754 20.5578 68.1489 21.149C67.7224 21.7402 67.3464 22.384 67.0209 23.0804C66.6953 23.7768 66.4629 24.4667 66.3236 25.1501ZM75.6518 29.2974C75.0745 29.3378 74.5767 29.1761 74.1583 28.8124C73.7226 28.4687 73.4774 27.9057 73.4227 27.1236C73.3759 26.4533 73.4747 25.7259 73.7193 24.9416C73.9625 24.1387 74.3188 23.3466 74.7881 22.5653C75.2561 21.7654 75.7945 21.0354 76.4033 20.3753C77.0293 19.6953 77.6925 19.1437 78.3927 18.7205C79.1115 18.296 79.834 18.0583 80.5602 18.0076C81.2864 17.9568 81.9053 18.11 82.4168 18.4672C82.927 18.8057 83.2042 19.2916 83.2485 19.9247C83.2811 20.3902 83.1728 20.7159 82.9239 20.9017C82.6935 21.0862 82.3735 21.1928 81.9638 21.2215C81.9907 21.0699 82.0075 20.9097 82.0144 20.7408C82.0386 20.552 82.0455 20.3831 82.0351 20.2341C82.0052 19.8058 81.8774 19.4499 81.6517 19.1662C81.4247 18.864 81.0599 18.7305 80.5571 18.7656C80.0357 18.8021 79.518 19.0254 79.004 19.4356C78.4888 19.8271 78.0012 20.3478 77.5414 20.9974C77.0803 21.6285 76.679 22.3114 76.3374 23.0464C75.9959 23.7813 75.7374 24.5011 75.5622 25.2057C75.3869 25.9103 75.3181 26.5327 75.3559 27.0727C75.4067 27.7989 75.6835 28.1444 76.1862 28.1093C76.6145 28.0793 77.0664 27.8512 77.5418 27.425C78.0159 26.9802 78.4922 26.4323 78.9706 25.7814C79.4664 25.1105 79.9329 24.4229 80.3701 23.7187C80.8074 23.0145 81.1927 22.3701 81.5261 21.7854C81.5928 21.6684 81.6354 21.6093 81.654 21.608C81.7671 21.6188 81.9093 21.6463 82.0808 21.6905C82.2709 21.7333 82.4344 21.7967 82.5713 21.8807C82.7082 21.9647 82.7818 22.0812 82.7922 22.2301C82.8039 22.3977 82.7364 22.6364 82.5897 22.946C82.4416 23.2371 82.2782 23.5759 82.0994 23.9627C81.9206 24.3494 81.7611 24.7442 81.6208 25.147C81.4793 25.5311 81.4202 25.8908 81.4437 26.2259C81.4632 26.5053 81.5572 26.7794 81.7257 27.0483C81.8929 27.2986 82.1441 27.412 82.4793 27.3885C82.9821 27.3534 83.6177 26.944 84.3863 26.1605C85.1535 25.3584 85.9047 24.1925 86.6398 22.6628L86.9386 22.9226C86.6179 23.9555 86.177 24.8751 85.6158 25.6816C85.0547 26.488 84.4354 27.1301 83.7577 27.6079C83.0987 28.0844 82.434 28.346 81.7636 28.3929C81.0746 28.4411 80.5482 28.2721 80.1844 27.8858C79.8392 27.4983 79.6496 27.0625 79.6158 26.5783C79.608 26.4666 79.6088 26.3449 79.6183 26.2132C79.6265 26.063 79.6347 25.9127 79.6429 25.7624C78.9177 26.8984 78.2389 27.7599 77.6063 28.3468C76.9923 28.9324 76.3408 29.2493 75.6518 29.2974ZM88.5384 27.9192C87.9052 27.9634 87.3736 27.7199 86.9435 27.1886C86.5307 26.6374 86.2983 25.9894 86.2462 25.2445C86.2084 24.7045 86.2486 24.0749 86.3667 23.3555C86.5035 22.6349 86.6781 21.921 86.8906 21.2138C87.1031 20.5066 87.3334 19.9197 87.5815 19.4533C87.8296 18.9869 88.056 18.7465 88.2608 18.7321C88.3539 18.7256 88.5161 18.7704 88.7474 18.8665C88.9774 18.944 89.1727 19.0613 89.3334 19.2185C89.1507 19.5494 88.9331 20.0511 88.6808 20.7237C88.4284 21.3963 88.2166 22.1128 88.0452 22.8733C87.8738 23.6338 87.8103 24.3306 87.8545 24.9637C87.865 25.1126 87.8998 25.3441 87.9592 25.6581C88.0173 25.9534 88.1293 26.2169 88.2952 26.4485C88.4611 26.6802 88.693 26.7856 88.9909 26.7648C89.3447 26.74 89.6955 26.5378 90.0432 26.1579C90.3896 25.7594 90.7288 25.2586 91.0608 24.6553C91.4115 24.0507 91.7403 23.4008 92.0472 22.7057C92.3542 22.0106 92.6351 21.3454 92.8901 20.71C93.1637 20.0734 93.3886 19.5431 93.5647 19.1191C93.6778 19.1299 93.8387 19.1561 94.0474 19.1976C94.2748 19.2379 94.4755 19.2987 94.6496 19.3801C94.8423 19.4602 94.9445 19.584 94.9563 19.7516C94.9615 19.8261 94.8859 20.084 94.7297 20.5253C94.5721 20.948 94.3845 21.4757 94.1667 22.1084C93.9663 22.7212 93.7945 23.3414 93.6513 23.9689C93.508 24.5964 93.4527 25.1429 93.4852 25.6085C93.5087 25.9436 93.5927 26.2091 93.7374 26.4048C93.9007 26.5992 94.1499 26.6847 94.4851 26.6613C94.8762 26.6339 95.3386 26.4238 95.8725 26.031C96.4064 25.6381 96.9386 25.0863 97.4689 24.3756C97.998 23.6462 98.4528 22.7911 98.8333 21.8101L99.214 22.0361C98.8933 23.069 98.4437 23.9987 97.8652 24.825C97.2855 25.6328 96.6568 26.2755 95.9792 26.7533C95.3015 27.2311 94.6275 27.4934 93.9571 27.5403C93.473 27.5741 93.0754 27.5083 92.7645 27.343C92.4721 27.1763 92.2497 26.9392 92.0972 26.6318C91.9634 26.323 91.8834 25.9824 91.8574 25.61C91.8417 25.3866 91.8447 25.1618 91.8664 24.9358C91.8867 24.6911 91.9163 24.4457 91.9552 24.1998C91.663 24.8377 91.3403 25.4403 90.987 26.0077C90.6324 26.5564 90.252 27.0041 89.8459 27.3506C89.4397 27.6971 89.0039 27.8866 88.5384 27.9192ZM101.096 27.4901C100.296 27.5461 99.6649 27.3563 99.204 26.9207C98.7432 26.4852 98.4809 25.8111 98.4171 24.8987C98.3598 24.0794 98.4384 23.0634 98.653 21.8508C98.885 20.6183 99.1894 19.3527 99.5664 18.0539C99.3776 18.0296 99.1987 18.0141 99.0298 18.0072C98.8596 17.9817 98.6981 17.9462 98.5452 17.9007L98.5101 17.3979C98.6603 17.4062 98.8386 17.4124 99.0447 17.4167C99.2508 17.421 99.4849 17.4233 99.7469 17.4237C100.068 16.3908 100.419 15.3932 100.801 14.4309C101.181 13.45 101.56 12.5814 101.938 11.8253C102.333 11.0492 102.71 10.4333 103.072 9.97768C103.45 9.50212 103.779 9.25458 104.058 9.23505C104.207 9.22463 104.341 9.27138 104.461 9.37529C104.598 9.45928 104.673 9.6037 104.688 9.80853C104.71 10.1251 104.551 10.6602 104.211 11.4137C103.869 12.1487 103.444 13.0298 102.936 14.0571C102.428 15.0844 101.944 16.1942 101.485 17.3864C101.652 17.3747 101.82 17.363 101.987 17.3513C102.174 17.3383 102.35 17.3259 102.518 17.3142C103.132 17.2712 103.774 17.217 104.443 17.1515C105.131 17.0847 105.817 16.9899 106.501 16.8673L106.536 17.37C105.519 17.5534 104.603 17.7016 103.788 17.8148C102.991 17.9266 102.276 18.0047 101.643 18.049C101.569 18.0542 101.494 18.0594 101.42 18.0646C101.364 18.0685 101.299 18.0731 101.224 18.0783C100.865 19.0952 100.573 20.1354 100.348 21.199C100.123 22.2626 100.045 23.2879 100.114 24.2748C100.17 25.0755 100.331 25.6443 100.598 25.9812C100.863 26.2995 101.275 26.4391 101.834 26.4C102.802 26.3323 103.722 25.8376 104.593 24.9159C105.464 23.9942 106.202 22.7731 106.807 21.2526L107.19 21.5065C106.816 22.5805 106.314 23.5606 105.683 24.4467C105.071 25.3316 104.373 26.0447 103.587 26.5862C102.802 27.1276 101.972 27.4289 101.096 27.4901ZM108.345 33.5512C107.88 33.5838 107.461 33.4821 107.089 33.2461C106.718 33.0288 106.516 32.6781 106.482 32.1939C106.44 31.598 106.552 31.0569 106.818 30.5705C107.083 30.0842 107.453 29.6279 107.929 29.2017C108.404 28.7755 108.955 28.3627 109.582 27.9633C110.209 27.5639 110.864 27.1626 111.547 26.7593C111.76 26.0521 111.967 25.2704 112.169 24.4142C112.389 23.5381 112.584 22.5795 112.754 21.5384C112.226 22.5484 111.642 23.4313 111.002 24.1871C110.38 24.9229 109.687 25.3175 108.924 25.3709C108.57 25.3957 108.211 25.3459 107.847 25.2217C107.5 25.0775 107.203 24.8457 106.956 24.5261C106.709 24.2066 106.568 23.7861 106.531 23.2647C106.495 22.7433 106.536 22.1323 106.656 21.4316C106.794 20.7296 106.97 20.0436 107.185 19.3736C107.401 18.7036 107.633 18.1447 107.882 17.6969C108.132 17.2491 108.359 17.018 108.563 17.0037C108.638 16.9985 108.77 17.0173 108.96 17.0602C109.169 17.1017 109.361 17.1725 109.537 17.2725C109.729 17.3526 109.83 17.4485 109.837 17.5602C109.687 17.814 109.525 18.1715 109.351 18.6327C109.177 19.094 109.008 19.6111 108.842 20.184C108.694 20.7371 108.572 21.2788 108.478 21.8093C108.385 22.3398 108.351 22.7913 108.377 23.1637C108.4 23.4989 108.493 23.7637 108.657 23.9581C108.82 24.1525 109.088 24.2367 109.46 24.2107C109.814 24.186 110.193 23.991 110.598 23.6259C111.021 23.2408 111.427 22.7633 111.817 22.1934C112.227 21.6221 112.596 21.0162 112.925 20.3756C112.967 20.1669 112.999 19.9588 113.022 19.7514C113.062 19.524 113.093 19.2973 113.115 19.0713C113.152 18.8067 113.262 18.4996 113.443 18.1501C113.642 17.7807 113.974 17.5797 114.44 17.5471C114.533 17.5406 114.627 17.5434 114.721 17.5555C114.814 17.549 114.918 17.5605 115.032 17.5899C115.053 17.8878 114.999 18.453 114.87 19.2853C114.758 20.0978 114.573 21.0557 114.313 22.1592C114.072 23.2614 113.768 24.396 113.4 25.5631C114.252 25.1668 115.07 24.5575 115.855 23.7355C116.638 22.8948 117.245 21.8138 117.677 20.4925L118.06 20.7464C117.843 21.6597 117.469 22.4718 116.939 23.1825C116.426 23.8733 115.832 24.4855 115.159 25.0192C114.484 25.5342 113.813 25.9741 113.146 26.3388C112.745 27.5644 112.292 28.7188 111.788 29.8019C111.302 30.8838 110.765 31.7634 110.176 32.4408C109.607 33.1355 108.997 33.5057 108.345 33.5512ZM108.143 32.6672C108.422 32.6477 108.862 32.2427 109.462 31.4523C110.081 30.6791 110.699 29.3448 111.315 27.4492C110.58 27.9123 109.9 28.3621 109.276 28.7987C108.653 29.254 108.162 29.728 107.804 30.2209C107.445 30.7138 107.287 31.2675 107.33 31.882C107.341 32.0309 107.409 32.2039 107.535 32.4009C107.661 32.598 107.864 32.6867 108.143 32.6672ZM127.742 25.7672C126.867 25.8284 126.155 25.6817 125.606 25.3272C125.077 24.9899 124.691 24.5491 124.447 24.0048C124.184 23.4618 124.033 22.911 123.994 22.3523C123.955 21.7937 124 21.3602 124.128 21.0518C124.256 20.7435 124.417 20.5077 124.612 20.3444C124.825 20.1798 125.022 20.0537 125.203 19.9662C125.403 19.8774 125.537 19.7931 125.606 19.7135C126.122 19.0599 126.589 18.3817 127.008 17.6787C127.426 16.9758 127.787 16.2396 128.088 15.47L128.065 15.1348C128.017 14.4458 128.095 13.9539 128.298 13.6589C128.52 13.344 128.761 13.1775 129.021 13.1593C129.17 13.1488 129.285 13.1783 129.364 13.2476C129.444 13.3168 129.487 13.398 129.494 13.4911C129.5 13.5842 129.483 13.7352 129.441 13.9439C129.4 14.1526 129.39 14.4153 129.412 14.7318C129.455 15.3463 129.623 16.0082 129.916 16.7175C130.207 17.4082 130.502 18.1455 130.8 18.9292C131.097 19.6944 131.275 20.5053 131.335 21.3618C131.352 21.6039 131.35 21.8473 131.33 22.092C131.327 22.3167 131.305 22.5335 131.263 22.7422C131.907 22.5849 132.502 22.2533 133.046 21.7474C133.59 21.2229 134.095 20.4204 134.562 19.3398L134.833 19.6016C134.551 20.6505 134.075 21.4697 133.405 22.0592C132.734 22.63 131.984 23.0099 131.155 23.1989C130.913 24.0204 130.479 24.6402 129.853 25.0582C129.246 25.4749 128.542 25.7112 127.742 25.7672ZM127.729 24.7857C127.953 24.7701 128.245 24.6748 128.607 24.4998C128.969 24.3248 129.231 23.9228 129.393 23.294C128.601 23.1997 127.881 22.9413 127.234 22.5188C126.605 22.0949 126.126 21.6606 125.795 21.2159C125.387 21.2632 125.205 21.6034 125.249 22.2365C125.296 22.9069 125.535 23.517 125.967 24.0669C126.416 24.5969 127.003 24.8365 127.729 24.7857ZM129.502 22.8373C129.526 22.6485 129.54 22.451 129.544 22.2449C129.549 22.0388 129.541 21.796 129.522 21.5167C129.46 20.6415 129.288 19.7835 129.005 18.9425C128.739 18.0816 128.505 17.2747 128.302 16.5216C127.923 17.2592 127.515 17.9708 127.076 18.6564C126.655 19.322 126.245 19.884 125.847 20.3422C126.168 20.9186 126.635 21.4472 127.249 21.9283C127.881 22.408 128.632 22.711 129.502 22.8373ZM135.771 25.0935C135.193 25.1339 134.696 24.9722 134.277 24.6085C133.841 24.2648 133.596 23.7018 133.542 22.9197C133.495 22.2494 133.594 21.522 133.838 20.7377C134.081 19.9348 134.438 19.1427 134.907 18.3614C135.375 17.5615 135.913 16.8314 136.522 16.1714C137.148 15.4914 137.811 14.9398 138.511 14.5166C139.23 14.0921 139.953 13.8544 140.679 13.8036C141.405 13.7529 142.024 13.9061 142.536 14.2632C143.046 14.6018 143.323 15.0877 143.367 15.7208C143.4 16.1863 143.292 16.512 143.043 16.6978C142.812 16.8823 142.492 16.9889 142.083 17.0176C142.109 16.866 142.126 16.7057 142.133 16.5369C142.157 16.348 142.164 16.1791 142.154 16.0302C142.124 15.6019 141.996 15.2459 141.771 14.9623C141.544 14.6601 141.179 14.5265 140.676 14.5617C140.155 14.5982 139.637 14.8215 139.123 15.2317C138.608 15.6232 138.12 16.1438 137.66 16.7935C137.199 17.4245 136.798 18.1075 136.456 18.8425C136.115 19.5774 135.856 20.2972 135.681 21.0018C135.506 21.7064 135.437 22.3287 135.475 22.8688C135.525 23.595 135.802 23.9405 136.305 23.9054C136.733 23.8754 137.185 23.6473 137.661 23.2211C138.135 22.7763 138.611 22.2284 139.089 21.5775C139.585 20.9066 140.052 20.219 140.489 19.5148C140.926 18.8106 141.312 18.1661 141.645 17.5815C141.712 17.4645 141.754 17.4054 141.773 17.4041C141.886 17.4149 142.028 17.4424 142.2 17.4865C142.39 17.5294 142.553 17.5928 142.69 17.6768C142.827 17.7608 142.901 17.8773 142.911 18.0262C142.923 18.1938 142.855 18.4324 142.708 18.7421C142.56 19.0331 142.397 19.372 142.218 19.7588C142.039 20.1455 141.88 20.5403 141.74 20.943C141.598 21.3272 141.539 21.6868 141.562 22.022C141.582 22.3013 141.676 22.5755 141.845 22.8444C142.012 23.0946 142.263 23.2081 142.598 23.1846C143.101 23.1495 143.737 22.7401 144.505 21.9566C145.272 21.1545 146.023 19.9886 146.759 18.4589L147.057 18.7187C146.737 19.7516 146.296 20.6712 145.735 21.4777C145.174 22.2841 144.554 22.9262 143.877 23.404C143.217 23.8804 142.553 24.1421 141.882 24.189C141.193 24.2372 140.667 24.0681 140.303 23.6819C139.958 23.2944 139.768 22.8585 139.735 22.3744C139.727 22.2627 139.728 22.141 139.737 22.0093C139.745 21.8591 139.754 21.7088 139.762 21.5585C139.037 22.6945 138.358 23.556 137.725 24.1429C137.111 24.7285 136.46 25.0454 135.771 25.0935ZM148.881 23.6996C148.08 23.7556 147.483 23.5167 147.09 22.9828C146.717 22.4662 146.502 21.7982 146.445 20.9789C146.382 20.0851 146.476 19.012 146.725 17.7595C146.974 16.5071 147.321 15.1823 147.766 13.7852C148.23 12.3868 148.743 11.0224 149.305 9.69193C149.865 8.34287 150.434 7.11485 151.012 6.00787C151.589 4.90089 152.126 4.01196 152.622 3.34107C153.136 2.66889 153.551 2.32173 153.868 2.29959C154.073 2.28527 154.249 2.39459 154.396 2.62755C154.542 2.84189 154.664 3.11405 154.762 3.44402C154.859 3.75537 154.916 4.0414 154.934 4.30209C154.969 4.80486 154.885 5.47503 154.682 6.31259C154.496 7.13023 154.205 8.0581 153.81 9.0962C153.432 10.1144 152.962 11.1577 152.401 12.2261C151.857 13.2746 151.245 14.2905 150.565 15.2736C149.904 16.2554 149.187 17.1102 148.415 17.8379C148.338 18.3484 148.279 18.8484 148.239 19.3378C148.216 19.8072 148.219 20.2561 148.249 20.6844C148.3 21.4106 148.44 21.9434 148.669 22.2829C148.899 22.6224 149.218 22.7778 149.628 22.7492C150.131 22.714 150.609 22.456 151.062 21.9753C151.533 21.4932 151.96 20.902 152.341 20.2017C152.74 19.4815 153.072 18.7472 153.338 17.9988L153.772 18.193C153.138 19.8279 152.416 21.1414 151.606 22.1337C150.795 23.1073 149.886 23.6293 148.881 23.6996ZM148.6 16.8706C149.206 16.1733 149.787 15.3842 150.343 14.5032C150.897 13.6037 151.403 12.6795 151.861 11.7306C152.337 10.7804 152.75 9.86266 153.1 8.97744C153.45 8.09222 153.713 7.30661 153.889 6.62062C154.065 5.91601 154.139 5.3775 154.113 5.00507C154.1 4.81886 154.064 4.69978 154.004 4.64782C153.963 4.59456 153.924 4.56923 153.887 4.57183C153.738 4.58225 153.494 4.84256 153.155 5.35275C152.834 5.84302 152.459 6.50544 152.031 7.34001C151.603 8.17457 151.173 9.12152 150.742 10.1808C150.311 11.2402 149.902 12.3447 149.514 13.4946C149.146 14.6431 148.841 15.7684 148.6 16.8706ZM155.095 23.3212C154.294 23.3772 153.708 23.1656 153.338 22.6862C152.969 22.2255 152.76 21.6414 152.71 20.9338C152.67 20.3565 152.721 19.7541 152.865 19.1266C153.008 18.4991 153.209 17.9049 153.47 17.344C153.748 16.7819 154.062 16.3202 154.411 15.959C154.779 15.5964 155.158 15.4015 155.549 15.3742C155.642 15.3677 155.737 15.3798 155.833 15.4105C155.946 15.4213 156.05 15.4421 156.146 15.4728C155.988 15.6335 155.803 15.9271 155.59 16.3537C155.394 16.7604 155.211 17.2316 155.043 17.7673C154.873 18.2844 154.732 18.7995 154.618 19.3127C154.523 19.8246 154.487 20.2575 154.512 20.6113C154.551 21.1699 154.673 21.5731 154.877 21.8207C155.081 22.0498 155.331 22.1539 155.629 22.1331C156.02 22.1057 156.471 21.8683 156.983 21.4209C157.493 20.9549 157.986 20.3777 158.461 19.6895C157.91 19.2977 157.461 18.7677 157.115 18.0996C156.786 17.4115 156.597 16.7043 156.546 15.9781C156.503 15.3636 156.565 14.7792 156.732 14.2249C156.918 13.6692 157.204 13.2188 157.592 12.8736C157.978 12.5098 158.46 12.3077 159.037 12.2673C159.801 12.2139 160.327 12.3829 160.616 12.7744C160.906 13.1658 161.072 13.6688 161.115 14.2833C161.166 15.0095 161.045 15.8319 160.754 16.7505C160.461 17.6504 160.074 18.5289 159.591 19.386C159.939 19.5488 160.3 19.6171 160.672 19.5911C160.97 19.5703 161.301 19.491 161.666 19.3532C162.029 19.1968 162.377 18.9573 162.71 18.6346C163.062 18.3106 163.332 17.8894 163.52 17.371L163.875 17.6269C163.564 18.5281 163.076 19.1891 162.413 19.6097C161.768 20.0103 161.138 20.2322 160.523 20.2751C160.281 20.2921 160.047 20.2897 159.821 20.2681C159.594 20.2279 159.374 20.1683 159.163 20.0896C158.589 20.9718 157.939 21.7189 157.215 22.3309C156.509 22.9417 155.802 23.2718 155.095 23.3212ZM158.913 18.9282C159.331 18.2066 159.662 17.463 159.908 16.6973C160.171 15.9117 160.28 15.1837 160.233 14.5134C160.195 13.9734 160.084 13.5882 159.899 13.3578C159.732 13.1075 159.527 12.9909 159.285 13.0078C158.913 13.0338 158.55 13.3305 158.197 13.8979C157.844 14.4652 157.696 15.1586 157.753 15.9779C157.791 16.5179 157.903 17.0621 158.091 17.6103C158.297 18.1386 158.571 18.5779 158.913 18.9282ZM172.367 21.7766C171.716 21.8222 171.211 21.6891 170.852 21.3773C170.512 21.0643 170.324 20.6471 170.287 20.1257C170.26 19.7346 170.296 19.3204 170.397 18.883C170.516 18.4443 170.625 17.9969 170.724 17.5409C170.822 17.0663 170.856 16.6148 170.826 16.1865C170.789 15.6651 170.653 15.3191 170.416 15.1485C170.197 14.958 169.929 14.8738 169.613 14.896C169.036 14.9363 168.466 15.2194 167.904 15.7453C167.341 16.2525 166.806 16.898 166.299 17.6819C165.791 18.4472 165.323 19.2378 164.893 20.0538C164.464 20.8697 164.084 21.598 163.755 22.2385C163.457 22.2593 163.174 22.223 162.905 22.1295C162.619 22.0559 162.395 21.9219 162.231 21.7275C162.225 21.6344 162.307 21.3386 162.478 20.8402C162.63 20.343 162.812 19.7315 163.023 19.0056C163.235 18.2798 163.417 17.5373 163.569 16.7781C163.722 16.019 163.777 15.3321 163.734 14.7176C163.837 14.5795 164.004 14.4367 164.237 14.2895C164.47 14.1422 164.717 14.0594 164.978 14.0412C165.481 14.0061 165.749 14.2306 165.783 14.7147C165.804 15.0126 165.755 15.5213 165.637 16.2406C165.517 16.9413 165.354 17.6825 165.147 18.4642C165.596 17.6656 166.102 16.8724 166.665 16.0845C167.244 15.2768 167.87 14.5968 168.543 14.0445C169.215 13.4923 169.905 13.1914 170.613 13.1419C171.339 13.0912 171.879 13.3154 172.232 13.8147C172.603 14.3126 172.811 14.8781 172.856 15.5113C172.896 16.0885 172.841 16.6351 172.69 17.1508C172.537 17.648 172.375 18.1365 172.203 18.6164C172.048 19.0763 171.986 19.539 172.019 20.0046C172.046 20.3956 172.14 20.6697 172.301 20.8269C172.479 20.9642 172.689 21.0243 172.931 21.0074C173.397 20.9748 173.847 20.7281 174.283 20.2673C174.717 19.7878 175.125 19.1979 175.506 18.4976C175.906 17.796 176.25 17.089 176.537 16.3766L176.87 16.7182C176.542 17.658 176.161 18.4986 175.727 19.2401C175.292 19.9815 174.8 20.5773 174.252 21.0273C173.703 21.4773 173.075 21.7271 172.367 21.7766ZM89.1825 61.5441C88.3073 61.6053 87.5954 61.4587 87.0466 61.1041C86.5178 60.7668 86.1315 60.326 85.8876 59.7817C85.625 59.2387 85.4742 58.6879 85.4352 58.1292C85.3961 57.5706 85.4407 57.1371 85.5688 56.8287C85.6969 56.5204 85.8582 56.2846 86.0526 56.1213C86.2657 55.9567 86.4627 55.8306 86.6437 55.7431C86.8433 55.6543 86.9778 55.5701 87.047 55.4904C87.5627 54.8368 88.0299 54.1586 88.4485 53.4556C88.8672 52.7527 89.2274 52.0165 89.5291 51.2469L89.5056 50.9117C89.4575 50.2227 89.5353 49.7308 89.7392 49.4358C89.9605 49.1209 90.2015 48.9544 90.4622 48.9362C90.6111 48.9258 90.7255 48.9552 90.8051 49.0245C90.8848 49.0937 90.9279 49.1749 90.9345 49.268C90.941 49.3611 90.9235 49.5121 90.8819 49.7208C90.8404 49.9295 90.8307 50.1922 90.8528 50.5087C90.8958 51.1232 91.0637 51.7851 91.3565 52.4944C91.6481 53.1851 91.9429 53.9224 92.241 54.7061C92.5377 55.4713 92.7161 56.2822 92.776 57.1387C92.7929 57.3808 92.7912 57.6242 92.7709 57.8689C92.7679 58.0936 92.7456 58.3104 92.7041 58.5191C93.348 58.3618 93.9423 58.0302 94.487 57.5243C95.0304 56.9998 95.5357 56.1973 96.0028 55.1167L96.2737 55.3785C95.9915 56.4274 95.5155 57.2466 94.8457 57.8361C94.1745 58.4069 93.4245 58.7869 92.5957 58.9758C92.3537 59.7973 91.9199 60.4171 91.2942 60.8351C90.6871 61.2518 89.9832 61.4882 89.1825 61.5441ZM89.17 60.5626C89.3935 60.547 89.6862 60.4517 90.0482 60.2767C90.4102 60.1017 90.6722 59.6997 90.834 59.0709C90.0415 58.9766 89.3217 58.7182 88.6747 58.2957C88.0463 57.8718 87.5668 57.4375 87.2363 56.9928C86.8279 57.0401 86.6459 57.3803 86.6902 58.0134C86.737 58.6838 86.9762 59.2939 87.4076 59.8438C87.8563 60.3738 88.4438 60.6134 89.17 60.5626ZM90.9424 58.6142C90.9667 58.4254 90.9809 58.228 90.9852 58.0218C90.9895 57.8157 90.9819 57.573 90.9624 57.2936C90.9012 56.4184 90.7289 55.5604 90.4455 54.7194C90.1795 53.8585 89.9453 53.0516 89.7429 52.2985C89.3641 53.0361 88.9555 53.7477 88.5169 54.4333C88.0956 55.0989 87.6858 55.6609 87.2875 56.1191C87.6085 56.6955 88.0758 57.2242 88.6895 57.7052C89.3219 58.1849 90.0728 58.4879 90.9424 58.6142ZM97.7687 60.4104C96.968 60.4664 96.3825 60.2548 96.0121 59.7754C95.6431 59.3147 95.4338 58.7306 95.3844 58.0229C95.344 57.4457 95.3954 56.8433 95.5387 56.2158C95.6819 55.5883 95.8836 54.9941 96.1438 54.4332C96.4226 53.8711 96.7365 53.4094 97.0855 53.0482C97.4531 52.6856 97.8324 52.4907 98.2234 52.4634C98.3166 52.4569 98.411 52.469 98.5067 52.4997C98.6197 52.5105 98.7241 52.5313 98.8198 52.562C98.6626 52.7227 98.4773 53.0163 98.2639 53.4429C98.0678 53.8496 97.8855 54.3208 97.7172 54.8565C97.5475 55.3736 97.4057 55.8887 97.2919 56.4019C97.1967 56.9138 97.1615 57.3467 97.1862 57.7005C97.2253 58.2591 97.3471 58.6623 97.5515 58.9099C97.7546 59.139 98.0052 59.2431 98.3031 59.2223C98.6942 59.1949 99.1454 58.9575 99.6567 58.5101C100.167 58.0441 100.66 57.4669 101.136 56.7787C100.584 56.3869 100.135 55.8569 99.7894 55.1888C99.4606 54.5007 99.2708 53.7935 99.22 53.0673C99.177 52.4528 99.2391 51.8684 99.4062 51.3141C99.5919 50.7584 99.8785 50.308 100.266 49.9628C100.652 49.599 101.134 49.3969 101.711 49.3565C102.475 49.3031 103.001 49.4721 103.29 49.8636C103.58 50.255 103.746 50.758 103.789 51.3725C103.84 52.0987 103.719 52.9211 103.428 53.8397C103.136 54.7396 102.748 55.6181 102.265 56.4752C102.613 56.638 102.974 56.7063 103.346 56.6803C103.644 56.6595 103.975 56.5802 104.34 56.4424C104.703 56.286 105.051 56.0465 105.384 55.7238C105.736 55.3998 106.006 54.9786 106.194 54.4602L106.549 54.7161C106.238 55.6173 105.751 56.2783 105.088 56.6989C104.442 57.0995 103.812 57.3214 103.197 57.3643C102.955 57.3813 102.721 57.3789 102.495 57.3573C102.268 57.3171 102.049 57.2575 101.837 57.1788C101.263 58.061 100.613 58.8081 99.8888 59.4201C99.183 60.0309 98.4763 60.361 97.7687 60.4104ZM101.588 56.0173C102.005 55.2958 102.337 54.5522 102.582 53.7865C102.846 53.0009 102.954 52.2729 102.907 51.6026C102.869 51.0626 102.758 50.6774 102.573 50.447C102.406 50.1967 102.202 50.0801 101.959 50.097C101.587 50.123 101.224 50.4197 100.871 50.9871C100.518 51.5544 100.37 52.2478 100.427 53.0671C100.465 53.6071 100.578 54.1513 100.766 54.6995C100.971 55.2278 101.245 55.6671 101.588 56.0173ZM108.357 59.6139C107.557 59.6699 106.96 59.4309 106.567 58.897C106.194 58.3804 105.979 57.7125 105.922 56.8931C105.859 55.9993 105.953 54.9262 106.202 53.6738C106.451 52.4213 106.798 51.0966 107.243 49.6994C107.707 48.301 108.22 46.9366 108.781 45.6062C109.342 44.2571 109.911 43.0291 110.489 41.9221C111.066 40.8151 111.603 39.9262 112.098 39.2553C112.613 38.5831 113.028 38.236 113.345 38.2138C113.55 38.1995 113.726 38.3088 113.873 38.5418C114.019 38.7561 114.141 39.0283 114.239 39.3583C114.335 39.6696 114.393 39.9556 114.411 40.2163C114.446 40.7191 114.362 41.3893 114.159 42.2268C113.973 43.0445 113.682 43.9723 113.287 45.0104C112.909 46.0286 112.439 47.0719 111.878 48.1404C111.334 49.1889 110.722 50.2047 110.042 51.1878C109.381 52.1697 108.664 53.0244 107.891 53.7521C107.815 54.2627 107.756 54.7627 107.716 55.252C107.692 55.7214 107.696 56.1703 107.726 56.5986C107.776 57.3248 107.917 57.8577 108.146 58.1972C108.376 58.5366 108.695 58.6921 109.105 58.6634C109.608 58.6282 110.086 58.3703 110.539 57.8895C111.01 57.4075 111.437 56.8163 111.818 56.116C112.217 55.3957 112.549 54.6614 112.815 53.9131L113.249 54.1072C112.615 55.7421 111.893 57.0557 111.083 58.0479C110.272 59.0216 109.363 59.5435 108.357 59.6139ZM108.076 52.7848C108.683 52.0875 109.264 51.2984 109.82 50.4175C110.374 49.5179 110.88 48.5937 111.338 47.6448C111.814 46.6946 112.227 45.7769 112.577 44.8917C112.927 44.0065 113.19 43.2208 113.366 42.5349C113.542 41.8303 113.616 41.2917 113.59 40.9193C113.577 40.7331 113.541 40.614 113.481 40.5621C113.44 40.5088 113.401 40.4835 113.363 40.4861C113.214 40.4965 112.971 40.7568 112.632 41.267C112.311 41.7573 111.936 42.4197 111.508 43.2542C111.08 44.0888 110.65 45.0358 110.219 46.0951C109.788 47.1544 109.379 48.259 108.991 49.4088C108.622 50.5573 108.317 51.6827 108.076 52.7848ZM115.684 59.4945C114.548 59.5739 113.67 59.3173 113.048 58.7245C112.446 58.1491 112.114 57.4051 112.05 56.4927C111.991 55.6547 112.134 54.7559 112.479 53.7962C112.842 52.8352 113.34 51.9209 113.971 51.0534C114.622 50.1846 115.348 49.4695 116.151 48.9081C116.952 48.3282 117.763 48.0095 118.582 47.9522C119.01 47.9223 119.409 48.0067 119.779 48.2054C120.167 48.4028 120.385 48.846 120.433 49.535C120.483 50.2426 120.315 50.9279 119.931 51.591C119.565 52.2341 119.054 52.8219 118.398 53.3542C117.762 53.8852 117.045 54.3377 116.248 54.7115C115.468 55.0654 114.68 55.3076 113.885 55.4381C113.861 55.6269 113.845 55.8058 113.838 55.9747C113.831 56.1436 113.833 56.3025 113.843 56.4515C113.863 56.7308 113.91 57.0082 113.986 57.2836C114.08 57.5577 114.219 57.8099 114.404 58.0403C114.587 58.252 114.823 58.4133 115.111 58.5241C115.418 58.6336 115.786 58.6734 116.214 58.6434C117.015 58.5875 117.791 58.3087 118.541 57.8071C119.291 57.2868 119.975 56.6309 120.593 55.8392C121.211 55.0474 121.722 54.1884 122.125 53.262L122.478 53.49C122.053 54.6424 121.479 55.6556 120.754 56.5296C120.048 57.4024 119.254 58.0941 118.373 58.6048C117.511 59.1328 116.615 59.4294 115.684 59.4945ZM113.987 54.8977C114.478 54.6949 115.029 54.4131 115.64 54.0523C116.25 53.6728 116.828 53.2395 117.374 52.7522C117.939 52.2636 118.388 51.7363 118.723 51.1702C119.076 50.6029 119.232 50.0213 119.19 49.4254C119.176 49.2205 119.128 49.0649 119.045 48.9584C118.963 48.8518 118.801 48.807 118.559 48.824C118.112 48.8552 117.649 49.0653 117.171 49.4543C116.692 49.8246 116.239 50.3054 115.813 50.8966C115.386 51.4878 115.01 52.1316 114.685 52.828C114.359 53.5244 114.127 54.2143 113.987 54.8977ZM123.945 58.4116C123.219 58.4624 122.662 58.2674 122.276 57.8266C121.891 57.4044 121.676 56.8675 121.63 56.2157C121.6 55.7874 121.637 55.2422 121.74 54.5801C121.862 53.9166 122.029 53.222 122.24 52.4961C122.45 51.7517 122.701 51.0512 122.991 50.3946C123.301 49.7367 123.638 49.1986 124.001 48.7802C124.364 48.3432 124.731 48.1117 125.104 48.0856C125.271 48.0739 125.415 48.12 125.534 48.2239C125.671 48.3079 125.747 48.4523 125.761 48.6572C125.777 48.8806 125.653 49.2542 125.39 49.7778C125.146 50.3001 124.851 50.9008 124.506 51.5798C124.16 52.2589 123.864 52.972 123.617 53.7191C123.387 54.4462 123.295 55.1356 123.34 55.7874C123.387 56.4577 123.53 56.8968 123.769 57.1047C124.008 57.3125 124.361 57.4001 124.826 57.3676C125.459 57.3233 126.108 56.9599 126.771 56.2773C127.453 55.5934 128.139 54.432 128.829 52.7932L129.1 53.055C128.672 54.6942 127.976 55.9778 127.011 56.906C126.066 57.8329 125.044 58.3348 123.945 58.4116ZM126.402 45.3845C126.104 45.4053 125.829 45.3497 125.577 45.2176C125.343 45.0843 125.215 44.8594 125.193 44.5428C125.165 44.1517 125.365 43.8009 125.793 43.4904C126.237 43.1599 126.683 42.979 127.13 42.9478C127.409 42.9282 127.637 42.9778 127.814 43.0964C127.991 43.215 128.09 43.4326 128.112 43.7492C128.137 44.103 127.966 44.4612 127.598 44.8237C127.248 45.1663 126.849 45.3532 126.402 45.3845ZM130.998 58.0307C130.197 58.0867 129.6 57.8478 129.207 57.3139C128.834 56.7973 128.619 56.1293 128.562 55.31C128.499 54.4162 128.593 53.3431 128.842 52.0906C129.091 50.8382 129.438 49.5134 129.883 48.1163C130.347 46.7179 130.86 45.3535 131.421 44.023C131.982 42.674 132.551 41.4459 133.129 40.339C133.706 39.232 134.243 38.3431 134.738 37.6722C135.253 37 135.668 36.6528 135.985 36.6307C136.19 36.6164 136.366 36.7257 136.513 36.9586C136.659 37.173 136.781 37.4451 136.879 37.7751C136.976 38.0865 137.033 38.3725 137.051 38.6332C137.086 39.136 137.002 39.8061 136.799 40.6437C136.613 41.4613 136.322 42.3892 135.927 43.4273C135.549 44.4455 135.079 45.4888 134.518 46.5572C133.974 47.6057 133.362 48.6216 132.682 49.6047C132.021 50.5865 131.304 51.4413 130.531 52.1689C130.455 52.6795 130.396 53.1795 130.356 53.6689C130.332 54.1383 130.336 54.5872 130.366 55.0155C130.416 55.7417 130.557 56.2745 130.786 56.614C131.016 56.9535 131.335 57.1089 131.745 57.0803C132.248 57.0451 132.726 56.7871 133.179 56.3064C133.65 55.8243 134.077 55.2331 134.458 54.5328C134.857 53.8126 135.189 53.0783 135.455 52.3299L135.889 52.5241C135.255 54.159 134.533 55.4725 133.723 56.4648C132.912 57.4384 132.003 57.9604 130.998 58.0307ZM130.716 51.2017C131.323 50.5044 131.904 49.7153 132.46 48.8343C133.014 47.9348 133.52 47.0106 133.978 46.0617C134.454 45.1115 134.867 44.1938 135.217 43.3085C135.567 42.4233 135.83 41.6377 136.006 40.9517C136.182 40.2471 136.256 39.7086 136.23 39.3362C136.217 39.15 136.181 39.0309 136.121 38.9789C136.08 38.9257 136.041 38.9003 136.003 38.9029C135.854 38.9133 135.611 39.1737 135.272 39.6838C134.951 40.1741 134.576 40.8365 134.148 41.6711C133.72 42.5057 133.29 43.4526 132.859 44.5119C132.428 45.5713 132.019 46.6758 131.631 47.8257C131.262 48.9742 130.958 50.0995 130.716 51.2017ZM144.539 56.9715C143.813 57.0223 143.257 56.8273 142.87 56.3865C142.485 55.9643 142.27 55.4274 142.224 54.7756C142.194 54.3474 142.231 53.8021 142.335 53.14C142.457 52.4765 142.623 51.7819 142.834 51.056C143.044 50.3116 143.295 49.6111 143.586 48.9545C143.895 48.2966 144.232 47.7585 144.596 47.3401C144.958 46.9031 145.325 46.6716 145.698 46.6455C145.865 46.6338 146.009 46.6799 146.128 46.7838C146.265 46.8678 146.341 47.0122 146.355 47.2171C146.371 47.4405 146.247 47.8141 145.985 48.3377C145.74 48.86 145.446 49.4607 145.1 50.1398C144.755 50.8188 144.458 51.5319 144.211 52.279C143.981 53.0061 143.889 53.6956 143.935 54.3473C143.982 55.0177 144.125 55.4568 144.364 55.6646C144.603 55.8724 144.955 55.96 145.421 55.9275C146.054 55.8832 146.702 55.5198 147.365 54.8372C148.047 54.1533 148.733 52.9919 149.423 51.3531L149.694 51.6149C149.266 53.2541 148.57 54.5378 147.606 55.4659C146.66 56.3928 145.638 56.8947 144.539 56.9715ZM146.997 43.9444C146.699 43.9652 146.423 43.9096 146.171 43.7776C145.937 43.6442 145.809 43.4193 145.787 43.1027C145.76 42.7117 145.96 42.3609 146.387 42.0503C146.832 41.7198 147.277 41.5389 147.724 41.5077C148.004 41.4881 148.232 41.5377 148.408 41.6563C148.585 41.7749 148.684 41.9925 148.707 42.3091C148.731 42.6629 148.56 43.0211 148.192 43.3836C147.842 43.7262 147.443 43.9131 146.997 43.9444ZM157.585 56.3961C157.063 56.4326 156.604 56.2869 156.207 55.9592C155.81 55.6314 155.481 55.2053 155.219 54.6809C154.977 54.1552 154.78 53.617 154.629 53.0662C154.496 52.4954 154.414 51.9959 154.384 51.5676C154.589 51.5533 154.884 51.4859 155.268 51.3654C155.651 51.2264 156.041 51.0401 156.436 50.8066C156.83 50.5545 157.155 50.2511 157.411 49.8964C157.684 49.5218 157.804 49.1017 157.772 48.6361C157.745 48.2451 157.583 47.9476 157.289 47.7437C156.994 47.5398 156.66 47.4508 156.287 47.4769C155.71 47.5172 155.185 47.7598 154.71 48.2047C154.235 48.6309 153.815 49.1842 153.451 49.8645C153.104 50.525 152.798 51.2294 152.532 51.9778C152.267 52.7261 152.045 53.434 151.867 54.1014C151.689 54.7687 151.54 55.3218 151.421 55.7605C151.333 56.1035 151.19 56.338 150.993 56.4641C150.798 56.6087 150.588 56.6889 150.365 56.7045C150.048 56.7266 149.806 56.6126 149.639 56.3623C149.491 56.1107 149.384 55.7907 149.319 55.4023C149.272 54.9939 149.233 54.5756 149.204 54.1473C149.136 53.179 149.216 52.0506 149.444 50.7623C149.672 49.4739 149.999 48.1318 150.425 46.736C150.869 45.3202 151.363 43.9478 151.906 42.6187C152.449 41.2895 153.001 40.0814 153.561 38.9944C154.121 37.9073 154.65 37.0377 155.147 36.3854C155.644 35.7331 156.06 35.3953 156.395 35.3719C156.656 35.3536 156.873 35.5162 157.047 35.8596C157.239 36.2017 157.353 36.6241 157.388 37.1269C157.432 37.76 157.343 38.4867 157.12 39.3069C156.895 40.1085 156.55 40.9279 156.085 41.7651C155.638 42.601 155.085 43.3975 154.427 44.1545C153.788 44.9103 153.076 45.5683 152.292 46.1283C151.783 47.6796 151.42 49.1832 151.204 50.6392C151.005 52.0752 150.939 53.2774 151.007 54.2457C151.253 53.48 151.549 52.636 151.896 51.7135C152.262 50.7897 152.686 49.8993 153.169 49.0422C153.652 48.1851 154.191 47.4737 154.788 46.9081C155.385 46.3424 156.028 46.0355 156.717 45.9873C157.406 45.9391 158.009 46.1402 158.527 46.5905C159.045 47.0408 159.328 47.6104 159.376 48.2994C159.418 48.8953 159.296 49.4184 159.009 49.8689C158.74 50.2994 158.391 50.6606 157.962 50.9525C157.551 51.2246 157.126 51.4414 156.688 51.603C156.268 51.7446 155.918 51.8252 155.639 51.8448C155.668 51.9924 155.742 52.2585 155.863 52.6431C155.983 53.0276 156.142 53.4282 156.34 53.8447C156.556 54.26 156.805 54.6168 157.088 54.9151C157.37 55.1948 157.697 55.3217 158.069 55.2956C158.609 55.2579 159.107 55.0172 159.562 54.5737C160.018 54.1302 160.436 53.5583 160.818 52.858C161.217 52.1377 161.572 51.3363 161.885 50.4537L162.184 50.7135C161.987 51.6441 161.647 52.538 161.164 53.3951C160.68 54.2336 160.121 54.9276 159.485 55.4773C158.87 56.0443 158.237 56.3505 157.585 56.3961ZM152.688 44.9778C153.497 44.229 154.187 43.3948 154.759 42.4753C155.349 41.5545 155.794 40.6814 156.091 39.856C156.388 39.0119 156.52 38.3571 156.487 37.8916C156.481 37.7985 156.467 37.734 156.446 37.698C156.443 37.6608 156.423 37.6435 156.386 37.6461C156.2 37.6591 155.897 38.0077 155.477 38.692C155.075 39.375 154.624 40.2767 154.122 41.3971C153.619 42.4989 153.141 43.6925 152.688 44.9778ZM163.67 55.8022C162.87 55.8581 162.284 55.6465 161.914 55.1671C161.545 54.7064 161.335 54.1223 161.286 53.4147C161.246 52.8374 161.297 52.235 161.44 51.6075C161.583 50.98 161.785 50.3858 162.045 49.8249C162.324 49.2628 162.638 48.8011 162.987 48.4399C163.355 48.0774 163.734 47.8824 164.125 47.8551C164.218 47.8486 164.313 47.8607 164.408 47.8914C164.521 47.9022 164.626 47.923 164.721 47.9537C164.564 48.1144 164.379 48.408 164.165 48.8346C163.969 49.2413 163.787 49.7125 163.619 50.2482C163.449 50.7653 163.307 51.2805 163.193 51.7936C163.098 52.3055 163.063 52.7384 163.088 53.0922C163.127 53.6508 163.249 54.054 163.453 54.3016C163.656 54.5307 163.907 54.6348 164.205 54.614C164.596 54.5866 165.047 54.3492 165.558 53.9018C166.068 53.4358 166.561 52.8586 167.037 52.1704C166.486 51.7786 166.037 51.2486 165.691 50.5805C165.362 49.8924 165.172 49.1853 165.122 48.459C165.079 47.8445 165.141 47.2601 165.308 46.7058C165.493 46.1501 165.78 45.6997 166.168 45.3545C166.554 44.9907 167.036 44.7886 167.613 44.7482C168.376 44.6948 168.903 44.8638 169.192 45.2553C169.481 45.6467 169.648 46.1497 169.69 46.7642C169.741 47.4904 169.621 48.3128 169.33 49.2314C169.037 50.1313 168.649 51.0098 168.167 51.8669C168.515 52.0297 168.875 52.0981 169.248 52.072C169.546 52.0512 169.877 51.9719 170.241 51.8341C170.605 51.6777 170.953 51.4382 171.286 51.1155C171.637 50.7915 171.907 50.3703 172.096 49.8519L172.45 50.1078C172.139 51.009 171.652 51.67 170.989 52.0906C170.344 52.4912 169.714 52.7131 169.099 52.756C168.857 52.773 168.623 52.7706 168.397 52.749C168.169 52.7088 167.95 52.6493 167.739 52.5705C167.164 53.4527 166.515 54.1998 165.79 54.8119C165.085 55.4226 164.378 55.7527 163.67 55.8022ZM167.489 51.4091C167.906 50.6875 168.238 49.9439 168.484 49.1782C168.747 48.3926 168.855 47.6646 168.808 46.9943C168.771 46.4543 168.659 46.0691 168.475 45.8387C168.308 45.5884 168.103 45.4718 167.861 45.4887C167.489 45.5147 167.126 45.8114 166.772 46.3788C166.419 46.9462 166.271 47.6395 166.329 48.4588C166.366 48.9989 166.479 49.543 166.667 50.0912C166.873 50.6195 167.147 51.0588 167.489 51.4091ZM173.944 54.9153C173.218 54.9661 172.661 54.7711 172.275 54.3303C171.89 53.9082 171.675 53.3712 171.629 52.7195C171.599 52.2912 171.636 51.7459 171.739 51.0838C171.861 50.4203 172.028 49.7257 172.239 48.9998C172.449 48.2554 172.7 47.5549 172.99 46.8983C173.3 46.2405 173.637 45.7023 174 45.2839C174.363 44.8469 174.73 44.6154 175.103 44.5894C175.27 44.5776 175.414 44.6237 175.533 44.7277C175.67 44.8117 175.746 44.9561 175.76 45.1609C175.776 45.3844 175.652 45.7579 175.389 46.2815C175.145 46.8038 174.85 47.4045 174.505 48.0836C174.159 48.7627 173.863 49.4757 173.616 50.2228C173.386 50.9499 173.294 51.6394 173.339 52.2911C173.386 52.9615 173.529 53.4006 173.768 53.6084C174.007 53.8162 174.36 53.9039 174.825 53.8713C175.458 53.827 176.107 53.4636 176.77 52.781C177.452 52.0971 178.138 50.9358 178.828 49.297L179.099 49.5587C178.671 51.1979 177.975 52.4816 177.01 53.4098C176.065 54.3367 175.043 54.8385 173.944 54.9153ZM176.401 41.8882C176.103 41.909 175.828 41.8534 175.576 41.7214C175.342 41.588 175.214 41.3631 175.192 41.0465C175.164 40.6555 175.364 40.3047 175.792 39.9941C176.236 39.6636 176.682 39.4827 177.129 39.4515C177.408 39.432 177.636 39.4815 177.813 39.6001C177.99 39.7188 178.089 39.9364 178.111 40.2529C178.136 40.6067 177.965 40.9649 177.597 41.3274C177.247 41.67 176.848 41.8569 176.401 41.8882Z" fill="#80C4CE" fill-opacity="0.5"/>
</svg>
