<svg width="341" height="128" viewBox="0 0 341 128" fill="none" xmlns="http://www.w3.org/2000/svg">
<path d="M3.777 60.2815C4.00445 60.2656 4.39452 60.124 4.80567 59.4667C5.57907 58.2699 8.88419 53.2391 10.9069 50.2978C10.4326 52.5022 10.3363 54.3946 10.4357 55.8161C10.5868 57.9768 11.7125 60.1837 14.0438 60.0207C17.1143 59.8059 22.0748 53.1166 23.8979 50.5893C24.0566 50.4068 24.1993 49.9968 24.1834 49.7694C24.1476 49.2576 23.5961 48.7248 22.9707 48.7685C22.6864 48.7884 22.41 48.922 22.1985 49.1654C19.2647 52.9703 15.3671 57.6997 13.8887 57.8031C12.979 57.8667 12.6561 56.5179 12.5925 55.6081C12.3897 52.7082 13.8435 47.3498 14.9167 43.9035L21.0008 43.4781C21.6263 43.4343 22.1023 42.8868 22.0585 42.2613C22.0148 41.6358 21.4712 41.2167 20.8457 41.2605L15.6145 41.6263C15.937 40.5181 17.9924 34.7747 18.4576 33.2566C18.5554 33.0212 18.5805 32.5623 18.5725 32.4486C18.5367 31.9368 18.1069 31.5098 17.3677 31.5615C16.9128 31.5933 16.5876 31.8446 16.3919 32.3154C16.2492 32.7253 15.6662 34.1946 13.8383 39.922L13.1126 41.8012L9.81468 42.0318C9.18921 42.0756 8.70927 42.5663 8.753 43.1917C8.79674 43.8172 9.34428 44.2932 9.96975 44.2494L12.0168 44.1063C11.365 45.4089 9.34625 48.4071 7.02209 51.9408C5.37351 54.513 3.72095 57.0285 2.79685 58.5216C2.64217 58.7609 2.54435 58.9963 2.56423 59.2806C2.60399 59.8492 3.09467 60.3292 3.777 60.2815ZM26.1113 59.1768C28.7269 58.9939 31.0447 57.0034 32.7779 54.8252C33.3016 54.96 33.8174 54.981 34.4428 54.9373C37.3996 54.7306 39.8482 52.1595 42.0495 49.32C42.2082 49.1375 42.302 48.8452 42.2821 48.5609C42.2463 48.0492 41.9183 47.4436 41.1791 47.4953C40.8948 47.5152 40.5616 47.6527 40.35 47.8961C37.9452 51.0926 36.0505 52.5965 34.3446 52.7157L34.174 52.7277C35.5952 50.1713 36.765 47.2897 36.5424 44.1055C36.427 42.4565 35.7205 39.7061 33.3323 39.8731C29.8069 40.1196 28.3321 45.9938 28.5349 48.8937C28.6859 51.0544 29.4955 52.8263 30.7083 53.8271C29.5408 55.1087 27.7189 56.836 25.9562 56.9592C24.5347 57.0586 23.7529 55.6848 23.6456 54.1496C23.415 50.8516 25.4532 45.6808 29.3564 42.6652C29.6777 42.3571 29.8244 42.004 29.8005 41.6628C29.7648 41.1511 29.2132 40.6182 28.5878 40.662C28.4172 40.6739 28.1448 40.8644 27.8685 40.998C23.2579 44.5202 21.1576 50.4381 21.428 54.3046C21.6029 56.8065 23.0976 59.3876 26.1113 59.1768ZM33.4874 42.0907C34.1128 42.0469 34.281 43.6351 34.3287 44.3174C34.4997 46.7624 33.3339 49.7009 32.0066 51.965C31.094 51.1717 30.8121 49.5916 30.7524 48.7386C30.6013 46.5779 31.6109 42.2219 33.4874 42.0907ZM41.2396 49.7195C41.5239 49.6996 41.8002 49.566 42.0118 49.3227L43.1673 47.8705C42.6969 50.1318 42.5478 52.085 42.6511 53.5634C42.8022 55.7241 43.9279 57.931 46.2592 57.7679C49.3297 57.5532 54.2902 50.8639 56.1133 48.3366C56.272 48.1541 56.4147 47.7441 56.3988 47.5167C56.363 47.0049 55.8115 46.4721 55.1861 46.5158C54.9017 46.5357 54.6254 46.6693 54.4139 46.9127C51.4801 50.7176 47.5825 55.447 46.1041 55.5504C45.1944 55.614 44.8715 54.2652 44.8079 53.3554C44.6051 50.4555 46.0589 45.097 47.1321 41.6508L53.2162 41.2253C53.8417 41.1816 54.3176 40.6341 54.2739 40.0086C54.2302 39.3831 53.6866 38.964 53.0611 39.0078L47.8299 39.3736L50.673 31.0038C50.7668 30.7116 50.747 30.4273 50.739 30.3136C50.7032 29.8018 50.3223 29.2571 49.5831 29.3087C49.1282 29.3406 48.7501 29.6527 48.6073 30.0627C48.6073 30.0627 47.8816 31.9418 46.0537 37.6693L45.328 39.5485L42.0301 39.7791C41.4046 39.8229 40.9247 40.3135 40.9684 40.939C41.0121 41.5645 41.5597 42.0404 42.1851 41.9967L44.289 41.8496C43.283 43.8055 42.1024 45.7165 40.3123 47.8987C40.1007 48.1421 40.0069 48.4343 40.0268 48.7186C40.0665 49.2873 40.5572 49.7672 41.2396 49.7195ZM67.249 56.3573C69.5234 56.1983 72.5299 52.6168 77.0991 46.8691C77.2577 46.6866 77.4005 46.2766 77.3846 46.0492C77.3488 45.5374 76.8502 44.9438 76.2247 44.9875C75.9404 45.0074 75.7698 45.0193 75.3996 45.4452C74.1423 47.0759 68.8566 54.0165 67.0939 54.1397C66.4116 54.1875 65.9658 53.533 65.9101 52.7369C65.8386 51.7134 66.1702 49.9189 66.7293 48.1085C68.5457 44.6674 70.1438 40.5559 70.568 39.2692C70.613 39.0946 70.7148 38.9161 70.6989 38.6886C70.671 38.2906 70.1963 38.0381 69.9 37.8874C69.6646 37.7896 68.3779 37.3653 66.5583 37.4926C59.6213 37.9776 52.6564 46.2356 53.1057 52.6609C53.2886 55.2765 54.7964 57.2281 57.5257 57.0372C60.0276 56.8623 62.1219 54.9445 63.6926 52.892C63.8238 54.7684 64.9745 56.5164 67.249 56.3573ZM66.6565 39.7141C67.0546 39.6863 67.5134 39.7113 67.8586 39.7443C67.0601 41.4001 65.6139 44.4153 64.6755 47.3379L64.6715 47.281C63.3192 50.004 60.3274 54.6129 57.3138 54.8236C56.1197 54.9071 55.4147 53.8136 55.3272 52.5627C54.9813 47.6158 60.6293 40.1356 66.6565 39.7141ZM79.9357 55.4702C82.3238 55.3032 85.3104 51.4374 87.6135 48.4194C88.346 47.454 88.9726 46.6102 89.5015 46.0018C89.6601 45.8193 89.8069 45.4662 89.787 45.1819C89.7512 44.6702 89.3663 44.0686 88.6271 44.1203C88.2859 44.1441 88.0136 44.3346 87.802 44.5779C87.2203 45.2471 86.5407 46.1517 85.7514 47.1212C83.6559 49.839 81.0844 53.1043 79.9472 53.1838C79.0374 53.2474 78.9289 52.5122 78.8652 51.6024C78.6784 48.93 79.9194 44.6149 80.756 41.8708C84.7486 36.0491 90.5087 26.9041 92.3593 22.3178C92.7546 21.4331 92.8615 20.5114 92.8059 19.7153C92.7104 18.3506 91.9208 16.8631 90.2149 16.9824C89.0208 17.0659 87.2001 17.9932 85.2648 22.1854C84.625 23.6586 82.3434 28.6178 78.6863 40.8728C77.0827 43.2705 75.8822 44.8972 75.4063 45.4447C75.2476 45.6272 75.1538 45.9195 75.1737 46.2038C75.2134 46.7724 75.7041 47.2523 76.3864 47.2046C76.6139 47.1887 76.8942 47.112 77.0529 46.9295C76.7014 48.4397 76.5324 50.1085 76.6516 51.8144C76.7749 53.5771 77.7181 55.6253 79.9357 55.4702ZM90.3131 19.2039C90.4837 19.192 90.5644 19.5292 90.5883 19.8704C90.6161 20.2684 90.5461 20.9018 90.3016 21.4903C89.1318 24.3719 86.2247 29.3749 83.1879 34.1584C84.363 30.5336 85.7256 26.3243 87.2736 23.1305C88.6709 20.233 89.7445 19.2437 90.3131 19.2039ZM109.723 53.3872C112.453 53.1964 114.913 50.7959 116.636 47.6471C117.277 47.8308 117.911 47.9008 118.593 47.853C121.095 47.6781 123.007 45.6017 124.634 43.5451C124.793 43.3626 124.936 42.9527 124.916 42.6684C124.88 42.1566 124.556 41.6079 123.76 41.6635C123.475 41.6834 123.146 41.8779 122.935 42.1212C121.201 44.2994 119.859 45.5361 118.438 45.6355C118.21 45.6514 117.865 45.6184 117.577 45.5814C118.514 43.4588 119.2 41.011 119.025 38.5091C118.914 36.917 118.325 34.2155 115.937 34.3825C112.923 34.5932 112.08 38.8805 112.227 40.9844C112.362 42.9176 113.102 45.3229 114.619 46.5882C113.255 49.1405 111.445 51.0384 109.625 51.1657C108.147 51.269 107.283 50.3581 107.156 48.5385C107.017 46.5484 107.492 43.5439 108.782 39.1111C111.524 35.8338 117.673 27.3472 120.317 21.8484C121.01 20.3144 121.203 18.9867 121.143 18.1338C121.032 16.5416 119.681 15.2076 117.975 15.3269C117.691 15.3468 117.464 15.3627 117.021 15.5651L117.074 15.5042C115.245 16.3178 113.348 19.4217 110.795 26.2283C109.401 29.9827 108.018 33.9077 106.717 38.1699C104.263 41.4841 96.4942 52.141 96.4942 52.141C96.3355 52.3235 96.2417 52.6158 96.2616 52.9001C96.2974 53.4118 96.6823 54.0135 97.4215 53.9618C97.6489 53.9459 97.9821 53.8083 98.1937 53.5649C100.599 50.3684 102.935 47.0052 105.336 43.7518C104.963 45.7778 104.847 47.3858 104.938 48.6936C105.141 51.5935 106.653 53.6019 109.723 53.3872ZM118.183 17.4836C118.468 17.4637 118.886 17.7202 118.925 18.2888C119.112 20.9613 114.562 27.7934 110.745 32.86C112.104 28.5938 114.648 21.6734 116.833 18.6065C117.302 17.9453 117.785 17.5115 118.183 17.4836ZM116.092 36.6001C116.604 36.5643 116.772 38.1524 116.812 38.7211C116.943 40.5975 116.396 42.5785 115.674 44.5145C114.867 43.5996 114.54 42.194 114.449 40.8861C114.369 39.7489 114.67 36.6995 116.092 36.6001ZM127.188 52.2231C130.77 51.9726 135.596 48.264 139.991 42.4713C140.092 42.2928 140.239 41.9397 140.223 41.7122C140.191 41.2573 139.859 40.5949 139.12 40.6466C138.836 40.6665 138.503 40.804 138.291 41.0474C133.836 46.7872 129.421 49.8386 126.919 50.0135C125.27 50.1288 124.451 49.0433 124.332 47.3375C124.264 46.3708 124.371 45.4491 124.58 44.3489C131.406 42.2717 134.757 38.7232 134.567 35.9939C134.439 34.1743 133.052 33.1286 131.062 33.2677C125.831 33.6335 121.76 42.4319 122.106 47.3788C122.297 50.1081 123.776 52.4617 127.188 52.2231ZM131.217 35.4853C131.615 35.4575 132.309 35.5803 132.345 36.0921C132.44 37.4568 130.67 39.9233 125.368 41.7225C126.391 39.194 128.658 35.6642 131.217 35.4853ZM151.152 50.4902C153.427 50.3312 156.433 46.7497 161.003 41.002C161.161 40.8195 161.304 40.4095 161.288 40.1821C161.252 39.6703 160.754 39.0767 160.128 39.1204C159.844 39.1403 159.673 39.1522 159.303 39.5781C158.046 41.2088 152.76 48.1494 150.997 48.2726C150.315 48.3204 149.869 47.6659 149.814 46.8698C149.742 45.8463 150.074 44.0518 150.633 42.2414C152.449 38.8003 154.047 34.6888 154.472 33.4021C154.516 33.2275 154.618 33.049 154.602 32.8215C154.575 32.4235 154.1 32.171 153.804 32.0203C153.568 31.9225 152.281 31.4982 150.462 31.6254C143.525 32.1105 136.56 40.3685 137.009 46.7938C137.192 49.4094 138.7 51.361 141.429 51.1701C143.931 50.9952 146.025 49.0774 147.596 47.0249C147.727 48.9013 148.878 50.6493 151.152 50.4902ZM150.56 33.847C150.958 33.8192 151.417 33.8442 151.762 33.8772C150.964 35.533 149.517 38.5482 148.579 41.4708L148.575 41.4139C147.223 44.1369 144.231 48.7458 141.217 48.9565C140.023 49.04 139.318 47.9465 139.231 46.6956C138.885 41.7487 144.533 34.2685 150.56 33.847ZM173.278 48.943C175.894 48.7601 179.088 44.5942 181.334 41.5802C181.961 40.7364 182.595 40.0063 183.071 39.4588C183.23 39.2763 183.377 38.9232 183.357 38.6389C183.321 38.1271 182.77 37.5943 182.144 37.638C181.86 37.6579 181.583 37.7915 181.372 38.0349C178.015 42.3265 174.545 46.6261 173.18 46.7215C173.009 46.7334 172.941 46.5668 172.921 46.2825C172.813 44.7473 174.372 40.0671 175.375 37.2543C175.995 35.4968 176.489 33.5766 177.064 31.9937C177.211 31.6406 177.252 31.4092 177.236 31.1817C177.208 30.7837 176.88 30.1781 176.027 30.2377C175.572 30.2695 175.255 30.6346 175.108 30.9877C173.768 33.8812 170.73 39.4647 167.743 43.3305C166.059 45.391 164.241 47.1752 162.876 47.2706C162.535 47.2944 162.348 47.0789 162.317 46.624C162.209 45.0888 163.095 42.227 164.139 39.1828L165.799 34.3241C165.987 33.7396 166.182 33.2688 166.329 32.9157C166.48 32.6195 166.513 32.2744 166.509 32.2175C166.469 31.6489 166.027 31.0512 165.402 31.095C164.549 31.1546 164.418 31.7352 164.121 32.3845C163.432 33.9754 162.251 35.8864 159.424 39.5697C159.265 39.7522 159.122 40.1621 159.138 40.3896C159.178 40.9582 159.555 41.4461 160.294 41.3944C160.635 41.3705 160.911 41.2369 161.229 40.8719C160.38 43.4454 159.996 45.3007 160.095 46.7222C160.147 47.4614 160.304 48.079 160.681 48.5668C161.054 48.9979 161.723 49.5796 163.088 49.4842C165.017 49.2921 167.441 47.1799 169.337 44.8761C170.02 44.0283 170.802 42.9452 171.477 41.9837C171.02 43.6156 170.628 45.3572 170.699 46.3807C170.779 47.5179 171.338 48.1645 171.76 48.4778C172.121 48.7383 172.596 48.9908 173.278 48.943ZM182.226 39.8607C182.511 39.8408 182.787 39.7072 182.999 39.4639L184.154 38.0118C183.684 40.2731 183.535 42.2262 183.638 43.7046C183.789 45.8653 184.915 48.0722 187.246 47.9092C190.316 47.6945 195.277 41.0051 197.1 38.4778C197.259 38.2953 197.402 37.8853 197.386 37.6579C197.35 37.1462 196.798 36.6133 196.173 36.6571C195.889 36.6769 195.612 36.8105 195.401 37.0539C192.467 40.8588 188.569 45.5882 187.091 45.6916C186.181 45.7552 185.858 44.4064 185.795 43.4967C185.592 40.5968 187.046 35.2383 188.119 31.792L194.203 31.3666C194.828 31.3228 195.304 30.7753 195.261 30.1498C195.217 29.5244 194.673 29.1053 194.048 29.149L188.817 29.5148L191.66 21.1451C191.754 20.8528 191.734 20.5685 191.726 20.4548C191.69 19.9431 191.309 19.3983 190.57 19.45C190.115 19.4818 189.737 19.7939 189.594 20.2039C189.594 20.2039 188.868 22.0831 187.04 27.8106L186.315 29.6898L183.017 29.9204C182.391 29.9641 181.911 30.4548 181.955 31.0803C181.999 31.7057 182.546 32.1817 183.172 32.138L185.276 31.9908C184.27 33.9468 183.089 35.8578 181.299 38.04C181.088 38.2833 180.994 38.5756 181.014 38.8599C181.053 39.4285 181.544 39.9084 182.226 39.8607ZM202.666 64.0869C206.078 63.8484 208.041 60.0542 209.244 56.8274C209.672 55.5976 210.153 54.3068 212.348 47.2966C216.548 44.4317 220.89 41.1568 224.397 36.569C224.499 36.3905 224.646 36.0374 224.63 35.8099C224.594 35.2982 224.266 34.6926 223.527 34.7443C223.186 34.7681 222.91 34.9017 222.698 35.1451C219.126 39.6232 216.747 41.5608 213.531 43.7856C214.947 39.5154 215.942 36.5889 217.909 30.3946C218.003 30.1023 218.036 29.7572 218.024 29.5866C217.98 28.9611 217.489 28.4812 216.864 28.5249C216.466 28.5527 216.031 28.8689 215.884 29.222C213.176 34.611 206.814 44.141 203.971 44.3398C203.8 44.3518 203.667 44.0754 203.647 43.7911C203.571 42.7107 204.22 40.5512 205.139 37.3443C205.832 35.0102 206.421 32.7978 206.305 31.1488C206.206 29.7273 205.473 28.2358 203.54 28.371C201.607 28.5062 199.783 31.0335 195.352 37.1145C195.189 37.2401 195.046 37.6501 195.066 37.9344C195.106 38.503 195.43 39.0517 196.226 38.996C196.567 38.9722 196.73 38.8465 196.783 38.7857L198.712 36.1367C200.429 33.731 202.611 30.6073 203.634 30.5357C203.918 30.5158 204.06 30.9059 204.088 31.3039C204.175 32.5549 203.481 34.8889 202.938 36.9268C202.297 39.2 201.29 41.956 201.437 44.0599C201.536 45.4814 202.302 46.6278 204.122 46.5005C206.794 46.3137 210.383 42.063 212.93 38.4565C211.996 41.436 211.816 42.1342 210.535 45.8807C208.194 47.53 205.16 49.9134 202.7 52.3139C200.723 54.2806 198.234 57.0831 198.456 60.2673C198.603 62.3712 200.392 64.246 202.666 64.0869ZM209.247 49.5134C208.357 52.3183 207.814 54.3561 207.141 56.1745C205.84 59.6367 204.444 61.7342 202.568 61.8654C201.544 61.9369 200.746 61.1357 200.67 60.0554C200.535 58.1221 202.419 55.6476 204.18 53.8674C205.673 52.3346 207.51 50.8347 209.247 49.5134ZM241.791 44.6093C246.965 44.2475 252.127 38.8011 255.476 34.3958C255.634 34.2133 255.724 33.8642 255.704 33.5799C255.668 33.0681 255.288 32.5234 254.548 32.575C254.321 32.591 253.988 32.7285 253.776 32.9719C251.941 35.3286 249.179 38.3216 246.797 40.2024C247.054 38.9844 247.072 37.6118 246.977 36.2471C246.902 35.1668 246.712 34.0944 246.58 33.018C246.383 31.8319 246.242 30.6417 246.151 29.3339C246.083 28.3673 246.02 27.4575 246.272 26.9827C246.574 26.3903 247.053 25.8996 247.026 25.5016C246.99 24.9898 246.548 24.3922 245.923 24.4359C245.127 24.4916 244.618 25.3843 244.361 25.8022C243.038 28.1231 241.076 31.1173 239.143 33.7094C237.784 35.5187 234.151 39.9439 232.047 42.5479C231.941 42.6696 231.799 43.0796 231.807 43.1933C231.842 43.705 231.996 44.2657 232.633 44.3926C233.096 44.4745 233.482 44.2761 233.8 43.911L235.28 42.2076C236.984 43.6884 239.403 44.7763 241.791 44.6093ZM241.859 42.3189C239.869 42.4581 238.217 41.7165 236.818 40.5002C238.661 38.2571 239.235 37.4742 239.914 36.5696C241.9 33.9166 243.105 32.3468 243.976 30.9145C243.932 30.289 244.173 32.1006 244.278 32.779C244.475 33.9651 244.676 35.2081 244.767 36.5159C244.986 39.6433 244.418 42.14 241.859 42.3189ZM266.596 42.4176C268.871 42.2586 271.877 38.6771 276.446 32.9294C276.605 32.7469 276.748 32.3369 276.732 32.1095C276.696 31.5977 276.197 31.0041 275.572 31.0478C275.288 31.0677 275.117 31.0796 274.747 31.5055C273.49 33.1361 268.204 40.0768 266.441 40.2C265.759 40.2477 265.313 39.5932 265.257 38.7972C265.186 37.7737 265.517 35.9792 266.076 34.1688C267.893 30.7277 269.491 26.6162 269.915 25.3295C269.96 25.1549 270.062 24.9764 270.046 24.7489C270.018 24.3509 269.543 24.0984 269.247 23.9477C269.012 23.8499 267.725 23.4256 265.906 23.5528C258.968 24.0379 252.004 32.2959 252.453 38.7212C252.636 41.3368 254.144 43.2884 256.873 43.0975C259.375 42.9226 261.469 41.0048 263.04 38.9523C263.171 40.8287 264.322 42.5767 266.596 42.4176ZM266.004 25.7744C266.402 25.7466 266.861 25.7716 267.206 25.8046C266.407 27.4604 264.961 30.4756 264.023 33.3982L264.019 33.3413C262.666 36.0643 259.675 40.6732 256.661 40.8839C255.467 40.9674 254.762 39.8739 254.674 38.623C254.328 33.6761 259.976 26.1959 266.004 25.7744ZM279.283 41.5305C281.671 41.3635 284.658 37.4977 286.961 34.4797C287.693 33.5143 288.32 32.6705 288.849 32.0621C289.007 31.8796 289.154 31.5265 289.134 31.2422C289.098 30.7305 288.713 30.1289 287.974 30.1805C287.633 30.2044 287.361 30.3949 287.149 30.6382C286.567 31.3074 285.888 32.212 285.099 33.1814C283.003 35.8992 280.432 39.1646 279.294 39.2441C278.385 39.3077 278.276 38.5725 278.212 37.6627C278.026 34.9902 279.267 30.6752 280.103 27.9311C284.096 22.1094 289.856 12.9643 291.707 8.37808C292.102 7.49336 292.209 6.57165 292.153 5.77559C292.058 4.41093 291.268 2.92339 289.562 3.04267C288.368 3.12617 286.547 4.05344 284.612 8.24565C283.972 9.71887 281.691 14.6781 278.034 26.9331C276.43 29.3308 275.229 30.9575 274.753 31.505C274.595 31.6875 274.501 31.9798 274.521 32.2641C274.561 32.8327 275.051 33.3126 275.734 33.2649C275.961 33.249 276.241 33.1723 276.4 32.9898C276.049 34.5 275.88 36.1688 275.999 37.8747C276.122 39.6373 277.065 41.6855 279.283 41.5305ZM289.66 5.26423C289.831 5.2523 289.912 5.58949 289.935 5.93066C289.963 6.32869 289.893 6.96212 289.649 7.55061C288.479 10.4322 285.572 15.4352 282.535 20.2187C283.71 16.5939 285.073 12.3846 286.621 9.19082C288.018 6.2933 289.092 5.30399 289.66 5.26423ZM291.093 40.6475C293.709 40.4646 296.027 38.474 297.76 36.2958C298.283 36.4306 298.799 36.4517 299.425 36.408C302.381 36.2012 304.83 33.6301 307.031 30.7907C307.19 30.6082 307.284 30.3159 307.264 30.0316C307.228 29.5198 306.9 28.9143 306.161 28.9659C305.877 28.9858 305.543 29.1234 305.332 29.3668C302.927 32.5633 301.032 34.0671 299.326 34.1864L299.156 34.1983C300.577 31.642 301.747 28.7604 301.524 25.5761C301.409 23.9272 300.702 21.1767 298.314 21.3437C294.789 21.5903 293.314 27.4645 293.517 30.3644C293.668 32.5251 294.477 34.2969 295.69 35.2978C294.523 36.5793 292.701 38.3066 290.938 38.4299C289.517 38.5293 288.735 37.1555 288.627 35.6202C288.397 32.3223 290.435 27.1515 294.338 24.1359C294.66 23.8277 294.806 23.4746 294.782 23.1335C294.747 22.6217 294.195 22.0889 293.57 22.1326C293.399 22.1446 293.127 22.335 292.85 22.4686C288.24 25.9908 286.139 31.9087 286.41 35.7753C286.585 38.2772 288.079 40.8582 291.093 40.6475ZM298.469 23.5613C299.095 23.5176 299.263 25.1057 299.311 25.7881C299.482 28.2331 298.316 31.1716 296.988 33.4357C296.076 32.6424 295.794 31.0622 295.734 30.2093C295.583 28.0486 296.593 23.6925 298.469 23.5613ZM310.998 39.0271C311.282 39.0072 311.79 38.9145 311.989 38.5006L312.784 36.788C313.778 34.6615 315.631 30.9321 317.548 28.1125C319.677 25.0496 322.39 22.1743 324.892 21.9994C325.233 21.9755 325.464 22.0165 325.496 22.4714C325.596 23.8929 324.479 26.7137 323.659 28.8851C322.599 31.702 321.58 34.2873 321.699 35.9932C321.779 37.1304 322.609 38.3865 324.315 38.2672C327.215 38.0644 331.308 32.8643 334.401 28.8768C334.502 28.6983 334.649 28.3452 334.633 28.1177C334.59 27.4923 334.213 27.0044 333.473 27.0561C333.189 27.076 332.86 27.2704 332.701 27.4529C329.662 31.3795 326.037 35.9184 324.217 36.0457C324.046 36.0576 323.925 35.9518 323.909 35.7244C323.821 34.4734 324.829 31.7175 325.713 29.6558C326.398 28.008 327.849 24.2496 327.694 22.032C327.587 20.4967 326.329 19.6705 324.737 19.7818C321.723 19.9925 318.925 22.4737 316.419 25.8488C316.684 24.7446 316.783 23.7092 316.74 23.0837C316.648 21.7759 315.688 20.3003 314.039 20.4156C313.3 20.4673 312.414 20.8721 311.605 21.5572C310.311 22.6761 307.068 26.9598 305.294 29.3694C305.135 29.5519 304.993 29.9619 305.009 30.1893C305.048 30.7579 305.596 31.2339 306.221 31.1901C306.506 31.1703 306.839 31.0327 307.046 30.7325C309.35 27.7145 312.068 24.096 313.04 23.2853C313.58 22.8475 313.966 22.6491 314.194 22.6332C314.365 22.6212 314.441 22.9016 314.461 23.1859C314.628 25.574 311.982 32.6729 310.051 36.922C309.806 37.5105 309.761 37.6851 309.781 37.9694C309.829 38.6517 310.202 39.0827 310.998 39.0271ZM177.817 115.244C182.991 114.882 188.153 109.436 191.502 105.03C191.661 104.848 191.75 104.499 191.731 104.215C191.695 103.703 191.314 103.158 190.575 103.21C190.347 103.226 190.014 103.363 189.802 103.607C187.967 105.963 185.205 108.956 182.823 110.837C183.08 109.619 183.099 108.246 183.003 106.882C182.928 105.801 182.739 104.729 182.606 103.653C182.409 102.466 182.269 101.276 182.177 99.9686C182.109 99.0019 182.046 98.0922 182.298 97.6174C182.6 97.0249 183.08 96.5343 183.052 96.1362C183.016 95.6245 182.574 95.0268 181.949 95.0706C181.153 95.1262 180.644 96.0189 180.387 96.4368C179.064 98.7578 177.102 101.752 175.169 104.344C173.81 106.153 170.177 110.579 168.073 113.183C167.968 113.304 167.825 113.714 167.833 113.828C167.869 114.34 168.022 114.9 168.66 115.027C169.122 115.109 169.509 114.911 169.826 114.546L171.307 112.842C173.01 114.323 175.429 115.411 177.817 115.244ZM177.885 112.954C175.895 113.093 174.244 112.351 172.844 111.135C174.687 108.892 175.261 108.109 175.941 107.204C177.926 104.551 179.131 102.981 180.002 101.549C179.958 100.924 180.199 102.735 180.304 103.414C180.501 104.6 180.702 105.843 180.794 107.151C181.012 110.278 180.444 112.775 177.885 112.954ZM193.691 113.62C196.307 113.437 198.625 111.446 200.358 109.268C200.882 109.403 201.397 109.424 202.023 109.38C204.98 109.173 207.428 106.602 209.629 103.763C209.788 103.58 209.882 103.288 209.862 103.004C209.826 102.492 209.498 101.886 208.759 101.938C208.475 101.958 208.142 102.096 207.93 102.339C205.525 105.535 203.63 107.039 201.925 107.159L201.754 107.171C203.175 104.614 204.345 101.733 204.122 98.5483C204.007 96.8993 203.3 94.1489 200.912 94.3159C197.387 94.5624 195.912 100.437 196.115 103.337C196.266 105.497 197.076 107.269 198.288 108.27C197.121 109.552 195.299 111.279 193.536 111.402C192.115 111.501 191.333 110.128 191.226 108.592C190.995 105.294 193.033 100.124 196.936 97.1081C197.258 96.7999 197.404 96.4468 197.381 96.1056C197.345 95.5939 196.793 95.0611 196.168 95.1048C195.997 95.1167 195.725 95.3072 195.448 95.4408C190.838 98.963 188.738 104.881 189.008 108.747C189.183 111.249 190.678 113.83 193.691 113.62ZM201.067 96.5335C201.693 96.4898 201.861 98.0779 201.909 98.7602C202.08 101.205 200.914 104.144 199.587 106.408C198.674 105.615 198.392 104.034 198.332 103.181C198.181 101.021 199.191 96.6647 201.067 96.5335ZM212.422 112.367C214.81 112.2 217.796 108.334 220.1 105.316C220.832 104.351 221.459 103.507 221.987 102.899C222.146 102.716 222.293 102.363 222.273 102.079C222.237 101.567 221.852 100.965 221.113 101.017C220.772 101.041 220.5 101.231 220.288 101.475C219.706 102.144 219.027 103.049 218.237 104.018C216.142 106.736 213.57 110.001 212.433 110.081C211.523 110.144 211.415 109.409 211.351 108.499C211.164 105.827 212.405 101.512 213.242 98.7677C217.235 92.946 222.995 83.8009 224.845 79.2146C225.241 78.3299 225.348 77.4082 225.292 76.6122C225.196 75.2475 224.407 73.7599 222.701 73.8792C221.507 73.9627 219.686 74.89 217.751 79.0822C217.111 80.5554 214.829 85.5147 211.172 97.7696C209.569 100.167 208.368 101.794 207.892 102.342C207.734 102.524 207.64 102.816 207.66 103.101C207.699 103.669 208.19 104.149 208.872 104.101C209.1 104.086 209.38 104.009 209.539 103.826C209.187 105.337 209.018 107.005 209.138 108.711C209.261 110.474 210.204 112.522 212.422 112.367ZM222.799 76.1008C222.97 76.0889 223.05 76.4261 223.074 76.7672C223.102 77.1652 223.032 77.7987 222.788 78.3872C221.618 81.2688 218.711 86.2718 215.674 91.0552C216.849 87.4305 218.212 83.2211 219.76 80.0274C221.157 77.1299 222.231 76.1406 222.799 76.1008ZM224.524 111.578C228.106 111.327 232.932 107.619 237.327 101.826C237.429 101.648 237.576 101.294 237.56 101.067C237.528 100.612 237.196 99.9496 236.457 100.001C236.172 100.021 235.839 100.159 235.628 100.402C231.172 106.142 226.757 109.193 224.255 109.368C222.606 109.484 221.788 108.398 221.668 106.692C221.601 105.726 221.708 104.804 221.917 103.704C228.742 101.626 232.094 98.078 231.903 95.3486C231.776 93.5291 230.388 92.4833 228.398 92.6225C223.167 92.9883 219.097 101.787 219.443 106.734C219.634 109.463 221.112 111.816 224.524 111.578ZM228.553 94.84C228.951 94.8122 229.646 94.9351 229.681 95.4468C229.777 96.8115 228.007 99.278 222.704 101.077C223.727 98.5487 225.995 95.019 228.553 94.84ZM239.054 110.562C239.907 110.502 241.069 109.964 241.972 108.986C245.857 104.887 248.262 101.69 248.734 101.086C248.888 100.846 249.088 100.432 249.072 100.205C249.04 99.7499 248.655 99.1483 247.916 99.2C247.575 99.2239 247.298 99.3575 247.087 99.6008C246.456 100.388 243.575 104.132 240.382 107.498C239.903 107.988 239.24 108.32 238.956 108.34C238.728 108.356 238.708 108.072 238.677 107.617C238.553 105.854 239.613 103.038 240.47 100.578C241.771 97.1156 243.266 93.9827 243.567 93.3902C243.665 93.1548 243.637 92.7568 243.625 92.5862C243.589 92.0744 243.22 91.7003 242.481 91.752C242.14 91.7758 241.872 92.0231 241.66 92.2665L235.76 100.221C235.393 100.704 235.401 100.818 235.425 101.159C235.461 101.671 235.96 102.264 236.585 102.221C236.869 102.201 237.089 102.071 237.3 101.828C237.512 101.585 237.675 101.459 237.988 101.037C237.127 103.44 236.344 106.123 236.471 107.943C236.562 109.25 237.291 110.685 239.054 110.562ZM247.384 85.8667C247.328 85.0706 246.813 84.2495 245.733 84.325C244.71 84.3966 243.92 85.366 244 86.5033C244.063 87.413 244.517 88.1813 245.597 88.1057C246.337 88.054 247.503 87.5725 247.384 85.8667ZM251.569 109.63C253.957 109.463 256.944 105.597 259.247 102.579C259.98 101.613 260.606 100.77 261.135 100.161C261.294 99.9787 261.44 99.6256 261.421 99.3413C261.385 98.8296 261 98.2279 260.261 98.2796C259.919 98.3035 259.647 98.494 259.436 98.7373C258.854 99.4065 258.174 100.311 257.385 101.281C255.289 103.998 252.718 107.264 251.581 107.343C250.671 107.407 250.562 106.672 250.499 105.762C250.312 103.089 251.553 98.7743 252.39 96.0302C256.382 90.2085 262.142 81.0634 263.993 76.4772C264.388 75.5924 264.495 74.6707 264.439 73.8747C264.344 72.51 263.554 71.0225 261.848 71.1418C260.654 71.2253 258.834 72.1525 256.898 76.3447C256.259 77.818 253.977 82.7772 250.32 95.0322C248.716 97.4299 247.516 99.0566 247.04 99.6041C246.881 99.7866 246.787 100.079 246.807 100.363C246.847 100.932 247.338 101.412 248.02 101.364C248.247 101.348 248.528 101.271 248.686 101.089C248.335 102.599 248.166 104.268 248.285 105.974C248.408 107.736 249.352 109.785 251.569 109.63ZM261.947 73.3633C262.117 73.3514 262.198 73.6886 262.222 74.0298C262.25 74.4278 262.18 75.0612 261.935 75.6497C260.765 78.5313 257.858 83.5343 254.822 88.3178C255.997 84.693 257.359 80.4837 258.907 77.2899C260.304 74.3924 261.378 73.4031 261.947 73.3633ZM279.484 107.735C280.337 107.675 281.5 107.137 282.403 106.159C286.287 102.059 288.692 98.8628 289.164 98.2584C289.319 98.019 289.518 97.6051 289.502 97.3776C289.471 96.9227 289.086 96.3211 288.346 96.3728C288.005 96.3967 287.729 96.5303 287.517 96.7736C286.887 97.5605 284.006 101.305 280.813 104.671C280.333 105.161 279.671 105.493 279.386 105.513C279.159 105.529 279.139 105.245 279.107 104.79C278.996 103.198 280.044 100.21 280.9 97.7506C282.201 94.2884 283.696 91.1555 283.998 90.563C284.095 90.3276 284.124 89.9256 284.113 89.755C284.069 89.1296 283.59 88.8202 282.965 88.864C282.623 88.8878 282.404 89.0174 282.091 89.4393L280.573 91.431L278.693 93.9624L270.118 106.161C270.016 106.34 269.869 106.693 269.885 106.92C269.921 107.432 270.42 108.026 271.045 107.982C271.329 107.962 271.549 107.832 271.76 107.589L278.362 98.2138C277.501 100.617 276.774 103.296 276.901 105.115C276.993 106.423 277.722 107.858 279.484 107.735ZM287.814 83.0395C287.758 82.2434 287.244 81.4223 286.164 81.4979C285.14 81.5694 284.351 82.5389 284.43 83.6761C284.494 84.5859 284.948 85.3541 286.028 85.2785C286.767 85.2268 287.933 84.7453 287.814 83.0395ZM288.724 107.431C289.406 107.384 289.655 106.852 289.793 106.385L290.581 103.759C291.099 102.18 291.788 100.589 292.542 99.1079L292.881 99.884C294.116 102.826 295.849 106.362 299.033 106.139C301.933 105.936 304.301 103.028 308.508 97.82L309.35 96.7897C309.508 96.6072 309.655 96.2541 309.635 95.9698C309.599 95.4581 309.219 94.9133 308.479 94.965C308.252 94.9809 307.862 95.1225 307.65 95.3658L306.125 97.2438C303.016 101.004 300.697 103.794 299.105 103.906C296.888 104.061 295.504 100.615 295.006 99.2212C299.337 98.2327 304.346 94.6827 304.059 90.5887C303.94 88.8828 302.813 87.476 300.766 87.6191C298.549 87.7742 295.97 90.1258 294.131 92.4257L294.653 90.9036C297.258 87.2931 299.704 83.8651 301.568 81.1064C304.779 76.3678 306.486 72.9915 306.358 71.172C306.251 69.6367 305.23 68.1082 303.467 68.2315C302.387 68.307 300.802 69.3321 299.682 71.296C298.204 73.8564 295.851 80.2491 292.697 89.8975C291.342 91.7636 289.983 93.5728 288.205 95.9256C288.103 96.1041 287.997 96.2258 287.521 96.7734C287.363 96.9559 287.269 97.2481 287.289 97.5324C287.325 98.0442 287.88 98.6339 288.506 98.5901C288.79 98.5702 289.172 98.315 289.327 98.0756L290.425 96.6274L288.467 102.935C288.136 103.93 287.459 105.691 287.515 106.487C287.547 106.942 287.928 107.487 288.724 107.431ZM300.978 89.8328C301.547 89.793 301.798 90.1183 301.842 90.7437C301.969 92.5633 300.151 94.3474 298.062 95.522C296.472 96.4903 294.904 96.9428 293.555 97.2656C296.006 93.0945 298.931 89.9759 300.978 89.8328ZM303.622 70.4491C303.964 70.4252 304.113 70.929 304.145 71.3839C304.264 73.0897 300.812 78.4736 296.966 83.9422C299.536 76.563 300.673 74.0266 301.642 72.3589C302.354 71.1091 303.111 70.4849 303.622 70.4491ZM311.634 105.372C314.249 105.189 316.567 103.199 318.3 101.021C318.824 101.155 319.34 101.177 319.965 101.133C322.922 100.926 325.371 98.355 327.572 95.5155C327.731 95.333 327.824 95.0407 327.805 94.7564C327.769 94.2447 327.441 93.6391 326.702 93.6908C326.417 93.7107 326.084 93.8482 325.873 94.0916C323.468 97.2881 321.573 98.792 319.867 98.9112L319.696 98.9232C321.118 96.3668 322.287 93.4852 322.065 90.301C321.949 88.652 321.243 85.9016 318.855 86.0686C315.329 86.3151 313.855 92.1893 314.057 95.0892C314.208 97.2499 315.018 99.0218 316.231 100.023C315.063 101.304 313.241 103.031 311.479 103.155C310.057 103.254 309.275 101.88 309.168 100.345C308.937 97.0471 310.976 91.8763 314.879 88.8607C315.2 88.5526 315.347 88.1995 315.323 87.8583C315.287 87.3465 314.736 86.8137 314.11 86.8575C313.94 86.8694 313.667 87.0598 313.391 87.1935C308.78 90.7156 306.68 96.6336 306.95 100.5C307.125 103.002 308.62 105.583 311.634 105.372ZM319.01 88.2862C319.635 88.2424 319.803 89.8306 319.851 90.5129C320.022 92.9579 318.856 95.8964 317.529 98.1605C316.616 97.3672 316.335 95.787 316.275 94.9341C316.124 92.7734 317.133 88.4174 319.01 88.2862ZM329.288 104.252C330.141 104.192 331.303 103.654 332.206 102.677C336.09 98.5767 338.495 95.3802 338.967 94.7758C339.122 94.5364 339.322 94.1225 339.306 93.8951C339.274 93.4402 338.889 92.8385 338.15 92.8902C337.809 92.9141 337.532 93.0477 337.321 93.291C336.69 94.078 333.809 97.822 330.616 101.188C330.136 101.679 329.474 102.011 329.19 102.031C328.962 102.046 328.942 101.762 328.91 101.307C328.787 99.5446 329.847 96.7277 330.704 94.268C332.004 90.8058 333.499 87.6729 333.801 87.0804C333.899 86.845 333.871 86.447 333.859 86.2764C333.823 85.7647 333.454 85.3905 332.715 85.4422C332.374 85.4661 332.105 85.7134 331.894 85.9567L325.993 93.9117C325.627 94.3944 325.635 94.5082 325.659 94.8493C325.695 95.3611 326.193 95.9547 326.819 95.911C327.103 95.8911 327.323 95.7615 327.534 95.5181C327.746 95.2748 327.908 95.1491 328.222 94.7273C327.361 97.1301 326.577 99.8133 326.705 101.633C326.796 102.941 327.525 104.375 329.288 104.252ZM337.617 79.5569C337.562 78.7608 337.047 77.9397 335.967 78.0153C334.943 78.0868 334.154 79.0563 334.234 80.1935C334.297 81.1033 334.751 81.8715 335.831 81.7959C336.57 81.7443 337.737 81.2627 337.617 79.5569Z" fill="#80C4CE" fill-opacity="0.5"/>
</svg>
